<?xml version="1.0" encoding="UTF-8"?>
<svg width="287px" height="90px" viewBox="0 0 287 90" version="1.1" xmlns="http://www.w3.org/2000/svg" xmlns:xlink="http://www.w3.org/1999/xlink">
    <!-- Generator: Sketch 52.5 (67469) - http://www.bohemiancoding.com/sketch -->
    <title>Group 2</title>
    <desc>Created with Sketch.</desc>
    <g id="Page-1" stroke="none" stroke-width="1" fill="none" fill-rule="evenodd">
        <g id="Group-2" transform="translate(1.000000, 1.000000)">
            <g id="Group-4">
                <polygon id="Fill-1" fill="#FEFEFE" points="73 1 54.8413421 26.6413411 25 30"></polygon>
                <polygon id="Stroke-2" stroke="#9EB5A6" stroke-width="1.134" stroke-linejoin="round" points="73 1 54.8413421 26.6413411 25 30"></polygon>
                <polygon id="Fill-3" fill="#9EB5A6" points="74 1 2 43 25.2409526 1.35423123"></polygon>
                <polygon id="Stroke-4" stroke="#FEFEFE" stroke-width="1.134" stroke-linejoin="round" points="74 1 2 43 25.2409526 1.35423123"></polygon>
                <polygon id="Fill-5" fill="#9EB5A6" points="51 14.346193 24.4431208 30 24 2"></polygon>
                <polygon id="Stroke-6" stroke="#FEFEFE" stroke-width="1.134" stroke-linejoin="round" points="51 14.346193 24.4431208 30 24 2"></polygon>
                <polygon id="Fill-7" fill="#FEFEFE" points="51.6388653 14 25 29 55 25.8530464"></polygon>
                <polygon id="Stroke-8" stroke="#9EB5A6" stroke-width="1.134" stroke-linejoin="round" points="51.6388653 14 25 29 55 25.8530464"></polygon>
                <polygon id="Fill-9" fill="#9EB5A6" points="2 42.7298317 26 85 25.5325095 29"></polygon>
                <polygon id="Stroke-10" stroke="#FEFEFE" stroke-width="1.134" stroke-linejoin="round" points="26 85 2 42.729338 25.5325095 29"></polygon>
                <polygon id="Fill-12" fill="#9EB5A6" points="26 86 26 58.767805 2 43"></polygon>
                <polygon id="Stroke-13" stroke="#FEFEFE" stroke-width="1.134" stroke-linejoin="round" points="26 86 2 43 26 58.7681231"></polygon>
                <polygon id="Fill-15" fill="#9EB5A6" points="25.4720604 83 43 59.7194889 25 29"></polygon>
                <polygon id="Stroke-16" stroke="#FEFEFE" stroke-width="1.134" stroke-linejoin="round" points="25.4720604 83 43 59.7194889 25 29"></polygon>
                <polygon id="Fill-17" fill="#DECC68" points="55 26 42.9195938 60 25 29.2213778"></polygon>
                <polygon id="Stroke-18" stroke="#FEFEFE" stroke-width="1.134" stroke-linejoin="round" points="55 26 42.9195938 60 25 29.2213778"></polygon>
                <polygon id="Fill-19" fill="#FEFEFE" points="55 26 30.9645414 40 25 29.3492335"></polygon>
                <polygon id="Stroke-20" stroke="#9EB5A6" stroke-width="1.134" stroke-linejoin="round" points="55 26 30.9645414 40 25 29.3492335"></polygon>
                <polygon id="Fill-21" fill="#9EB5A6" points="55 26 42.9374156 60 31 39.4655553"></polygon>
                <polygon id="Stroke-22" stroke="#FEFEFE" stroke-width="1.134" stroke-linejoin="round" points="55 26 42.9374156 60 31 39.4655553"></polygon>
                <polygon id="Fill-23" fill="#DECC68" points="49 43.1319484 42.8478883 61 31 40"></polygon>
                <polygon id="Stroke-24" stroke="#FEFEFE" stroke-width="1.134" stroke-linejoin="round" points="49 43.1319484 42.8478883 61 31 40"></polygon>
                <polygon id="Fill-25" fill="#FEFEFE" points="49 43 42.8866347 61 37 50.4219566"></polygon>
                <polygon id="Stroke-26" stroke="#9EB5A6" stroke-width="1.134" stroke-linejoin="round" points="49 43 42.8866347 61 37 50.4219566"></polygon>
                <polygon id="Fill-27" fill="#9EB5A6" points="26 60.1277937 43 62 37.1765026 51"></polygon>
                <polygon id="Stroke-28" stroke="#FEFEFE" stroke-width="1.134" stroke-linejoin="round" points="26 60.1277937 43 62 37.1765026 51"></polygon>
                <polygon id="Fill-29" fill="#9EB5A6" points="26 59 31.2684689 40 37 50.3834269"></polygon>
                <polygon id="Stroke-30" stroke="#FEFEFE" stroke-width="1.134" stroke-linejoin="round" points="26 59 31.2684689 40 37 50.3834269"></polygon>
                <polygon id="Fill-31" fill="#9EB5A6" points="49 43.2812455 36.9239441 51 31 40"></polygon>
                <polygon id="Stroke-32" stroke="#FEFEFE" stroke-width="1.134" stroke-linejoin="round" points="49 43.2812455 36.9239441 51 31 40"></polygon>
                <polygon id="Fill-33" fill="#FEFEFE" points="72.8756791 1 67 47 97 43.3532461"></polygon>
                <polygon id="Stroke-34" stroke="#9EB5A6" stroke-width="1.134" stroke-linejoin="round" points="72.8756791 1 67 47 97 43.3532461"></polygon>
                <polygon id="Fill-35" fill="#FEFEFE" points="73.4980684 1 69 35.3798055 98 43"></polygon>
                <polygon id="Stroke-36" stroke="#9EB5A6" stroke-width="1.134" stroke-linejoin="round" points="73.4980684 1 69 35.3798055 98 43"></polygon>
                <polygon id="Fill-37" fill="#FEFEFE" points="81.0226249 70 67 46.5744971 97 43"></polygon>
                <polygon id="Stroke-38" stroke="#9EB5A6" stroke-width="1.134" stroke-linejoin="round" points="81.0226249 70 67 46.5744971 97 43"></polygon>
                <polygon id="Fill-39" fill="#FEFEFE" points="81.0616287 70 73 56.5 97 43"></polygon>
                <polygon id="Stroke-40" stroke="#9EB5A6" stroke-width="1.134" stroke-linejoin="round" points="81.0616287 70 73 56.5 97 43"></polygon>
                <polygon id="Fill-41" fill="#DECC68" points="81 69.8744323 43 60 72.7489402 84"></polygon>
                <polygon id="Stroke-42" stroke="#FEFEFE" stroke-width="1.134" stroke-linejoin="round" points="81 69.8744323 43 60 72.7489402 84"></polygon>
                <polygon id="Fill-43" fill="#FEFEFE" points="82 70.6676008 60 65 73.5554486 85"></polygon>
                <polygon id="Stroke-44" stroke="#9EB5A6" stroke-width="1.134" stroke-linejoin="round" points="82 70.6676008 60 65 73.5554486 85"></polygon>
                <polygon id="Fill-45" fill="#FEFEFE" points="82 71 60 65.232658 73.7999771 57"></polygon>
                <polygon id="Stroke-46" stroke="#9EB5A6" stroke-width="1.134" stroke-linejoin="round" points="82 71 60 65.232658 73.7999771 57"></polygon>
                <polygon id="Fill-47" fill="#9EB5A6" points="67.8841109 47 60 65 74 57.0009896"></polygon>
                <polygon id="Stroke-48" stroke="#FEFEFE" stroke-width="1.134" stroke-linejoin="round" points="67.8841109 47 60 65 74 57.0009896"></polygon>
                <polygon id="Fill-49" fill="#9EB5A6" points="67 47 59.4374757 65 43 60.6981692"></polygon>
                <polygon id="Stroke-50" stroke="#FEFEFE" stroke-width="1.134" stroke-linejoin="round" points="67 47 59.4374757 65 43 60.6981692"></polygon>
                <polygon id="Fill-51" fill="#9EB5A6" points="43.2266281 60 26 83.464343 73 84"></polygon>
                <polygon id="Stroke-52" stroke="#FEFEFE" stroke-width="1.134" stroke-linejoin="round" points="43.2266281 60 26 83.464343 73 84"></polygon>
                <polygon id="Fill-53" fill="#FEFEFE" points="53.1057705 69 26 85.4321656 73 86"></polygon>
                <polygon id="Stroke-54" stroke="#9EB5A6" stroke-width="1.134" stroke-linejoin="round" points="53.1057705 69 26 85.4321656 73 86"></polygon>
                <polygon id="Fill-55" fill="#FEFEFE" points="53 68.728856 60.0818567 65 73 85"></polygon>
                <polygon id="Stroke-56" stroke="#9EB5A6" stroke-width="1.134" stroke-linejoin="round" points="53 68.728856 60.0818567 65 73 85"></polygon>
                <polygon id="Fill-57" fill="#DECC68" points="54.867776 26 43 60 67 46.4260848"></polygon>
                <polygon id="Stroke-58" stroke="#FEFEFE" stroke-width="1.134" stroke-linejoin="round" points="54.867776 26 43 60 67 46.4260848"></polygon>
                <polygon id="Fill-59" fill="#FEFEFE" points="49.098618 43 43 61 67 47.0158276"></polygon>
                <polygon id="Stroke-60" stroke="#9EB5A6" stroke-width="1.134" stroke-linejoin="round" points="49.098618 43 43 61 67 47.0158276"></polygon>
                <polygon id="Fill-61" fill="#DECC68" points="54.801025 26 49 42.9924626 67 47"></polygon>
                <polygon id="Stroke-62" stroke="#FEFEFE" stroke-width="1.134" stroke-linejoin="round" points="54.801025 26 49 42.9924626 67 47"></polygon>
                <polygon id="Fill-63" fill="#9EB5A6" points="54.8495212 26 49 43 61 36.5049097"></polygon>
                <polygon id="Stroke-64" stroke="#FEFEFE" stroke-width="1.134" stroke-linejoin="round" points="54.8495212 26 49 43 61 36.5049097"></polygon>
                <polygon id="Fill-65" fill="#FEFEFE" points="69 35 67.4748936 46 61 35.8696114"></polygon>
                <polygon id="Fill-67" fill="#FEFEFE" points="72 1 54 25.7303027 60.0889667 36"></polygon>
                <polygon id="Stroke-68" stroke="#9EB5A6" stroke-width="1.134" stroke-linejoin="round" points="72 1 54 25.7303027 60.0889667 36"></polygon>
                <polygon id="Fill-69" fill="#FEFEFE" points="73 1 68.5781379 35.1189232 61 36"></polygon>
                <polygon id="Stroke-70" stroke="#9EB5A6" stroke-width="1.134" stroke-linejoin="round" points="73 1 68.5781379 35.1189232 61 36"></polygon>
                <polygon id="Fill-71" fill="#9EB5A6" points="61 64.3079591 43 60 52.8669329 68"></polygon>
                <polygon id="Stroke-72" stroke="#FEFEFE" stroke-width="1.134" stroke-linejoin="round" points="61 64.3079591 43 60 52.8669329 68"></polygon>
                <g id="Group-161">
                    <path d="M95.466403,43.298763 C95.466403,43.9102081 95.9598677,44.4058266 96.5691505,44.4058266 C97.1774434,44.4058266 97.6709081,43.9102081 97.6709081,43.298763 C97.6709081,42.687815 97.1774434,42.1916994 96.5691505,42.1916994 C95.9598677,42.1916994 95.466403,42.687815 95.466403,43.298763" id="Fill-73" fill="#9EB5A6"></path>
                    <path d="M95.466403,43.298763 C95.466403,43.9102081 95.9598677,44.4058266 96.5691505,44.4058266 C97.1774434,44.4058266 97.6709081,43.9102081 97.6709081,43.298763 C97.6709081,42.687815 97.1774434,42.1916994 96.5691505,42.1916994 C95.9598677,42.1916994 95.466403,42.687815 95.466403,43.298763 Z" id="Stroke-75" stroke="#FEFEFE" stroke-width="1.134" stroke-linejoin="round"></path>
                    <path d="M67.1373253,35.5294832 C67.1373253,36.1409283 67.6307899,36.6365468 68.2395778,36.6365468 C68.8483657,36.6365468 69.3418303,36.1409283 69.3418303,35.5294832 C69.3418303,34.9185353 68.8483657,34.4224197 68.2395778,34.4224197 C67.6307899,34.4224197 67.1373253,34.9185353 67.1373253,35.5294832" id="Fill-77" fill="#9EB5A6"></path>
                    <path d="M67.1373253,35.5294832 C67.1373253,36.1409283 67.6307899,36.6365468 68.2395778,36.6365468 C68.8483657,36.6365468 69.3418303,36.1409283 69.3418303,35.5294832 C69.3418303,34.9185353 68.8483657,34.4224197 68.2395778,34.4224197 C67.6307899,34.4224197 67.1373253,34.9185353 67.1373253,35.5294832 Z" id="Stroke-79" stroke="#FEFEFE" stroke-width="1.134" stroke-linejoin="round"></path>
                    <path d="M23.7255525,29.3294301 C23.7255525,29.9408751 24.2190172,30.4364936 24.8278051,30.4364936 C25.4365929,30.4364936 25.9300576,29.9408751 25.9300576,29.3294301 C25.9300576,28.7184821 25.4365929,28.2223665 24.8278051,28.2223665 C24.2190172,28.2223665 23.7255525,28.7184821 23.7255525,29.3294301" id="Fill-81" fill="#9EB5A6"></path>
                    <path d="M23.7255525,29.3294301 C23.7255525,29.9408751 24.2190172,30.4364936 24.8278051,30.4364936 C25.4365929,30.4364936 25.9300576,29.9408751 25.9300576,29.3294301 C25.9300576,28.7184821 25.4365929,28.2223665 24.8278051,28.2223665 C24.2190172,28.2223665 23.7255525,28.7184821 23.7255525,29.3294301 Z" id="Stroke-83" stroke="#FEFEFE" stroke-width="1.134" stroke-linejoin="round"></path>
                    <path d="M29.6364374,39.7155954 C29.6364374,40.3270405 30.129902,40.822659 30.7386899,40.822659 C31.3474778,40.822659 31.8409424,40.3270405 31.8409424,39.7155954 C31.8409424,39.1046474 31.3474778,38.6085318 30.7386899,38.6085318 C30.129902,38.6085318 29.6364374,39.1046474 29.6364374,39.7155954" id="Fill-85" fill="#9EB5A6"></path>
                    <path d="M29.6364374,39.7155954 C29.6364374,40.3270405 30.129902,40.822659 30.7386899,40.822659 C31.3474778,40.822659 31.8409424,40.3270405 31.8409424,39.7155954 C31.8409424,39.1046474 31.3474778,38.6085318 30.7386899,38.6085318 C30.129902,38.6085318 29.6364374,39.1046474 29.6364374,39.7155954 Z" id="Stroke-87" stroke="#FEFEFE" stroke-width="1.134" stroke-linejoin="round"></path>
                    <path d="M53.4570697,26.0635179 C53.4570697,26.6744659 53.9505343,27.1705815 54.5593222,27.1705815 C55.1681101,27.1705815 55.6615747,26.6744659 55.6615747,26.0635179 C55.6615747,25.4520728 55.1681101,24.9564543 54.5593222,24.9564543 C53.9505343,24.9564543 53.4570697,25.4520728 53.4570697,26.0635179" id="Fill-89" fill="#9EB5A6"></path>
                    <path d="M53.4570697,26.0635179 C53.4570697,26.6744659 53.9505343,27.1705815 54.5593222,27.1705815 C55.1681101,27.1705815 55.6615747,26.6744659 55.6615747,26.0635179 C55.6615747,25.4520728 55.1681101,24.9564543 54.5593222,24.9564543 C53.9505343,24.9564543 53.4570697,25.4520728 53.4570697,26.0635179 Z" id="Stroke-91" stroke="#FEFEFE" stroke-width="1.134" stroke-linejoin="round"></path>
                    <path d="M49.7754374,13.7619884 C49.7754374,14.3729364 50.268902,14.869052 50.8781848,14.869052 C51.4864778,14.869052 51.9799424,14.3729364 51.9799424,13.7619884 C51.9799424,13.1505434 51.4864778,12.6549249 50.8781848,12.6549249 C50.268902,12.6549249 49.7754374,13.1505434 49.7754374,13.7619884" id="Fill-93" fill="#9EB5A6"></path>
                    <path d="M49.7754374,13.7619884 C49.7754374,14.3729364 50.268902,14.869052 50.8781848,14.869052 C51.4864778,14.869052 51.9799424,14.3729364 51.9799424,13.7619884 C51.9799424,13.1505434 51.4864778,12.6549249 50.8781848,12.6549249 C50.268902,12.6549249 49.7754374,13.1505434 49.7754374,13.7619884 Z" id="Stroke-95" stroke="#FEFEFE" stroke-width="1.134" stroke-linejoin="round"></path>
                    <path d="M41.546902,60.5345052 C41.546902,61.1454532 42.0403667,61.6415688 42.6491545,61.6415688 C43.2579424,61.6415688 43.7514071,61.1454532 43.7514071,60.5345052 C43.7514071,59.9230601 43.2579424,59.4269445 42.6491545,59.4269445 C42.0403667,59.4269445 41.546902,59.9230601 41.546902,60.5345052" id="Fill-97" fill="#9EB5A6"></path>
                    <path d="M41.546902,60.5345052 C41.546902,61.1454532 42.0403667,61.6415688 42.6491545,61.6415688 C43.2579424,61.6415688 43.7514071,61.1454532 43.7514071,60.5345052 C43.7514071,59.9230601 43.2579424,59.4269445 42.6491545,59.4269445 C42.0403667,59.4269445 41.546902,59.9230601 41.546902,60.5345052 Z" id="Stroke-99" stroke="#FEFEFE" stroke-width="1.134" stroke-linejoin="round"></path>
                    <path d="M58.4742737,64.8565272 C58.4742737,65.4679723 58.9677384,65.9640879 59.5765263,65.9640879 C60.1853141,65.9640879 60.6787788,65.4679723 60.6787788,64.8565272 C60.6787788,64.2455792 60.1853141,63.7494636 59.5765263,63.7494636 C58.9677384,63.7494636 58.4742737,64.2455792 58.4742737,64.8565272" id="Fill-101" fill="#9EB5A6"></path>
                    <path d="M58.4742737,64.8565272 C58.4742737,65.4679723 58.9677384,65.9640879 59.5765263,65.9640879 C60.1853141,65.9640879 60.6787788,65.4679723 60.6787788,64.8565272 C60.6787788,64.2455792 60.1853141,63.7494636 59.5765263,63.7494636 C58.9677384,63.7494636 58.4742737,64.2455792 58.4742737,64.8565272 Z" id="Stroke-103" stroke="#FEFEFE" stroke-width="1.134" stroke-linejoin="round"></path>
                    <path d="M51.2530101,68.5605919 C51.2530101,69.1715399 51.7464747,69.6676555 52.3552626,69.6676555 C52.9635556,69.6676555 53.4570202,69.1715399 53.4570202,68.5605919 C53.4570202,67.9491468 52.9635556,67.4535283 52.3552626,67.4535283 C51.7464747,67.4535283 51.2530101,67.9491468 51.2530101,68.5605919" id="Fill-105" fill="#9EB5A6"></path>
                    <path d="M51.2530101,68.5605919 C51.2530101,69.1715399 51.7464747,69.6676555 52.3552626,69.6676555 C52.9635556,69.6676555 53.4570202,69.1715399 53.4570202,68.5605919 C53.4570202,67.9491468 52.9635556,67.4535283 52.3552626,67.4535283 C51.7464747,67.4535283 51.2530101,67.9491468 51.2530101,68.5605919 Z" id="Stroke-107" stroke="#FEFEFE" stroke-width="1.134" stroke-linejoin="round"></path>
                    <path d="M0.280735354,43.1543526 C0.280735354,43.7657977 0.7742,44.2614162 1.38298788,44.2614162 C1.99177576,44.2614162 2.48474545,43.7657977 2.48474545,43.1543526 C2.48474545,42.5429075 1.99177576,42.047289 1.38298788,42.047289 C0.7742,42.047289 0.280735354,42.5429075 0.280735354,43.1543526" id="Fill-109" fill="#9EB5A6"></path>
                    <path d="M0.280735354,43.1543526 C0.280735354,43.7657977 0.7742,44.2614162 1.38298788,44.2614162 C1.99177576,44.2614162 2.48474545,43.7657977 2.48474545,43.1543526 C2.48474545,42.5429075 1.99177576,42.047289 1.38298788,42.047289 C0.7742,42.047289 0.280735354,42.5429075 0.280735354,43.1543526 Z" id="Stroke-111" stroke="#FEFEFE" stroke-width="1.134" stroke-linejoin="round"></path>
                    <path d="M23.2852455,1.48402197 C23.2852455,2.09546705 23.7787101,2.59108555 24.387498,2.59108555 C24.9962859,2.59108555 25.4897505,2.09546705 25.4897505,1.48402197 C25.4897505,0.872576879 24.9962859,0.376958382 24.387498,0.376958382 C23.7787101,0.376958382 23.2852455,0.872576879 23.2852455,1.48402197" id="Fill-113" fill="#9EB5A6"></path>
                    <path d="M23.2852455,1.48402197 C23.2852455,2.09546705 23.7787101,2.59108555 24.387498,2.59108555 C24.9962859,2.59108555 25.4897505,2.09546705 25.4897505,1.48402197 C25.4897505,0.872576879 24.9962859,0.376958382 24.387498,0.376958382 C23.7787101,0.376958382 23.2852455,0.872576879 23.2852455,1.48402197 Z" id="Stroke-115" stroke="#FEFEFE" stroke-width="1.134" stroke-linejoin="round"></path>
                    <path d="M71.3738949,1.48402197 C71.3738949,2.09546705 71.8673596,2.59108555 72.4761475,2.59108555 C73.0844404,2.59108555 73.5779051,2.09546705 73.5779051,1.48402197 C73.5779051,0.872576879 73.0844404,0.376958382 72.4761475,0.376958382 C71.8673596,0.376958382 71.3738949,0.872576879 71.3738949,1.48402197" id="Fill-117" fill="#9EB5A6"></path>
                    <path d="M71.3738949,1.48402197 C71.3738949,2.09546705 71.8673596,2.59108555 72.4761475,2.59108555 C73.0844404,2.59108555 73.5779051,2.09546705 73.5779051,1.48402197 C73.5779051,0.872576879 73.0844404,0.376958382 72.4761475,0.376958382 C71.8673596,0.376958382 71.3738949,0.872576879 71.3738949,1.48402197 Z" id="Stroke-119" stroke="#FEFEFE" stroke-width="1.134" stroke-linejoin="round"></path>
                    <path d="M71.6140939,56.8202497 C71.6140939,57.4316948 72.1075586,57.9278104 72.7163465,57.9278104 C73.3246394,57.9278104 73.818104,57.4316948 73.818104,56.8202497 C73.818104,56.2093017 73.3246394,55.7131861 72.7163465,55.7131861 C72.1075586,55.7131861 71.6140939,56.2093017 71.6140939,56.8202497" id="Fill-121" fill="#9EB5A6"></path>
                    <path d="M71.6140939,56.8202497 C71.6140939,57.4316948 72.1075586,57.9278104 72.7163465,57.9278104 C73.3246394,57.9278104 73.818104,57.4316948 73.818104,56.8202497 C73.818104,56.2093017 73.3246394,55.7131861 72.7163465,55.7131861 C72.1075586,55.7131861 71.6140939,56.2093017 71.6140939,56.8202497 Z" id="Stroke-123" stroke="#FEFEFE" stroke-width="1.134" stroke-linejoin="round"></path>
                    <path d="M79.663804,70.4863954 C79.663804,71.0978405 80.1567737,71.593459 80.7660566,71.593459 C81.3743495,71.593459 81.8678141,71.0978405 81.8678141,70.4863954 C81.8678141,69.8754474 81.3743495,69.3793318 80.7660566,69.3793318 C80.1567737,69.3793318 79.663804,69.8754474 79.663804,70.4863954" id="Fill-125" fill="#9EB5A6"></path>
                    <path d="M79.663804,70.4863954 C79.663804,71.0978405 80.1567737,71.593459 80.7660566,71.593459 C81.3743495,71.593459 81.8678141,71.0978405 81.8678141,70.4863954 C81.8678141,69.8754474 81.3743495,69.3793318 80.7660566,69.3793318 C80.1567737,69.3793318 79.663804,69.8754474 79.663804,70.4863954 Z" id="Stroke-127" stroke="#FEFEFE" stroke-width="1.134" stroke-linejoin="round"></path>
                    <path d="M71.3738949,84.6113237 C71.3738949,85.2222717 71.8673596,85.7183873 72.4761475,85.7183873 C73.0844404,85.7183873 73.5779051,85.2222717 73.5779051,84.6113237 C73.5779051,84.0003757 73.0844404,83.5042601 72.4761475,83.5042601 C71.8673596,83.5042601 71.3738949,84.0003757 71.3738949,84.6113237" id="Fill-129" fill="#9EB5A6"></path>
                    <path d="M71.3738949,84.6113237 C71.3738949,85.2222717 71.8673596,85.7183873 72.4761475,85.7183873 C73.0844404,85.7183873 73.5779051,85.2222717 73.5779051,84.6113237 C73.5779051,84.0003757 73.0844404,83.5042601 72.4761475,83.5042601 C71.8673596,83.5042601 71.3738949,84.0003757 71.3738949,84.6113237 Z" id="Stroke-131" stroke="#FEFEFE" stroke-width="1.134" stroke-linejoin="round"></path>
                    <path d="M24.191003,84.2078694 C24.191003,84.8188173 24.6844677,85.3149329 25.2932556,85.3149329 C25.9020434,85.3149329 26.3955081,84.8188173 26.3955081,84.2078694 C26.3955081,83.5964243 25.9020434,83.1008058 25.2932556,83.1008058 C24.6844677,83.1008058 24.191003,83.5964243 24.191003,84.2078694" id="Fill-133" fill="#9EB5A6"></path>
                    <path d="M24.191003,84.2078694 C24.191003,84.8188173 24.6844677,85.3149329 25.2932556,85.3149329 C25.9020434,85.3149329 26.3955081,84.8188173 26.3955081,84.2078694 C26.3955081,83.5964243 25.9020434,83.1008058 25.2932556,83.1008058 C24.6844677,83.1008058 24.191003,83.5964243 24.191003,84.2078694 Z" id="Stroke-135" stroke="#FEFEFE" stroke-width="1.134" stroke-linejoin="round"></path>
                    <polygon id="Fill-137" fill="#FEFEFE" points="48.7391121 42.8205931 60.6787788 36.4183156 66.7978394 46.7726162"></polygon>
                    <polygon id="Stroke-139" stroke="#9EB5A6" stroke-width="1.134" stroke-linejoin="round" points="48.7391121 42.8205931 60.6787788 36.4183156 66.7978394 46.7726162"></polygon>
                    <path d="M47.7825727,42.8205931 C47.7825727,43.4320382 48.2760374,43.9276566 48.8848253,43.9276566 C49.4931182,43.9276566 49.9865828,43.4320382 49.9865828,42.8205931 C49.9865828,42.2096451 49.4931182,41.7135295 48.8848253,41.7135295 C48.2760374,41.7135295 47.7825727,42.2096451 47.7825727,42.8205931" id="Fill-141" fill="#9EB5A6"></path>
                    <path d="M47.7825727,42.8205931 C47.7825727,43.4320382 48.2760374,43.9276566 48.8848253,43.9276566 C49.4931182,43.9276566 49.9865828,43.4320382 49.9865828,42.8205931 C49.9865828,42.2096451 49.4931182,41.7135295 48.8848253,41.7135295 C48.2760374,41.7135295 47.7825727,42.2096451 47.7825727,42.8205931 Z" id="Stroke-143" stroke="#FEFEFE" stroke-width="1.134" stroke-linejoin="round"></path>
                    <path d="M59.5762788,36.4181168 C59.5762788,37.0290647 60.0697434,37.5251803 60.6790263,37.5251803 C61.2873192,37.5251803 61.7807838,37.0290647 61.7807838,36.4181168 C61.7807838,35.8066717 61.2873192,35.3110532 60.6790263,35.3110532 C60.0697434,35.3110532 59.5762788,35.8066717 59.5762788,36.4181168" id="Fill-145" fill="#9EB5A6"></path>
                    <path d="M59.5762788,36.4181168 C59.5762788,37.0290647 60.0697434,37.5251803 60.6790263,37.5251803 C61.2873192,37.5251803 61.7807838,37.0290647 61.7807838,36.4181168 C61.7807838,35.8066717 61.2873192,35.3110532 60.6790263,35.3110532 C60.0697434,35.3110532 59.5762788,35.8066717 59.5762788,36.4181168 Z" id="Stroke-147" stroke="#FEFEFE" stroke-width="1.134" stroke-linejoin="round"></path>
                    <path d="M65.6954879,46.7727156 C65.6954879,47.3836636 66.1889525,47.8797792 66.7982354,47.8797792 C67.4065283,47.8797792 67.8999929,47.3836636 67.8999929,46.7727156 C67.8999929,46.1617676 67.4065283,45.665652 66.7982354,45.665652 C66.1889525,45.665652 65.6954879,46.1617676 65.6954879,46.7727156" id="Fill-149" fill="#9EB5A6"></path>
                    <path d="M65.6954879,46.7727156 C65.6954879,47.3836636 66.1889525,47.8797792 66.7982354,47.8797792 C67.4065283,47.8797792 67.8999929,47.3836636 67.8999929,46.7727156 C67.8999929,46.1617676 67.4065283,45.665652 66.7982354,45.665652 C66.1889525,45.665652 65.6954879,46.1617676 65.6954879,46.7727156 Z" id="Stroke-151" stroke="#FEFEFE" stroke-width="1.134" stroke-linejoin="round"></path>
                    <path d="M35.5763263,50.1553988 C35.5763263,50.7663468 36.0697909,51.2624624 36.6785788,51.2624624 C37.2873667,51.2624624 37.7808313,50.7663468 37.7808313,50.1553988 C37.7808313,49.5444509 37.2873667,49.0483353 36.6785788,49.0483353 C36.0697909,49.0483353 35.5763263,49.5444509 35.5763263,50.1553988" id="Fill-153" fill="#9EB5A6"></path>
                    <path d="M35.5763263,50.1553988 C35.5763263,50.7663468 36.0697909,51.2624624 36.6785788,51.2624624 C37.2873667,51.2624624 37.7808313,50.7663468 37.7808313,50.1553988 C37.7808313,49.5444509 37.2873667,49.0483353 36.6785788,49.0483353 C36.0697909,49.0483353 35.5763263,49.5444509 35.5763263,50.1553988 Z" id="Stroke-155" stroke="#FEFEFE" stroke-width="1.134" stroke-linejoin="round"></path>
                    <path d="M24.191003,58.631022 C24.191003,59.2419699 24.6844677,59.7380855 25.2932556,59.7380855 C25.9020434,59.7380855 26.3955081,59.2419699 26.3955081,58.631022 C26.3955081,58.0195769 25.9020434,57.5234613 25.2932556,57.5234613 C24.6844677,57.5234613 24.191003,58.0195769 24.191003,58.631022" id="Fill-157" fill="#9EB5A6"></path>
                    <path d="M24.191003,58.631022 C24.191003,59.2419699 24.6844677,59.7380855 25.2932556,59.7380855 C25.9020434,59.7380855 26.3955081,59.2419699 26.3955081,58.631022 C26.3955081,58.0195769 25.9020434,57.5234613 25.2932556,57.5234613 C24.6844677,57.5234613 24.191003,58.0195769 24.191003,58.631022 Z" id="Stroke-159" stroke="#FEFEFE" stroke-width="1.134" stroke-linejoin="round"></path>
                </g>
            </g>
            <text id="ExpertExplorer" font-family="Aller-Bold, Aller" font-size="28" font-weight="bold" fill="#333333">
                <tspan x="96" y="82">Expert</tspan>
                <tspan x="180.084" y="82" font-family="Aller" font-weight="normal">Explorer</tspan>
            </text>
        </g>
    </g>
</svg>