<?xml version="1.0" encoding="utf-8"?>
<!-- Generator: Adobe Illustrator 24.1.2, SVG Export Plug-In . SVG Version: 6.00 Build 0)  -->
<svg version="1.1" id="Ebene_1" xmlns="http://www.w3.org/2000/svg" xmlns:xlink="http://www.w3.org/1999/xlink" x="0px" y="0px"
	 viewBox="0 0 347.6 90" style="enable-background:new 0 0 347.6 90;" xml:space="preserve">
<style type="text/css">
	.st0{fill-rule:evenodd;clip-rule:evenodd;fill:#FEFEFE;}
	.st1{fill:none;stroke:#9EB5A6;stroke-width:1.134;stroke-linejoin:round;}
	.st2{fill-rule:evenodd;clip-rule:evenodd;fill:#9EB5A6;}
	.st3{fill:none;stroke:#FEFEFE;stroke-width:1.134;stroke-linejoin:round;}
	.st4{fill-rule:evenodd;clip-rule:evenodd;fill:#DECC68;}
	.st5{fill:#333333;}
	.st6{font-family:'Aller-Bold';}
	.st7{font-size:28px;}
	.st8{font-family:'Aller';}
</style>
<desc>Created with Sketch.</desc>
<g id="Group-4">
	<polygon id="Fill-1" class="st0" points="74,2 55.8,27.6 26,31 	"/>
	<polygon id="Stroke-2" class="st1" points="74,2 55.8,27.6 26,31 	"/>
	<polygon id="Fill-3" class="st2" points="75,2 3,44 26.2,2.4 	"/>
	<polygon id="Stroke-4" class="st3" points="75,2 3,44 26.2,2.4 	"/>
	<polygon id="Fill-5" class="st2" points="52,15.3 25.4,31 25,3 	"/>
	<polygon id="Stroke-6" class="st3" points="52,15.3 25.4,31 25,3 	"/>
	<polygon id="Fill-7" class="st0" points="52.6,15 26,30 56,26.9 	"/>
	<polygon id="Stroke-8" class="st1" points="52.6,15 26,30 56,26.9 	"/>
	<polygon id="Fill-9" class="st2" points="3,43.7 27,86 26.5,30 	"/>
	<polygon id="Stroke-10" class="st3" points="27,86 3,43.7 26.5,30 	"/>
	<polygon id="Fill-12" class="st2" points="27,87 27,59.8 3,44 	"/>
	<polygon id="Stroke-13" class="st3" points="27,87 3,44 27,59.8 	"/>
	<polygon id="Fill-15" class="st2" points="26.5,84 44,60.7 26,30 	"/>
	<polygon id="Stroke-16" class="st3" points="26.5,84 44,60.7 26,30 	"/>
	<polygon id="Fill-17" class="st4" points="56,27 43.9,61 26,30.2 	"/>
	<polygon id="Stroke-18" class="st3" points="56,27 43.9,61 26,30.2 	"/>
	<polygon id="Fill-19" class="st0" points="56,27 32,41 26,30.3 	"/>
	<polygon id="Stroke-20" class="st1" points="56,27 32,41 26,30.3 	"/>
	<polygon id="Fill-21" class="st2" points="56,27 43.9,61 32,40.5 	"/>
	<polygon id="Stroke-22" class="st3" points="56,27 43.9,61 32,40.5 	"/>
	<polygon id="Fill-23" class="st4" points="50,44.1 43.8,62 32,41 	"/>
	<polygon id="Stroke-24" class="st3" points="50,44.1 43.8,62 32,41 	"/>
	<polygon id="Fill-25" class="st0" points="50,44 43.9,62 38,51.4 	"/>
	<polygon id="Stroke-26" class="st1" points="50,44 43.9,62 38,51.4 	"/>
	<polygon id="Fill-27" class="st2" points="27,61.1 44,63 38.2,52 	"/>
	<polygon id="Stroke-28" class="st3" points="27,61.1 44,63 38.2,52 	"/>
	<polygon id="Fill-29" class="st2" points="27,60 32.3,41 38,51.4 	"/>
	<polygon id="Stroke-30" class="st3" points="27,60 32.3,41 38,51.4 	"/>
	<polygon id="Fill-31" class="st2" points="50,44.3 37.9,52 32,41 	"/>
	<polygon id="Stroke-32" class="st3" points="50,44.3 37.9,52 32,41 	"/>
	<polygon id="Fill-33" class="st0" points="73.9,2 68,48 98,44.4 	"/>
	<polygon id="Stroke-34" class="st1" points="73.9,2 68,48 98,44.4 	"/>
	<polygon id="Fill-35" class="st0" points="74.5,2 70,36.4 99,44 	"/>
	<polygon id="Stroke-36" class="st1" points="74.5,2 70,36.4 99,44 	"/>
	<polygon id="Fill-37" class="st0" points="82,71 68,47.6 98,44 	"/>
	<polygon id="Stroke-38" class="st1" points="82,71 68,47.6 98,44 	"/>
	<polygon id="Fill-39" class="st0" points="82.1,71 74,57.5 98,44 	"/>
	<polygon id="Stroke-40" class="st1" points="82.1,71 74,57.5 98,44 	"/>
	<polygon id="Fill-41" class="st4" points="82,70.9 44,61 73.7,85 	"/>
	<polygon id="Stroke-42" class="st3" points="82,70.9 44,61 73.7,85 	"/>
	<polygon id="Fill-43" class="st0" points="83,71.7 61,66 74.6,86 	"/>
	<polygon id="Stroke-44" class="st1" points="83,71.7 61,66 74.6,86 	"/>
	<polygon id="Fill-45" class="st0" points="83,72 61,66.2 74.8,58 	"/>
	<polygon id="Stroke-46" class="st1" points="83,72 61,66.2 74.8,58 	"/>
	<polygon id="Fill-47" class="st2" points="68.9,48 61,66 75,58 	"/>
	<polygon id="Stroke-48" class="st3" points="68.9,48 61,66 75,58 	"/>
	<polygon id="Fill-49" class="st2" points="68,48 60.4,66 44,61.7 	"/>
	<polygon id="Stroke-50" class="st3" points="68,48 60.4,66 44,61.7 	"/>
	<polygon id="Fill-51" class="st2" points="44.2,61 27,84.5 74,85 	"/>
	<polygon id="Stroke-52" class="st3" points="44.2,61 27,84.5 74,85 	"/>
	<polygon id="Fill-53" class="st0" points="54.1,70 27,86.4 74,87 	"/>
	<polygon id="Stroke-54" class="st1" points="54.1,70 27,86.4 74,87 	"/>
	<polygon id="Fill-55" class="st0" points="54,69.7 61.1,66 74,86 	"/>
	<polygon id="Stroke-56" class="st1" points="54,69.7 61.1,66 74,86 	"/>
	<polygon id="Fill-57" class="st4" points="55.9,27 44,61 68,47.4 	"/>
	<polygon id="Stroke-58" class="st3" points="55.9,27 44,61 68,47.4 	"/>
	<polygon id="Fill-59" class="st0" points="50.1,44 44,62 68,48 	"/>
	<polygon id="Stroke-60" class="st1" points="50.1,44 44,62 68,48 	"/>
	<polygon id="Fill-61" class="st4" points="55.8,27 50,44 68,48 	"/>
	<polygon id="Stroke-62" class="st3" points="55.8,27 50,44 68,48 	"/>
	<polygon id="Fill-63" class="st2" points="55.8,27 50,44 62,37.5 	"/>
	<polygon id="Stroke-64" class="st3" points="55.8,27 50,44 62,37.5 	"/>
	<polygon id="Fill-65" class="st0" points="70,36 68.5,47 62,36.9 	"/>
	<polygon id="Fill-67" class="st0" points="73,2 55,26.7 61.1,37 	"/>
	<polygon id="Stroke-68" class="st1" points="73,2 55,26.7 61.1,37 	"/>
	<polygon id="Fill-69" class="st0" points="74,2 69.6,36.1 62,37 	"/>
	<polygon id="Stroke-70" class="st1" points="74,2 69.6,36.1 62,37 	"/>
	<polygon id="Fill-71" class="st2" points="62,65.3 44,61 53.9,69 	"/>
	<polygon id="Stroke-72" class="st3" points="62,65.3 44,61 53.9,69 	"/>
	<g id="Group-161">
		<path id="Fill-73" class="st2" d="M96.5,44.3c0,0.6,0.5,1.1,1.1,1.1c0.6,0,1.1-0.5,1.1-1.1c0-0.6-0.5-1.1-1.1-1.1
			C97,43.2,96.5,43.7,96.5,44.3"/>
		<path id="Stroke-75" class="st3" d="M96.5,44.3c0,0.6,0.5,1.1,1.1,1.1c0.6,0,1.1-0.5,1.1-1.1c0-0.6-0.5-1.1-1.1-1.1
			C97,43.2,96.5,43.7,96.5,44.3z"/>
		<path id="Fill-77" class="st2" d="M68.1,36.5c0,0.6,0.5,1.1,1.1,1.1s1.1-0.5,1.1-1.1c0-0.6-0.5-1.1-1.1-1.1S68.1,35.9,68.1,36.5"
			/>
		<path id="Stroke-79" class="st3" d="M68.1,36.5c0,0.6,0.5,1.1,1.1,1.1s1.1-0.5,1.1-1.1c0-0.6-0.5-1.1-1.1-1.1S68.1,35.9,68.1,36.5
			z"/>
		<path id="Fill-81" class="st2" d="M24.7,30.3c0,0.6,0.5,1.1,1.1,1.1s1.1-0.5,1.1-1.1c0-0.6-0.5-1.1-1.1-1.1S24.7,29.7,24.7,30.3"
			/>
		<path id="Stroke-83" class="st3" d="M24.7,30.3c0,0.6,0.5,1.1,1.1,1.1s1.1-0.5,1.1-1.1c0-0.6-0.5-1.1-1.1-1.1S24.7,29.7,24.7,30.3
			z"/>
		<path id="Fill-85" class="st2" d="M30.6,40.7c0,0.6,0.5,1.1,1.1,1.1s1.1-0.5,1.1-1.1c0-0.6-0.5-1.1-1.1-1.1S30.6,40.1,30.6,40.7"
			/>
		<path id="Stroke-87" class="st3" d="M30.6,40.7c0,0.6,0.5,1.1,1.1,1.1s1.1-0.5,1.1-1.1c0-0.6-0.5-1.1-1.1-1.1S30.6,40.1,30.6,40.7
			z"/>
		<path id="Fill-89" class="st2" d="M54.5,27.1c0,0.6,0.5,1.1,1.1,1.1s1.1-0.5,1.1-1.1c0-0.6-0.5-1.1-1.1-1.1S54.5,26.5,54.5,27.1"
			/>
		<path id="Stroke-91" class="st3" d="M54.5,27.1c0,0.6,0.5,1.1,1.1,1.1s1.1-0.5,1.1-1.1c0-0.6-0.5-1.1-1.1-1.1S54.5,26.5,54.5,27.1
			z"/>
		<path id="Fill-93" class="st2" d="M50.8,14.8c0,0.6,0.5,1.1,1.1,1.1c0.6,0,1.1-0.5,1.1-1.1c0-0.6-0.5-1.1-1.1-1.1
			C51.3,13.7,50.8,14.2,50.8,14.8"/>
		<path id="Stroke-95" class="st3" d="M50.8,14.8c0,0.6,0.5,1.1,1.1,1.1c0.6,0,1.1-0.5,1.1-1.1c0-0.6-0.5-1.1-1.1-1.1
			C51.3,13.7,50.8,14.2,50.8,14.8z"/>
		<path id="Fill-97" class="st2" d="M42.5,61.5c0,0.6,0.5,1.1,1.1,1.1s1.1-0.5,1.1-1.1c0-0.6-0.5-1.1-1.1-1.1S42.5,60.9,42.5,61.5"
			/>
		<path id="Stroke-99" class="st3" d="M42.5,61.5c0,0.6,0.5,1.1,1.1,1.1s1.1-0.5,1.1-1.1c0-0.6-0.5-1.1-1.1-1.1S42.5,60.9,42.5,61.5
			z"/>
		<path id="Fill-101" class="st2" d="M59.5,65.9c0,0.6,0.5,1.1,1.1,1.1s1.1-0.5,1.1-1.1c0-0.6-0.5-1.1-1.1-1.1S59.5,65.2,59.5,65.9"
			/>
		<path id="Stroke-103" class="st3" d="M59.5,65.9c0,0.6,0.5,1.1,1.1,1.1s1.1-0.5,1.1-1.1c0-0.6-0.5-1.1-1.1-1.1
			S59.5,65.2,59.5,65.9z"/>
		<path id="Fill-105" class="st2" d="M52.3,69.6c0,0.6,0.5,1.1,1.1,1.1c0.6,0,1.1-0.5,1.1-1.1c0-0.6-0.5-1.1-1.1-1.1
			C52.7,68.5,52.3,68.9,52.3,69.6"/>
		<path id="Stroke-107" class="st3" d="M52.3,69.6c0,0.6,0.5,1.1,1.1,1.1c0.6,0,1.1-0.5,1.1-1.1c0-0.6-0.5-1.1-1.1-1.1
			C52.7,68.5,52.3,68.9,52.3,69.6z"/>
		<path id="Fill-109" class="st2" d="M1.3,44.2c0,0.6,0.5,1.1,1.1,1.1s1.1-0.5,1.1-1.1C3.5,43.5,3,43,2.4,43S1.3,43.5,1.3,44.2"/>
		<path id="Stroke-111" class="st3" d="M1.3,44.2c0,0.6,0.5,1.1,1.1,1.1s1.1-0.5,1.1-1.1C3.5,43.5,3,43,2.4,43S1.3,43.5,1.3,44.2z"
			/>
		<path id="Fill-113" class="st2" d="M24.3,2.5c0,0.6,0.5,1.1,1.1,1.1c0.6,0,1.1-0.5,1.1-1.1S26,1.4,25.4,1.4
			C24.8,1.4,24.3,1.9,24.3,2.5"/>
		<path id="Stroke-115" class="st3" d="M24.3,2.5c0,0.6,0.5,1.1,1.1,1.1c0.6,0,1.1-0.5,1.1-1.1S26,1.4,25.4,1.4
			C24.8,1.4,24.3,1.9,24.3,2.5z"/>
		<path id="Fill-117" class="st2" d="M72.4,2.5c0,0.6,0.5,1.1,1.1,1.1c0.6,0,1.1-0.5,1.1-1.1s-0.5-1.1-1.1-1.1
			C72.9,1.4,72.4,1.9,72.4,2.5"/>
		<path id="Stroke-119" class="st3" d="M72.4,2.5c0,0.6,0.5,1.1,1.1,1.1c0.6,0,1.1-0.5,1.1-1.1s-0.5-1.1-1.1-1.1
			C72.9,1.4,72.4,1.9,72.4,2.5z"/>
		<path id="Fill-121" class="st2" d="M72.6,57.8c0,0.6,0.5,1.1,1.1,1.1c0.6,0,1.1-0.5,1.1-1.1c0-0.6-0.5-1.1-1.1-1.1
			C73.1,56.7,72.6,57.2,72.6,57.8"/>
		<path id="Stroke-123" class="st3" d="M72.6,57.8c0,0.6,0.5,1.1,1.1,1.1c0.6,0,1.1-0.5,1.1-1.1c0-0.6-0.5-1.1-1.1-1.1
			C73.1,56.7,72.6,57.2,72.6,57.8z"/>
		<path id="Fill-125" class="st2" d="M80.7,71.5c0,0.6,0.5,1.1,1.1,1.1c0.6,0,1.1-0.5,1.1-1.1c0-0.6-0.5-1.1-1.1-1.1
			C81.2,70.4,80.7,70.9,80.7,71.5"/>
		<path id="Stroke-127" class="st3" d="M80.7,71.5c0,0.6,0.5,1.1,1.1,1.1c0.6,0,1.1-0.5,1.1-1.1c0-0.6-0.5-1.1-1.1-1.1
			C81.2,70.4,80.7,70.9,80.7,71.5z"/>
		<path id="Fill-129" class="st2" d="M72.4,85.6c0,0.6,0.5,1.1,1.1,1.1c0.6,0,1.1-0.5,1.1-1.1c0-0.6-0.5-1.1-1.1-1.1
			C72.9,84.5,72.4,85,72.4,85.6"/>
		<path id="Stroke-131" class="st3" d="M72.4,85.6c0,0.6,0.5,1.1,1.1,1.1c0.6,0,1.1-0.5,1.1-1.1c0-0.6-0.5-1.1-1.1-1.1
			C72.9,84.5,72.4,85,72.4,85.6z"/>
		<path id="Fill-133" class="st2" d="M25.2,85.2c0,0.6,0.5,1.1,1.1,1.1c0.6,0,1.1-0.5,1.1-1.1c0-0.6-0.5-1.1-1.1-1.1
			C25.7,84.1,25.2,84.6,25.2,85.2"/>
		<path id="Stroke-135" class="st3" d="M25.2,85.2c0,0.6,0.5,1.1,1.1,1.1c0.6,0,1.1-0.5,1.1-1.1c0-0.6-0.5-1.1-1.1-1.1
			C25.7,84.1,25.2,84.6,25.2,85.2z"/>
		<polygon id="Fill-137" class="st0" points="49.7,43.8 61.7,37.4 67.8,47.8 		"/>
		<polygon id="Stroke-139" class="st1" points="49.7,43.8 61.7,37.4 67.8,47.8 		"/>
		<path id="Fill-141" class="st2" d="M48.8,43.8c0,0.6,0.5,1.1,1.1,1.1c0.6,0,1.1-0.5,1.1-1.1c0-0.6-0.5-1.1-1.1-1.1
			C49.3,42.7,48.8,43.2,48.8,43.8"/>
		<path id="Stroke-143" class="st3" d="M48.8,43.8c0,0.6,0.5,1.1,1.1,1.1c0.6,0,1.1-0.5,1.1-1.1c0-0.6-0.5-1.1-1.1-1.1
			C49.3,42.7,48.8,43.2,48.8,43.8z"/>
		<path id="Fill-145" class="st2" d="M60.6,37.4c0,0.6,0.5,1.1,1.1,1.1c0.6,0,1.1-0.5,1.1-1.1c0-0.6-0.5-1.1-1.1-1.1
			C61.1,36.3,60.6,36.8,60.6,37.4"/>
		<path id="Stroke-147" class="st3" d="M60.6,37.4c0,0.6,0.5,1.1,1.1,1.1c0.6,0,1.1-0.5,1.1-1.1c0-0.6-0.5-1.1-1.1-1.1
			C61.1,36.3,60.6,36.8,60.6,37.4z"/>
		<path id="Fill-149" class="st2" d="M66.7,47.8c0,0.6,0.5,1.1,1.1,1.1c0.6,0,1.1-0.5,1.1-1.1c0-0.6-0.5-1.1-1.1-1.1
			C67.2,46.7,66.7,47.2,66.7,47.8"/>
		<path id="Stroke-151" class="st3" d="M66.7,47.8c0,0.6,0.5,1.1,1.1,1.1c0.6,0,1.1-0.5,1.1-1.1c0-0.6-0.5-1.1-1.1-1.1
			C67.2,46.7,66.7,47.2,66.7,47.8z"/>
		<path id="Fill-153" class="st2" d="M36.6,51.2c0,0.6,0.5,1.1,1.1,1.1s1.1-0.5,1.1-1.1S38.3,50,37.7,50S36.6,50.5,36.6,51.2"/>
		<path id="Stroke-155" class="st3" d="M36.6,51.2c0,0.6,0.5,1.1,1.1,1.1s1.1-0.5,1.1-1.1S38.3,50,37.7,50S36.6,50.5,36.6,51.2z"/>
		<path id="Fill-157" class="st2" d="M25.2,59.6c0,0.6,0.5,1.1,1.1,1.1c0.6,0,1.1-0.5,1.1-1.1c0-0.6-0.5-1.1-1.1-1.1
			C25.7,58.5,25.2,59,25.2,59.6"/>
		<path id="Stroke-159" class="st3" d="M25.2,59.6c0,0.6,0.5,1.1,1.1,1.1c0.6,0,1.1-0.5,1.1-1.1c0-0.6-0.5-1.1-1.1-1.1
			C25.7,58.5,25.2,59,25.2,59.6z"/>
	</g>
</g>
<text transform="matrix(1 0 0 1 97 83)" class="st5 st6 st7">Operations</text>
<text transform="matrix(1 0 0 1 181.0829 83)" class="st5 st6 st7"> </text>
<text transform="matrix(1 0 0 1 241.084 83)" class="st5 st8 st7">Explorer</text>
</svg>
