<svg id="Flächen" xmlns="http://www.w3.org/2000/svg" viewBox="0 0 409.42 1396.43"><defs><style>.cls-1{fill:#dbca66;}.cls-1,.cls-10,.cls-11,.cls-12,.cls-13,.cls-14,.cls-15,.cls-16,.cls-17,.cls-18,.cls-19,.cls-2,.cls-20,.cls-21,.cls-22,.cls-23,.cls-24,.cls-25,.cls-26,.cls-27,.cls-28,.cls-29,.cls-3,.cls-30,.cls-31,.cls-4,.cls-5,.cls-6,.cls-7,.cls-8,.cls-9{stroke:#e5d991;stroke-linecap:round;stroke-linejoin:round;stroke-width:0.43px;}.cls-2{fill:#ddce70;}.cls-3{fill:#ddcd6d;}.cls-4{fill:#dfd075;}.cls-5{fill:#dece72;}.cls-6{fill:#d9c75c;}.cls-7{fill:#dac961;}.cls-8{fill:#d8c65a;}.cls-9{fill:#d9c75e;}.cls-10{fill:#dbca64;}.cls-11{fill:#dccc6b;}.cls-12{fill:#d8c658;}.cls-13{fill:#dfd077;}.cls-14{fill:#e0d17a;}.cls-15{fill:#dccb69;}.cls-16{fill:#d9c85f;}.cls-17{fill:#d7c455;}.cls-18{fill:#dbcb68;}.cls-19{fill:#dac963;}.cls-20{fill:#ddcd6f;}.cls-21{fill:#d7c557;}.cls-22{fill:#decf74;}.cls-23{fill:#e3d586;}.cls-24{fill:#e2d585;}.cls-25{fill:#e1d481;}.cls-26{fill:#e4d88d;}.cls-27{fill:#dfd179;}.cls-28{fill:#e3d688;}.cls-29{fill:#e1d380;}.cls-30{fill:#e1d37e;}.cls-31{fill:#e0d27c;}</style></defs><title>smc-Landschaft</title><polygon class="cls-1" points="207.21 2.21 254.54 0.21 174.21 0.21 207.21 2.21"/><polygon class="cls-2" points="207.21 2.21 272.21 5.21 277.21 0.21 254.54 0.21 207.21 2.21"/><polygon class="cls-3" points="347.21 17.21 399.06 0.21 282.04 0.21 347.21 17.21"/><polygon class="cls-4" points="272.21 5.21 304.21 22.21 279.34 0.21 277.21 0.21 272.21 5.21"/><polygon class="cls-5" points="304.21 22.21 347.21 17.21 282.04 0.21 279.34 0.21 304.21 22.21"/><polygon class="cls-3" points="249.21 28.21 272.21 5.21 207.21 2.21 249.21 28.21"/><polygon class="cls-4" points="249.21 28.21 304.21 22.21 272.21 5.21 249.21 28.21"/><polygon class="cls-6" points="0.21 14.94 14.21 0.21 0.21 0.21 0.21 14.94"/><polygon class="cls-7" points="347.21 17.21 393.21 44.21 409.16 0.21 399.06 0.21 347.21 17.21"/><polyline class="cls-8" points="409.16 0.21 393.21 44.21 409.16 32.99"/><polygon class="cls-9" points="60.21 51.21 48.21 0.21 14.21 0.21 60.21 51.21"/><polygon class="cls-7" points="60.21 51.21 78.21 0.21 48.21 0.21 60.21 51.21"/><polygon class="cls-1" points="139.21 53.21 207.21 2.21 174.21 0.21 141.13 0.21 139.21 53.21"/><polygon class="cls-7" points="100.21 60.21 78.21 0.21 60.21 51.21 100.21 60.21"/><polygon class="cls-10" points="100.21 60.21 139.88 0.21 78.21 0.21 100.21 60.21"/><polygon class="cls-10" points="100.21 60.21 139.21 53.21 141.13 0.21 139.88 0.21 100.21 60.21"/><polygon class="cls-3" points="200.21 61.21 249.21 28.21 207.21 2.21 200.21 61.21"/><polygon class="cls-11" points="200.21 61.21 207.21 2.21 139.21 53.21 200.21 61.21"/><polygon class="cls-4" points="256.21 63.21 304.21 22.21 249.21 28.21 256.21 63.21"/><polygon class="cls-4" points="200.21 61.21 256.21 63.21 249.21 28.21 200.21 61.21"/><polygon class="cls-12" points="0.21 58.36 17.21 71.21 14.21 0.21 0.21 14.94 0.21 58.36"/><polygon class="cls-6" points="60.21 51.21 14.21 0.21 17.21 71.21 60.21 51.21"/><polygon class="cls-2" points="337.21 74.21 347.21 17.21 304.21 22.21 337.21 74.21"/><polygon class="cls-1" points="337.21 74.21 393.21 44.21 347.21 17.21 337.21 74.21"/><polygon class="cls-10" points="136.21 79.21 139.21 53.21 100.21 60.21 136.21 79.21"/><polygon class="cls-11" points="136.21 79.21 200.21 61.21 139.21 53.21 136.21 79.21"/><polygon class="cls-6" points="393.21 44.21 409.16 61.46 409.16 32.99 393.21 44.21"/><polygon class="cls-10" points="375.21 85.21 393.21 44.21 337.21 74.21 375.21 85.21"/><polygon class="cls-6" points="375.21 85.21 409.16 84.59 409.16 61.46 393.21 44.21 375.21 85.21"/><polygon class="cls-7" points="82.21 89.21 136.21 79.21 100.21 60.21 82.21 89.21"/><polygon class="cls-9" points="82.21 89.21 100.21 60.21 60.21 51.21 82.21 89.21"/><polygon class="cls-12" points="17.21 71.21 82.21 89.21 60.21 51.21 17.21 71.21"/><polygon class="cls-12" points="0.21 58.36 0.21 77.28 17.21 71.21 0.21 58.36"/><polygon class="cls-13" points="300.21 103.21 304.21 22.21 256.21 63.21 300.21 103.21"/><polygon class="cls-5" points="300.21 103.21 337.21 74.21 304.21 22.21 300.21 103.21"/><polygon class="cls-12" points="22.21 110.21 82.21 89.21 17.21 71.21 22.21 110.21"/><polygon class="cls-12" points="17.21 71.21 0.21 77.28 0.21 103.36 22.21 110.21 17.21 71.21"/><polygon class="cls-10" points="118.21 113.21 136.21 79.21 82.21 89.21 118.21 113.21"/><polygon class="cls-1" points="358.21 114.21 375.21 85.21 337.21 74.21 358.21 114.21"/><polygon class="cls-11" points="300.21 103.21 358.21 114.21 337.21 74.21 300.21 103.21"/><polygon class="cls-8" points="375.21 85.21 409.16 114.32 409.16 84.59 375.21 85.21"/><polygon class="cls-7" points="358.21 114.21 409.16 115.19 409.16 114.32 375.21 85.21 358.21 114.21"/><polygon class="cls-14" points="215.21 118.21 256.21 63.21 200.21 61.21 215.21 118.21"/><polygon class="cls-5" points="186.21 123.21 200.21 61.21 136.21 79.21 186.21 123.21"/><polygon class="cls-14" points="186.21 123.21 215.21 118.21 200.21 61.21 186.21 123.21"/><polygon class="cls-13" points="247.21 124.21 300.21 103.21 256.21 63.21 247.21 124.21"/><polygon class="cls-14" points="247.21 124.21 256.21 63.21 215.21 118.21 247.21 124.21"/><polygon class="cls-15" points="118.21 113.21 144.21 128.21 136.21 79.21 118.21 113.21"/><polygon class="cls-2" points="144.21 128.21 186.21 123.21 136.21 79.21 144.21 128.21"/><polygon class="cls-16" points="0.21 103.36 0.21 119.3 22.21 110.21 0.21 103.36"/><polygon class="cls-15" points="348.21 132.21 358.21 114.21 300.21 103.21 348.21 132.21"/><polygon class="cls-7" points="394.21 135.21 409.16 116.52 409.16 115.19 358.21 114.21 394.21 135.21"/><polygon class="cls-10" points="348.21 132.21 394.21 135.21 358.21 114.21 348.21 132.21"/><polygon class="cls-17" points="61.21 140.21 82.21 89.21 22.21 110.21 61.21 140.21"/><polygon class="cls-7" points="95.21 147.21 118.21 113.21 82.21 89.21 95.21 147.21"/><polygon class="cls-6" points="61.21 140.21 95.21 147.21 82.21 89.21 61.21 140.21"/><polygon class="cls-1" points="95.21 147.21 144.21 128.21 118.21 113.21 95.21 147.21"/><polygon class="cls-5" points="172.21 147.21 186.21 123.21 144.21 128.21 172.21 147.21"/><polygon class="cls-5" points="288.21 149.21 300.21 103.21 247.21 124.21 288.21 149.21"/><polygon class="cls-15" points="331.21 153.21 348.21 132.21 300.21 103.21 331.21 153.21"/><polygon class="cls-3" points="288.21 149.21 331.21 153.21 300.21 103.21 288.21 149.21"/><polygon class="cls-7" points="409.16 144.68 409.16 116.52 394.21 135.21 409.16 144.68"/><polygon class="cls-13" points="220.21 154.21 247.21 124.21 215.21 118.21 220.21 154.21"/><polygon class="cls-14" points="186.21 123.21 220.21 154.21 215.21 118.21 186.21 123.21"/><polygon class="cls-4" points="172.21 147.21 220.21 154.21 186.21 123.21 172.21 147.21"/><polygon class="cls-5" points="270.21 155.21 288.21 149.21 247.21 124.21 270.21 155.21"/><polygon class="cls-6" points="22.21 110.21 0.21 119.3 0.21 142.93 25.21 157.21 22.21 110.21"/><polygon class="cls-6" points="25.21 157.21 61.21 140.21 22.21 110.21 25.21 157.21"/><polygon class="cls-15" points="306.21 163.21 331.21 153.21 288.21 149.21 306.21 163.21"/><polygon class="cls-1" points="331.21 153.21 351.21 166.21 348.21 132.21 331.21 153.21"/><polygon class="cls-4" points="241.21 166.21 247.21 124.21 220.21 154.21 241.21 166.21"/><polygon class="cls-5" points="241.21 166.21 270.21 155.21 247.21 124.21 241.21 166.21"/><polygon class="cls-18" points="378.21 172.21 394.21 135.21 348.21 132.21 378.21 172.21"/><polygon class="cls-18" points="351.21 166.21 378.21 172.21 348.21 132.21 351.21 166.21"/><polygon class="cls-19" points="378.21 172.21 409.16 160.1 409.16 144.68 394.21 135.21 378.21 172.21"/><polygon class="cls-9" points="0.21 142.93 0.21 167.74 25.21 157.21 0.21 142.93"/><polygon class="cls-16" points="48.21 176.21 95.21 147.21 61.21 140.21 48.21 176.21"/><polygon class="cls-16" points="48.21 176.21 61.21 140.21 25.21 157.21 48.21 176.21"/><polygon class="cls-10" points="378.21 172.21 409.16 176.08 409.16 160.1 378.21 172.21"/><polygon class="cls-2" points="177.21 184.21 220.21 154.21 172.21 147.21 177.21 184.21"/><polygon class="cls-20" points="153.21 187.21 172.21 147.21 144.21 128.21 153.21 187.21"/><polygon class="cls-3" points="153.21 187.21 177.21 184.21 172.21 147.21 153.21 187.21"/><polygon class="cls-20" points="222.21 191.21 241.21 166.21 220.21 154.21 222.21 191.21"/><polygon class="cls-3" points="177.21 184.21 222.21 191.21 220.21 154.21 177.21 184.21"/><polygon class="cls-7" points="25.21 157.21 0.21 167.74 0.21 184.98 8.21 192.21 25.21 157.21"/><polygon class="cls-19" points="8.21 192.21 48.21 176.21 25.21 157.21 8.21 192.21"/><polygon class="cls-15" points="117.21 192.21 144.21 128.21 95.21 147.21 117.21 192.21"/><polygon class="cls-11" points="117.21 192.21 153.21 187.21 144.21 128.21 117.21 192.21"/><polygon class="cls-1" points="325.21 192.21 331.21 153.21 306.21 163.21 325.21 192.21"/><polygon class="cls-10" points="325.21 192.21 351.21 166.21 331.21 153.21 325.21 192.21"/><polygon class="cls-18" points="290.21 192.21 325.21 192.21 306.21 163.21 290.21 192.21"/><polygon class="cls-11" points="270.21 155.21 290.21 192.21 288.21 149.21 270.21 155.21"/><polygon class="cls-18" points="290.21 192.21 306.21 163.21 288.21 149.21 290.21 192.21"/><polygon class="cls-7" points="67.21 193.21 95.21 147.21 48.21 176.21 67.21 193.21"/><polygon class="cls-18" points="67.21 193.21 117.21 192.21 95.21 147.21 67.21 193.21"/><polygon class="cls-10" points="334.21 195.21 351.21 166.21 325.21 192.21 334.21 195.21"/><polygon class="cls-10" points="0.21 184.98 0.21 193.49 8.21 192.21 0.21 184.98"/><polygon class="cls-1" points="384.21 198.21 409.16 182.8 409.16 176.08 378.21 172.21 384.21 198.21"/><polygon class="cls-11" points="270.21 203.21 270.21 155.21 241.21 166.21 270.21 203.21"/><polygon class="cls-1" points="270.21 203.21 290.21 192.21 270.21 155.21 270.21 203.21"/><polygon class="cls-18" points="222.21 191.21 270.21 203.21 241.21 166.21 222.21 191.21"/><polygon class="cls-1" points="403.21 204.21 409.16 193.49 409.16 182.8 384.21 198.21 403.21 204.21"/><polygon class="cls-10" points="334.21 195.21 358.21 211.21 351.21 166.21 334.21 195.21"/><polygon class="cls-1" points="358.21 211.21 378.21 172.21 351.21 166.21 358.21 211.21"/><polygon class="cls-1" points="358.21 211.21 384.21 198.21 378.21 172.21 358.21 211.21"/><polygon class="cls-10" points="329.21 213.21 358.21 211.21 334.21 195.21 329.21 213.21"/><polygon class="cls-18" points="329.21 213.21 334.21 195.21 325.21 192.21 329.21 213.21"/><polygon class="cls-10" points="290.21 192.21 329.21 213.21 325.21 192.21 290.21 192.21"/><polygon class="cls-18" points="46.21 217.21 48.21 176.21 8.21 192.21 46.21 217.21"/><polygon class="cls-18" points="46.21 217.21 67.21 193.21 48.21 176.21 46.21 217.21"/><polygon class="cls-7" points="252.21 219.21 270.21 203.21 222.21 191.21 252.21 219.21"/><polygon class="cls-1" points="409.16 207.59 409.16 193.49 403.21 204.21 409.16 207.59"/><polygon class="cls-18" points="379.21 230.21 403.21 204.21 384.21 198.21 379.21 230.21"/><polygon class="cls-18" points="379.21 230.21 384.21 198.21 358.21 211.21 379.21 230.21"/><polygon class="cls-15" points="78.21 230.21 117.21 192.21 67.21 193.21 78.21 230.21"/><polygon class="cls-3" points="46.21 217.21 78.21 230.21 67.21 193.21 46.21 217.21"/><polygon class="cls-11" points="8.21 192.21 0.21 220.55 0.21 230.35 46.21 217.21 8.21 192.21"/><polygon class="cls-1" points="0.21 193.49 0.21 220.55 8.21 192.21 0.21 193.49"/><polygon class="cls-15" points="149.21 235.21 153.21 187.21 117.21 192.21 149.21 235.21"/><polygon class="cls-1" points="149.21 235.21 177.21 184.21 153.21 187.21 149.21 235.21"/><polygon class="cls-11" points="115.21 241.21 117.21 192.21 78.21 230.21 115.21 241.21"/><polygon class="cls-18" points="115.21 241.21 149.21 235.21 117.21 192.21 115.21 241.21"/><polygon class="cls-16" points="252.21 219.21 274.21 241.21 270.21 203.21 252.21 219.21"/><polygon class="cls-7" points="175.21 245.21 252.21 219.21 222.21 191.21 175.21 245.21"/><polygon class="cls-18" points="175.21 245.21 222.21 191.21 177.21 184.21 175.21 245.21"/><polygon class="cls-10" points="175.21 245.21 177.21 184.21 149.21 235.21 175.21 245.21"/><polygon class="cls-19" points="293.21 245.21 329.21 213.21 290.21 192.21 293.21 245.21"/><polygon class="cls-7" points="270.21 203.21 293.21 245.21 290.21 192.21 270.21 203.21"/><polygon class="cls-16" points="274.21 241.21 293.21 245.21 270.21 203.21 274.21 241.21"/><polygon class="cls-1" points="404.21 246.21 409.16 241.94 409.16 207.59 403.21 204.21 404.21 246.21"/><polygon class="cls-15" points="379.21 230.21 404.21 246.21 403.21 204.21 379.21 230.21"/><polygon class="cls-10" points="293.21 245.21 340.21 249.21 329.21 213.21 293.21 245.21"/><polygon class="cls-10" points="340.21 249.21 358.21 211.21 329.21 213.21 340.21 249.21"/><polygon class="cls-18" points="340.21 249.21 379.21 230.21 358.21 211.21 340.21 249.21"/><polygon class="cls-3" points="46.21 217.21 0.21 230.35 0.21 233.59 21.21 250.21 46.21 217.21"/><polygon class="cls-18" points="409.16 247.91 409.16 241.94 404.21 246.21 409.16 247.91"/><polygon class="cls-1" points="119.21 266.21 149.21 235.21 115.21 241.21 119.21 266.21"/><polygon class="cls-5" points="63.21 267.21 78.21 230.21 46.21 217.21 63.21 267.21"/><polygon class="cls-5" points="21.21 250.21 63.21 267.21 46.21 217.21 21.21 250.21"/><polygon class="cls-6" points="236.21 267.21 274.21 241.21 252.21 219.21 236.21 267.21"/><polygon class="cls-6" points="236.21 267.21 252.21 219.21 175.21 245.21 236.21 267.21"/><polygon class="cls-15" points="390.21 269.21 409.16 264.96 409.16 247.91 404.21 246.21 390.21 269.21"/><polygon class="cls-15" points="390.21 269.21 404.21 246.21 379.21 230.21 390.21 269.21"/><polygon class="cls-7" points="274.21 241.21 306.21 270.21 293.21 245.21 274.21 241.21"/><polygon class="cls-10" points="306.21 270.21 340.21 249.21 293.21 245.21 306.21 270.21"/><polygon class="cls-3" points="21.21 250.21 0.21 233.59 0.21 244.57 6.21 271.21 21.21 250.21"/><polygon class="cls-18" points="0.21 244.57 0.21 262.82 6.21 271.21 0.21 244.57"/><polygon class="cls-3" points="95.21 272.21 119.21 266.21 115.21 241.21 95.21 272.21"/><polygon class="cls-20" points="95.21 272.21 115.21 241.21 78.21 230.21 95.21 272.21"/><polygon class="cls-5" points="63.21 267.21 95.21 272.21 78.21 230.21 63.21 267.21"/><polygon class="cls-8" points="197.21 274.21 236.21 267.21 175.21 245.21 197.21 274.21"/><polygon class="cls-15" points="361.21 275.21 379.21 230.21 340.21 249.21 361.21 275.21"/><polygon class="cls-18" points="361.21 275.21 390.21 269.21 379.21 230.21 361.21 275.21"/><polygon class="cls-15" points="0.21 262.82 0.21 272.67 6.21 271.21 0.21 262.82"/><polygon class="cls-16" points="152.21 282.21 197.21 274.21 175.21 245.21 152.21 282.21"/><polygon class="cls-7" points="152.21 282.21 175.21 245.21 149.21 235.21 152.21 282.21"/><polygon class="cls-10" points="119.21 266.21 152.21 282.21 149.21 235.21 119.21 266.21"/><polygon class="cls-3" points="390.21 269.21 409.16 276.56 409.16 264.96 390.21 269.21"/><polygon class="cls-15" points="0.21 272.67 0.21 278.33 6.21 271.21 0.21 272.67"/><polygon class="cls-18" points="335.21 292.21 340.21 249.21 306.21 270.21 335.21 292.21"/><polygon class="cls-15" points="335.21 292.21 361.21 275.21 340.21 249.21 335.21 292.21"/><polygon class="cls-5" points="54.21 296.21 63.21 267.21 21.21 250.21 54.21 296.21"/><polygon class="cls-5" points="6.21 271.21 54.21 296.21 21.21 250.21 6.21 271.21"/><polygon class="cls-6" points="248.21 297.21 274.21 241.21 236.21 267.21 248.21 297.21"/><polygon class="cls-7" points="248.21 297.21 306.21 270.21 274.21 241.21 248.21 297.21"/><polygon class="cls-15" points="95.21 272.21 120.21 302.21 119.21 266.21 95.21 272.21"/><polygon class="cls-10" points="120.21 302.21 152.21 282.21 119.21 266.21 120.21 302.21"/><polygon class="cls-3" points="6.21 271.21 0.21 278.33 0.21 298.45 7.21 304.21 6.21 271.21"/><polygon class="cls-2" points="7.21 304.21 54.21 296.21 6.21 271.21 7.21 304.21"/><polygon class="cls-15" points="93.21 304.21 120.21 302.21 95.21 272.21 93.21 304.21"/><polygon class="cls-2" points="93.21 304.21 95.21 272.21 63.21 267.21 93.21 304.21"/><polygon class="cls-5" points="54.21 296.21 93.21 304.21 63.21 267.21 54.21 296.21"/><polygon class="cls-11" points="0.21 298.45 0.21 304.66 7.21 304.21 0.21 298.45"/><polygon class="cls-6" points="176.21 309.21 197.21 274.21 152.21 282.21 176.21 309.21"/><polygon class="cls-12" points="176.21 309.21 222.21 312.21 197.21 274.21 176.21 309.21"/><polygon class="cls-12" points="222.21 312.21 236.21 267.21 197.21 274.21 222.21 312.21"/><polygon class="cls-17" points="222.21 312.21 248.21 297.21 236.21 267.21 222.21 312.21"/><polygon class="cls-3" points="361.21 275.21 405.21 312.21 390.21 269.21 361.21 275.21"/><polygon class="cls-5" points="405.21 312.21 409.16 309.42 409.16 276.56 390.21 269.21 405.21 312.21"/><polygon class="cls-17" points="247.21 324.21 248.21 297.21 222.21 312.21 247.21 324.21"/><polygon class="cls-1" points="287.21 326.21 335.21 292.21 306.21 270.21 287.21 326.21"/><polygon class="cls-16" points="287.21 326.21 306.21 270.21 248.21 297.21 287.21 326.21"/><polygon class="cls-12" points="247.21 324.21 287.21 326.21 248.21 297.21 247.21 324.21"/><polygon class="cls-4" points="409.16 313.73 409.16 309.42 405.21 312.21 409.16 313.73"/><polygon class="cls-3" points="7.21 304.21 0.21 304.66 0.21 317.95 21.21 328.21 7.21 304.21"/><polygon class="cls-2" points="21.21 328.21 54.21 296.21 7.21 304.21 21.21 328.21"/><polygon class="cls-10" points="93.21 304.21 135.21 329.21 120.21 302.21 93.21 304.21"/><polygon class="cls-7" points="135.21 329.21 152.21 282.21 120.21 302.21 135.21 329.21"/><polygon class="cls-8" points="135.21 329.21 176.21 309.21 152.21 282.21 135.21 329.21"/><polygon class="cls-3" points="368.21 329.21 405.21 312.21 361.21 275.21 368.21 329.21"/><polygon class="cls-11" points="335.21 292.21 368.21 329.21 361.21 275.21 335.21 292.21"/><polygon class="cls-11" points="335.21 325.21 368.21 329.21 335.21 292.21 335.21 325.21"/><polygon class="cls-21" points="200.21 333.21 247.21 324.21 222.21 312.21 200.21 333.21"/><polygon class="cls-17" points="200.21 333.21 222.21 312.21 176.21 309.21 200.21 333.21"/><polygon class="cls-13" points="405.21 312.21 409.16 316.17 409.16 313.73 405.21 312.21"/><polygon class="cls-5" points="368.21 329.21 409.16 333.31 409.16 316.17 405.21 312.21 368.21 329.21"/><polygon class="cls-18" points="81.21 336.21 135.21 329.21 93.21 304.21 81.21 336.21"/><polygon class="cls-2" points="81.21 336.21 93.21 304.21 54.21 296.21 81.21 336.21"/><polygon class="cls-15" points="0.21 317.95 0.21 331.06 21.21 328.21 0.21 317.95"/><polygon class="cls-18" points="335.21 325.21 335.21 292.21 311.21 337.21 335.21 325.21"/><polygon class="cls-10" points="311.21 337.21 335.21 292.21 287.21 326.21 311.21 337.21"/><polygon class="cls-2" points="45.21 338.21 54.21 296.21 21.21 328.21 45.21 338.21"/><polygon class="cls-2" points="45.21 338.21 81.21 336.21 54.21 296.21 45.21 338.21"/><polygon class="cls-17" points="261.21 350.21 287.21 326.21 247.21 324.21 261.21 350.21"/><polygon class="cls-8" points="261.21 350.21 311.21 337.21 287.21 326.21 261.21 350.21"/><polygon class="cls-2" points="63.21 356.21 81.21 336.21 45.21 338.21 63.21 356.21"/><polygon class="cls-15" points="0.21 331.06 0.21 345.01 21.21 328.21 0.21 331.06"/><polygon class="cls-19" points="125.21 363.21 135.21 329.21 81.21 336.21 125.21 363.21"/><polygon class="cls-9" points="125.21 363.21 181.21 364.21 135.21 329.21 125.21 363.21"/><polygon class="cls-12" points="135.21 329.21 181.21 364.21 176.21 309.21 135.21 329.21"/><polygon class="cls-12" points="181.21 364.21 200.21 333.21 176.21 309.21 181.21 364.21"/><polygon class="cls-5" points="354.21 365.21 409.16 342.93 409.16 333.31 368.21 329.21 354.21 365.21"/><polygon class="cls-11" points="354.21 365.21 368.21 329.21 335.21 325.21 354.21 365.21"/><polygon class="cls-18" points="311.21 337.21 354.21 365.21 335.21 325.21 311.21 337.21"/><polygon class="cls-12" points="181.21 364.21 217.21 376.21 200.21 333.21 181.21 364.21"/><polygon class="cls-17" points="217.21 376.21 247.21 324.21 200.21 333.21 217.21 376.21"/><polygon class="cls-12" points="217.21 376.21 261.21 350.21 247.21 324.21 217.21 376.21"/><polygon class="cls-3" points="63.21 356.21 94.21 379.21 81.21 336.21 63.21 356.21"/><polygon class="cls-1" points="94.21 379.21 125.21 363.21 81.21 336.21 94.21 379.21"/><polygon class="cls-2" points="18.21 382.21 63.21 356.21 45.21 338.21 18.21 382.21"/><polygon class="cls-2" points="18.21 382.21 45.21 338.21 21.21 328.21 18.21 382.21"/><polygon class="cls-3" points="21.21 328.21 0.21 345.01 0.21 371.51 18.21 382.21 21.21 328.21"/><polygon class="cls-6" points="150.21 385.21 181.21 364.21 125.21 363.21 150.21 385.21"/><polygon class="cls-7" points="94.21 379.21 150.21 385.21 125.21 363.21 94.21 379.21"/><polygon class="cls-12" points="258.21 402.21 261.21 350.21 217.21 376.21 258.21 402.21"/><polygon class="cls-10" points="294.87 407.38 354.21 365.21 311.21 337.21 294.87 407.38"/><polygon class="cls-8" points="294.87 407.38 311.21 337.21 261.21 350.21 294.87 407.38"/><polygon class="cls-11" points="0.21 371.51 0.21 385.66 18.21 382.21 0.21 371.51"/><polygon class="cls-4" points="379.21 401.21 409.16 360.87 409.16 342.93 354.21 365.21 379.21 401.21"/><polygon class="cls-14" points="409.16 397.08 409.16 360.87 379.21 401.21 409.16 397.08"/><polygon class="cls-17" points="258.21 402.21 279.69 423.63 261.21 350.21 258.21 402.21"/><polygon class="cls-6" points="279.69 423.63 294.87 407.38 261.21 350.21 279.69 423.63"/><polygon class="cls-12" points="224.89 415.32 258.21 402.21 217.21 376.21 224.89 415.32"/><polygon class="cls-12" points="181.21 364.21 224.89 415.32 217.21 376.21 181.21 364.21"/><polygon class="cls-6" points="150.21 385.21 224.89 415.32 181.21 364.21 150.21 385.21"/><polygon class="cls-3" points="52.21 419.21 94.21 379.21 63.21 356.21 52.21 419.21"/><polygon class="cls-3" points="52.21 419.21 63.21 356.21 18.21 382.21 52.21 419.21"/><polygon class="cls-6" points="186.54 439.55 224.89 415.32 150.21 385.21 186.54 439.55"/><polygon class="cls-7" points="94.21 379.21 186.54 439.55 150.21 385.21 94.21 379.21"/><polygon class="cls-13" points="379.21 401.21 409.16 418.42 409.16 397.08 379.21 401.21"/><polygon class="cls-7" points="286.87 470.55 294.87 407.38 279.69 423.63 286.87 470.55"/><polygon class="cls-15" points="286.87 470.55 319.54 417.88 294.87 407.38 286.87 470.55"/><polygon class="cls-15" points="319.54 417.88 354.21 365.21 294.87 407.38 319.54 417.88"/><polygon class="cls-5" points="319.54 417.88 379.21 401.21 354.21 365.21 319.54 417.88"/><polygon class="cls-15" points="0.21 385.66 0.21 423.93 18.21 382.21 0.21 385.66"/><polygon class="cls-18" points="18.21 382.21 0.21 423.93 0.21 432.21 52.21 419.21 18.21 382.21"/><polygon class="cls-10" points="238.21 474.46 286.87 470.55 279.69 423.63 238.21 474.46"/><polygon class="cls-5" points="257.31 485.09 286.87 470.55 238.21 474.46 257.31 485.09"/><polygon class="cls-5" points="265.8 499.81 286.87 470.55 257.31 485.09 265.8 499.81"/><polygon class="cls-2" points="271.77 510.83 286.87 470.55 265.8 499.81 271.77 510.83"/><polygon class="cls-5" points="242.67 498.7 257.31 485.09 238.21 474.46 242.67 498.7"/><polygon class="cls-6" points="238.21 474.46 279.69 423.63 258.21 402.21 238.21 474.46"/><polygon class="cls-12" points="238.21 474.46 258.21 402.21 224.89 415.32 238.21 474.46"/><polygon class="cls-15" points="52.21 419.21 122.21 444.21 94.21 379.21 52.21 419.21"/><polygon class="cls-7" points="122.21 444.21 186.54 439.55 94.21 379.21 122.21 444.21"/><polygon class="cls-13" points="379.21 401.21 409.16 434.16 409.16 418.42 379.21 401.21"/><polygon class="cls-5" points="364.21 450.21 379.21 401.21 319.54 417.88 364.21 450.21"/><polygon class="cls-4" points="364.21 450.21 409.16 446.13 409.16 434.16 379.21 401.21 364.21 450.21"/><polygon class="cls-20" points="307.46 470.46 319.54 417.88 286.87 470.55 307.46 470.46"/><polygon class="cls-5" points="307.46 470.46 364.21 450.21 319.54 417.88 307.46 470.46"/><polygon class="cls-12" points="196.54 463.55 224.89 415.32 186.54 439.55 196.54 463.55"/><polygon class="cls-6" points="196.54 463.55 238.21 474.46 224.89 415.32 196.54 463.55"/><polygon class="cls-9" points="172.21 477.88 186.54 439.55 122.21 444.21 172.21 477.88"/><polygon class="cls-12" points="172.21 477.88 196.54 463.55 186.54 439.55 172.21 477.88"/><polygon class="cls-1" points="77.21 464.21 122.21 444.21 52.21 419.21 77.21 464.21"/><polygon class="cls-10" points="52.21 419.21 0.21 432.21 0.21 437.34 28.21 466.21 52.21 419.21"/><polygon class="cls-10" points="28.21 466.21 77.21 464.21 52.21 419.21 28.21 466.21"/><polygon class="cls-10" points="230.56 499.15 238.21 474.46 196.54 463.55 230.56 499.15"/><polygon class="cls-20" points="230.56 499.15 242.67 498.7 238.21 474.46 230.56 499.15"/><polygon class="cls-10" points="172.21 477.88 230.56 499.15 196.54 463.55 172.21 477.88"/><polygon class="cls-3" points="271.77 510.83 307.46 470.46 286.87 470.55 271.77 510.83"/><polygon class="cls-4" points="389.21 476.21 409.16 455.59 409.16 446.13 364.21 450.21 389.21 476.21"/><polygon class="cls-4" points="409.16 472.22 409.16 455.59 389.21 476.21 409.16 472.22"/><polygon class="cls-3" points="271.77 510.83 308.71 494.71 307.46 470.46 271.77 510.83"/><polygon class="cls-2" points="308.71 494.71 364.21 450.21 307.46 470.46 308.71 494.71"/><polygon class="cls-10" points="194.77 506.52 230.56 499.15 172.21 477.88 194.77 506.52"/><polygon class="cls-5" points="374.21 495.21 389.21 476.21 364.21 450.21 374.21 495.21"/><polygon class="cls-17" points="163.21 515.21 194.77 506.52 172.21 477.88 163.21 515.21"/><polygon class="cls-7" points="113.21 477.88 122.21 444.21 77.21 464.21 113.21 477.88"/><polygon class="cls-7" points="113.21 477.88 172.21 477.88 122.21 444.21 113.21 477.88"/><polygon class="cls-8" points="163.21 515.21 172.21 477.88 113.21 477.88 163.21 515.21"/><polygon class="cls-10" points="207.4 521.8 230.56 499.15 194.77 506.52 207.4 521.8"/><polygon class="cls-22" points="405.21 504.21 409.16 496.93 409.16 472.22 389.21 476.21 405.21 504.21"/><polygon class="cls-20" points="374.21 495.21 405.21 504.21 389.21 476.21 374.21 495.21"/><polygon class="cls-22" points="409.16 500.5 409.16 496.93 405.21 504.21 409.16 500.5"/><polygon class="cls-2" points="339.21 505.21 364.21 450.21 308.71 494.71 339.21 505.21"/><polygon class="cls-5" points="339.21 505.21 374.21 495.21 364.21 450.21 339.21 505.21"/><polygon class="cls-3" points="288.51 514.82 339.21 505.21 308.71 494.71 288.51 514.82"/><polygon class="cls-3" points="288.51 514.82 308.71 494.71 271.77 510.83 288.51 514.82"/><polygon class="cls-9" points="0.21 437.34 0.21 498.3 28.21 466.21 0.21 437.34"/><polygon class="cls-5" points="409.16 505.07 409.16 500.5 405.21 504.21 409.16 505.07"/><polygon class="cls-16" points="63.87 498.55 77.21 464.21 28.21 466.21 63.87 498.55"/><polygon class="cls-16" points="63.87 498.55 113.21 477.88 77.21 464.21 63.87 498.55"/><polygon class="cls-9" points="28.21 466.21 0.21 498.3 0.21 518.32 15.21 524.21 28.21 466.21"/><polygon class="cls-9" points="15.21 524.21 63.87 498.55 28.21 466.21 15.21 524.21"/><polygon class="cls-2" points="366.21 524.21 405.21 504.21 374.21 495.21 366.21 524.21"/><polygon class="cls-2" points="366.21 524.21 374.21 495.21 339.21 505.21 366.21 524.21"/><polygon class="cls-2" points="405.21 504.21 409.16 507.32 409.16 505.07 405.21 504.21"/><polygon class="cls-3" points="276.05 543.11 288.51 514.82 271.77 510.83 276.05 543.11"/><polygon class="cls-6" points="131.21 536.21 163.21 515.21 113.21 477.88 131.21 536.21"/><polygon class="cls-20" points="380.21 542.21 405.21 504.21 366.21 524.21 380.21 542.21"/><polygon class="cls-8" points="60.21 544.21 113.21 477.88 63.87 498.55 60.21 544.21"/><polygon class="cls-9" points="60.21 544.21 63.87 498.55 15.21 524.21 60.21 544.21"/><polygon class="cls-3" points="405.21 504.21 409.16 512.12 409.16 507.32 405.21 504.21"/><polygon class="cls-3" points="380.21 542.21 409.16 544.73 409.16 512.12 405.21 504.21 380.21 542.21"/><polygon class="cls-6" points="93.21 550.21 131.21 536.21 113.21 477.88 93.21 550.21"/><polygon class="cls-12" points="93.21 550.21 113.21 477.88 60.21 544.21 93.21 550.21"/><polygon class="cls-9" points="160.71 550.96 194.77 506.52 163.21 515.21 160.71 550.96"/><polygon class="cls-1" points="160.71 550.96 207.4 521.8 194.77 506.52 160.71 550.96"/><polygon class="cls-3" points="160.71 550.96 220.8 540.75 207.4 521.8 160.71 550.96"/><polygon class="cls-13" points="203.96 575.96 220.8 540.75 160.71 550.96 203.96 575.96"/><polygon class="cls-2" points="203.96 575.96 235.96 550.71 220.8 540.75 203.96 575.96"/><polygon class="cls-5" points="229.33 571.27 241.64 566.93 235.96 550.71 229.33 571.27"/><polygon class="cls-14" points="229.33 571.27 244.33 574.09 241.64 566.93 229.33 571.27"/><polygon class="cls-14" points="241.05 585.34 244.33 574.09 229.33 571.27 241.05 585.34"/><polygon class="cls-4" points="225.14 582.77 241.05 585.34 229.33 571.27 225.14 582.77"/><polygon class="cls-23" points="232.21 605.21 241.05 585.34 225.14 582.77 232.21 605.21"/><polygon class="cls-14" points="232.21 605.21 242.56 593.34 241.05 585.34 232.21 605.21"/><polygon class="cls-23" points="232.21 605.21 274.76 605.11 242.56 593.34 232.21 605.21"/><polygon class="cls-24" points="203.96 575.96 232.21 605.21 225.14 582.77 203.96 575.96"/><polygon class="cls-5" points="225.14 582.77 229.33 571.27 203.96 575.96 225.14 582.77"/><polygon class="cls-4" points="229.33 571.27 235.96 550.71 203.96 575.96 229.33 571.27"/><polygon class="cls-6" points="160.71 550.96 163.21 515.21 131.21 536.21 160.71 550.96"/><polygon class="cls-7" points="0.21 518.32 0.21 542.96 15.21 524.21 0.21 518.32"/><polygon class="cls-2" points="320.46 535.46 380.21 542.21 366.21 524.21 320.46 535.46"/><polygon class="cls-5" points="276.05 543.11 320.46 535.46 288.51 514.82 276.05 543.11"/><polygon class="cls-2" points="320.46 535.46 339.21 505.21 288.51 514.82 320.46 535.46"/><polygon class="cls-2" points="320.46 535.46 366.21 524.21 339.21 505.21 320.46 535.46"/><polygon class="cls-11" points="380.21 542.21 409.16 565.21 409.16 544.73 380.21 542.21"/><polygon class="cls-12" points="129.21 577.21 131.21 536.21 93.21 550.21 129.21 577.21"/><polygon class="cls-6" points="129.21 577.21 160.71 550.96 131.21 536.21 129.21 577.21"/><polygon class="cls-12" points="81.21 581.21 93.21 550.21 60.21 544.21 81.21 581.21"/><polygon class="cls-12" points="81.21 581.21 129.21 577.21 93.21 550.21 81.21 581.21"/><polygon class="cls-3" points="320.46 535.46 385.21 582.21 380.21 542.21 320.46 535.46"/><polygon class="cls-3" points="385.21 582.21 409.16 571.47 409.16 565.21 380.21 542.21 385.21 582.21"/><polygon class="cls-17" points="52.21 587.21 81.21 581.21 60.21 544.21 52.21 587.21"/><polygon class="cls-10" points="15.21 524.21 0.21 542.96 0.21 581.97 3.21 587.21 15.21 524.21"/><polygon class="cls-16" points="3.21 587.21 60.21 544.21 15.21 524.21 3.21 587.21"/><polygon class="cls-8" points="52.21 587.21 60.21 544.21 3.21 587.21 52.21 587.21"/><polygon class="cls-4" points="304.33 559.84 324.21 589.05 320.46 535.46 304.33 559.84"/><polygon class="cls-4" points="304.33 559.84 320.46 535.46 276.05 543.11 304.33 559.84"/><polygon class="cls-4" points="293.9 569.66 304.33 559.84 276.05 543.11 293.9 569.66"/><polygon class="cls-4" points="278.83 573.34 293.9 569.66 276.05 543.11 278.83 573.34"/><polygon class="cls-4" points="284.68 586.78 293.9 569.66 278.83 573.34 284.68 586.78"/><polygon class="cls-4" points="253.23 586.71 284.68 586.78 278.83 573.34 253.23 586.71"/><polygon class="cls-4" points="253.23 586.71 278.83 573.34 253.11 559.53 253.23 586.71"/><polygon class="cls-4" points="244.33 574.09 253.23 586.71 253.11 559.53 244.33 574.09"/><polygon class="cls-2" points="244.33 574.09 253.11 559.53 241.64 566.93 244.33 574.09"/><polygon class="cls-4" points="253.11 559.53 278.83 573.34 276.05 543.11 253.11 559.53"/><polygon class="cls-13" points="274.76 605.11 324.21 589.05 284.68 586.78 274.76 605.11"/><polygon class="cls-13" points="284.68 586.78 324.21 589.05 293.9 569.66 284.68 586.78"/><polygon class="cls-13" points="293.9 569.66 324.21 589.05 304.33 559.84 293.9 569.66"/><polygon class="cls-5" points="355.21 591.21 385.21 582.21 320.46 535.46 355.21 591.21"/><polygon class="cls-4" points="324.21 589.05 355.21 591.21 320.46 535.46 324.21 589.05"/><polygon class="cls-3" points="0.21 581.97 0.21 588.56 3.21 587.21 0.21 581.97"/><polygon class="cls-17" points="72.21 606.21 81.21 581.21 52.21 587.21 72.21 606.21"/><polygon class="cls-12" points="72.21 606.21 129.21 577.21 81.21 581.21 72.21 606.21"/><polygon class="cls-5" points="171.21 610.21 203.96 575.96 160.71 550.96 171.21 610.21"/><polygon class="cls-19" points="129.21 577.21 171.21 610.21 160.71 550.96 129.21 577.21"/><polygon class="cls-6" points="72.21 606.21 142.21 611.21 129.21 577.21 72.21 606.21"/><polygon class="cls-10" points="142.21 611.21 171.21 610.21 129.21 577.21 142.21 611.21"/><polygon class="cls-3" points="398.21 614.21 409.16 583.4 409.16 571.47 385.21 582.21 398.21 614.21"/><polygon class="cls-3" points="409.16 614.73 409.16 583.4 398.21 614.21 409.16 614.73"/><polygon class="cls-5" points="357.21 617.21 385.21 582.21 355.21 591.21 357.21 617.21"/><polygon class="cls-2" points="357.21 617.21 398.21 614.21 385.21 582.21 357.21 617.21"/><polygon class="cls-4" points="324.21 589.05 357.21 617.21 355.21 591.21 324.21 589.05"/><polygon class="cls-14" points="308.07 618.87 324.21 589.05 274.76 605.11 308.07 618.87"/><polygon class="cls-7" points="14.21 622.21 52.21 587.21 3.21 587.21 14.21 622.21"/><polygon class="cls-23" points="256.21 626.21 274.76 605.11 232.21 605.21 256.21 626.21"/><polygon class="cls-14" points="256.21 626.21 308.07 618.87 274.76 605.11 256.21 626.21"/><polygon class="cls-25" points="200.21 628.21 232.21 605.21 203.96 575.96 200.21 628.21"/><polygon class="cls-5" points="200.21 628.21 203.96 575.96 171.21 610.21 200.21 628.21"/><polygon class="cls-2" points="381.21 634.21 398.21 614.21 357.21 617.21 381.21 634.21"/><polygon class="cls-2" points="404.21 634.21 409.16 627.94 409.16 614.73 398.21 614.21 404.21 634.21"/><polygon class="cls-2" points="381.21 634.21 404.21 634.21 398.21 614.21 381.21 634.21"/><polygon class="cls-20" points="0.21 588.56 0.21 603.18 3.21 587.21 0.21 588.56"/><polygon class="cls-15" points="3.21 587.21 0.21 603.18 0.21 631.31 14.21 622.21 3.21 587.21"/><polygon class="cls-13" points="339.21 637.21 357.21 617.21 324.21 589.05 339.21 637.21"/><polygon class="cls-13" points="308.07 618.87 339.21 637.21 324.21 589.05 308.07 618.87"/><polygon class="cls-9" points="118.21 639.21 142.21 611.21 72.21 606.21 118.21 639.21"/><polygon class="cls-12" points="54.21 639.21 72.21 606.21 52.21 587.21 54.21 639.21"/><polygon class="cls-9" points="14.21 622.21 54.21 639.21 52.21 587.21 14.21 622.21"/><polygon class="cls-20" points="409.16 634.9 409.16 627.94 404.21 634.21 409.16 634.9"/><polygon class="cls-26" points="224.21 646.21 256.21 626.21 232.21 605.21 224.21 646.21"/><polygon class="cls-26" points="224.21 646.21 232.21 605.21 200.21 628.21 224.21 646.21"/><polygon class="cls-27" points="312.21 653.21 339.21 637.21 308.07 618.87 312.21 653.21"/><polygon class="cls-14" points="273.21 655.21 308.07 618.87 256.21 626.21 273.21 655.21"/><polygon class="cls-14" points="273.21 655.21 312.21 653.21 308.07 618.87 273.21 655.21"/><polygon class="cls-23" points="224.21 646.21 273.21 655.21 256.21 626.21 224.21 646.21"/><polygon class="cls-1" points="14.21 622.21 0.21 631.31 0.21 638.75 28.21 655.21 14.21 622.21"/><polygon class="cls-9" points="28.21 655.21 54.21 639.21 14.21 622.21 28.21 655.21"/><polygon class="cls-3" points="404.21 634.21 409.16 642.22 409.16 634.9 404.21 634.21"/><polygon class="cls-5" points="312.21 653.21 360.21 659.21 339.21 637.21 312.21 653.21"/><polygon class="cls-5" points="360.21 659.21 381.21 634.21 357.21 617.21 360.21 659.21"/><polygon class="cls-5" points="339.21 637.21 360.21 659.21 357.21 617.21 339.21 637.21"/><polygon class="cls-18" points="143.21 660.21 171.21 610.21 142.21 611.21 143.21 660.21"/><polygon class="cls-10" points="118.21 639.21 143.21 660.21 142.21 611.21 118.21 639.21"/><polygon class="cls-8" points="84.21 661.21 118.21 639.21 72.21 606.21 84.21 661.21"/><polygon class="cls-6" points="54.21 639.21 84.21 661.21 72.21 606.21 54.21 639.21"/><polygon class="cls-3" points="176.21 665.21 200.21 628.21 171.21 610.21 176.21 665.21"/><polygon class="cls-18" points="143.21 660.21 176.21 665.21 171.21 610.21 143.21 660.21"/><polygon class="cls-3" points="0.21 638.75 0.21 660.81 28.21 655.21 0.21 638.75"/><polygon class="cls-7" points="44.21 668.21 54.21 639.21 28.21 655.21 44.21 668.21"/><polygon class="cls-9" points="44.21 668.21 84.21 661.21 54.21 639.21 44.21 668.21"/><polygon class="cls-28" points="195.21 671.21 224.21 646.21 200.21 628.21 195.21 671.21"/><polygon class="cls-27" points="195.21 671.21 200.21 628.21 176.21 665.21 195.21 671.21"/><polygon class="cls-2" points="360.21 659.21 397.21 673.21 381.21 634.21 360.21 659.21"/><polygon class="cls-5" points="397.21 673.21 404.21 634.21 381.21 634.21 397.21 673.21"/><polygon class="cls-3" points="397.21 673.21 409.16 662.45 409.16 642.22 404.21 634.21 397.21 673.21"/><polygon class="cls-7" points="131.21 674.21 143.21 660.21 118.21 639.21 131.21 674.21"/><polygon class="cls-16" points="84.21 661.21 131.21 674.21 118.21 639.21 84.21 661.21"/><polygon class="cls-27" points="272.21 675.21 312.21 653.21 273.21 655.21 272.21 675.21"/><polygon class="cls-3" points="359.21 680.21 397.21 673.21 360.21 659.21 359.21 680.21"/><polygon class="cls-5" points="359.21 680.21 360.21 659.21 312.21 653.21 359.21 680.21"/><polygon class="cls-29" points="251.21 685.21 273.21 655.21 224.21 646.21 251.21 685.21"/><polygon class="cls-4" points="272.21 675.21 273.21 655.21 251.21 685.21 272.21 675.21"/><polygon class="cls-16" points="69.21 687.21 84.21 661.21 44.21 668.21 69.21 687.21"/><polygon class="cls-4" points="307.21 689.21 312.21 653.21 272.21 675.21 307.21 689.21"/><polygon class="cls-5" points="307.21 689.21 359.21 680.21 312.21 653.21 307.21 689.21"/><polygon class="cls-18" points="28.21 655.21 0.21 660.81 0.21 680.36 24.21 690.21 28.21 655.21"/><polygon class="cls-7" points="24.21 690.21 44.21 668.21 28.21 655.21 24.21 690.21"/><polygon class="cls-3" points="397.21 673.21 409.16 690.15 409.16 662.45 397.21 673.21"/><polygon class="cls-16" points="94.21 691.21 131.21 674.21 84.21 661.21 94.21 691.21"/><polygon class="cls-16" points="69.21 687.21 94.21 691.21 84.21 661.21 69.21 687.21"/><polygon class="cls-7" points="116.21 693.21 131.21 674.21 94.21 691.21 116.21 693.21"/><polygon class="cls-10" points="158.21 697.21 195.21 671.21 176.21 665.21 158.21 697.21"/><polygon class="cls-10" points="158.21 697.21 176.21 665.21 143.21 660.21 158.21 697.21"/><polygon class="cls-7" points="131.21 674.21 158.21 697.21 143.21 660.21 131.21 674.21"/><polygon class="cls-1" points="158.21 697.21 208.21 698.21 195.21 671.21 158.21 697.21"/><polygon class="cls-27" points="208.21 698.21 224.21 646.21 195.21 671.21 208.21 698.21"/><polygon class="cls-27" points="208.21 698.21 251.21 685.21 224.21 646.21 208.21 698.21"/><polygon class="cls-2" points="347.21 700.21 359.21 680.21 307.21 689.21 347.21 700.21"/><polygon class="cls-3" points="347.21 700.21 365.21 701.21 359.21 680.21 347.21 700.21"/><polygon class="cls-3" points="365.21 701.21 397.21 673.21 359.21 680.21 365.21 701.21"/><polygon class="cls-3" points="251.21 702.21 251.21 685.21 208.21 698.21 251.21 702.21"/><polygon class="cls-5" points="251.21 702.21 272.21 675.21 251.21 685.21 251.21 702.21"/><polygon class="cls-15" points="0.21 680.36 0.21 703.54 24.21 690.21 0.21 680.36"/><polygon class="cls-16" points="116.21 693.21 134.21 708.21 131.21 674.21 116.21 693.21"/><polygon class="cls-7" points="134.21 708.21 158.21 697.21 131.21 674.21 134.21 708.21"/><polygon class="cls-5" points="293.21 708.21 307.21 689.21 272.21 675.21 293.21 708.21"/><polygon class="cls-20" points="251.21 702.21 293.21 708.21 272.21 675.21 251.21 702.21"/><polygon class="cls-7" points="43.21 710.21 69.21 687.21 44.21 668.21 43.21 710.21"/><polygon class="cls-10" points="43.21 710.21 44.21 668.21 24.21 690.21 43.21 710.21"/><polygon class="cls-15" points="409.21 690.21 409.16 690.15 409.16 690.25 409.21 690.21"/><polygon class="cls-15" points="384.21 710.21 409.16 690.25 409.16 690.15 397.21 673.21 384.21 710.21"/><polygon class="cls-3" points="384.21 710.21 397.21 673.21 365.21 701.21 384.21 710.21"/><polygon class="cls-15" points="409.16 717.61 409.16 690.25 384.21 710.21 409.16 717.61"/><polygon class="cls-3" points="353.21 721.21 365.21 701.21 347.21 700.21 353.21 721.21"/><polygon class="cls-15" points="353.21 721.21 384.21 710.21 365.21 701.21 353.21 721.21"/><polygon class="cls-15" points="392.21 727.21 409.16 719.18 409.16 717.61 384.21 710.21 392.21 727.21"/><polygon class="cls-15" points="353.21 721.21 392.21 727.21 384.21 710.21 353.21 721.21"/><polygon class="cls-18" points="231.21 727.21 251.21 702.21 208.21 698.21 231.21 727.21"/><polygon class="cls-11" points="307.21 729.21 353.21 721.21 347.21 700.21 307.21 729.21"/><polygon class="cls-3" points="307.21 729.21 347.21 700.21 307.21 689.21 307.21 729.21"/><polygon class="cls-3" points="307.21 729.21 307.21 689.21 293.21 708.21 307.21 729.21"/><polygon class="cls-7" points="102.21 730.21 116.21 693.21 94.21 691.21 102.21 730.21"/><polygon class="cls-7" points="102.21 730.21 134.21 708.21 116.21 693.21 102.21 730.21"/><polygon class="cls-7" points="182.21 730.21 208.21 698.21 158.21 697.21 182.21 730.21"/><polygon class="cls-19" points="182.21 730.21 231.21 727.21 208.21 698.21 182.21 730.21"/><polygon class="cls-11" points="0.21 710.99 0.21 728.31 10.21 730.21 0.21 710.99"/><polygon class="cls-18" points="24.21 690.21 0.21 703.54 0.21 710.99 10.21 730.21 24.21 690.21"/><polygon class="cls-15" points="10.21 730.21 43.21 710.21 24.21 690.21 10.21 730.21"/><polygon class="cls-7" points="148.21 732.21 158.21 697.21 134.21 708.21 148.21 732.21"/><polygon class="cls-16" points="148.21 732.21 182.21 730.21 158.21 697.21 148.21 732.21"/><polygon class="cls-7" points="102.21 730.21 148.21 732.21 134.21 708.21 102.21 730.21"/><polygon class="cls-1" points="267.21 732.21 307.21 729.21 293.21 708.21 267.21 732.21"/><polygon class="cls-18" points="267.21 732.21 293.21 708.21 251.21 702.21 267.21 732.21"/><polygon class="cls-10" points="231.21 727.21 267.21 732.21 251.21 702.21 231.21 727.21"/><polygon class="cls-10" points="43.21 710.21 72.21 738.21 69.21 687.21 43.21 710.21"/><polygon class="cls-10" points="72.21 738.21 94.21 691.21 69.21 687.21 72.21 738.21"/><polygon class="cls-10" points="72.21 738.21 102.21 730.21 94.21 691.21 72.21 738.21"/><polygon class="cls-11" points="33.21 738.21 43.21 710.21 10.21 730.21 33.21 738.21"/><polygon class="cls-15" points="33.21 738.21 72.21 738.21 43.21 710.21 33.21 738.21"/><polygon class="cls-16" points="225.21 745.21 231.21 727.21 182.21 730.21 225.21 745.21"/><polygon class="cls-3" points="0.21 728.31 0.21 739.71 10.21 730.21 0.21 728.31"/><polygon class="cls-7" points="137.21 751.21 148.21 732.21 102.21 730.21 137.21 751.21"/><polygon class="cls-3" points="68.21 753.21 72.21 738.21 33.21 738.21 68.21 753.21"/><polygon class="cls-15" points="353.21 754.21 392.21 727.21 353.21 721.21 353.21 754.21"/><polygon class="cls-18" points="353.21 754.21 353.21 721.21 307.21 729.21 353.21 754.21"/><polygon class="cls-7" points="272.21 757.21 307.21 729.21 267.21 732.21 272.21 757.21"/><polygon class="cls-16" points="254.21 758.21 272.21 757.21 267.21 732.21 254.21 758.21"/><polygon class="cls-7" points="254.21 758.21 267.21 732.21 231.21 727.21 254.21 758.21"/><polygon class="cls-9" points="225.21 745.21 254.21 758.21 231.21 727.21 225.21 745.21"/><polygon class="cls-10" points="306.21 758.21 353.21 754.21 307.21 729.21 306.21 758.21"/><polygon class="cls-7" points="306.21 758.21 307.21 729.21 272.21 757.21 306.21 758.21"/><polygon class="cls-11" points="409.16 745.34 409.16 719.18 392.21 727.21 409.16 745.34"/><polygon class="cls-15" points="376.21 761.21 392.21 727.21 353.21 754.21 376.21 761.21"/><polygon class="cls-3" points="36.21 763.21 68.21 753.21 33.21 738.21 36.21 763.21"/><polygon class="cls-1" points="90.21 765.21 137.21 751.21 102.21 730.21 90.21 765.21"/><polygon class="cls-15" points="90.21 765.21 102.21 730.21 72.21 738.21 90.21 765.21"/><polygon class="cls-11" points="68.21 753.21 90.21 765.21 72.21 738.21 68.21 753.21"/><polygon class="cls-20" points="406.21 766.21 409.16 764.64 409.16 745.34 392.21 727.21 406.21 766.21"/><polygon class="cls-3" points="376.21 761.21 406.21 766.21 392.21 727.21 376.21 761.21"/><polygon class="cls-9" points="197.21 768.21 225.21 745.21 182.21 730.21 197.21 768.21"/><polygon class="cls-8" points="175.21 769.21 197.21 768.21 182.21 730.21 175.21 769.21"/><polygon class="cls-9" points="175.21 769.21 182.21 730.21 148.21 732.21 175.21 769.21"/><polygon class="cls-16" points="137.21 751.21 175.21 769.21 148.21 732.21 137.21 751.21"/><polygon class="cls-3" points="10.21 730.21 0.21 739.71 0.21 762.35 6.21 770.21 10.21 730.21"/><polygon class="cls-3" points="6.21 770.21 33.21 738.21 10.21 730.21 6.21 770.21"/><polygon class="cls-20" points="6.21 770.21 36.21 763.21 33.21 738.21 6.21 770.21"/><polygon class="cls-10" points="336.21 771.21 353.21 754.21 306.21 758.21 336.21 771.21"/><polygon class="cls-3" points="56.21 773.21 68.21 753.21 36.21 763.21 56.21 773.21"/><polygon class="cls-3" points="56.21 773.21 90.21 765.21 68.21 753.21 56.21 773.21"/><polygon class="cls-5" points="409.16 767.16 409.16 764.64 406.21 766.21 409.16 767.16"/><polygon class="cls-1" points="121.21 778.21 137.21 751.21 90.21 765.21 121.21 778.21"/><polygon class="cls-18" points="357.21 783.21 376.21 761.21 353.21 754.21 357.21 783.21"/><polygon class="cls-1" points="336.21 771.21 357.21 783.21 353.21 754.21 336.21 771.21"/><polygon class="cls-3" points="0.21 762.35 0.21 774.71 6.21 770.21 0.21 762.35"/><polygon class="cls-20" points="24.21 789.21 36.21 763.21 6.21 770.21 24.21 789.21"/><polygon class="cls-3" points="24.21 789.21 56.21 773.21 36.21 763.21 24.21 789.21"/><polygon class="cls-8" points="233.21 792.21 254.21 758.21 225.21 745.21 233.21 792.21"/><polygon class="cls-6" points="216.21 792.21 225.21 745.21 197.21 768.21 216.21 792.21"/><polygon class="cls-6" points="216.21 792.21 233.21 792.21 225.21 745.21 216.21 792.21"/><polygon class="cls-16" points="136.21 795.21 175.21 769.21 137.21 751.21 136.21 795.21"/><polygon class="cls-10" points="136.21 795.21 137.21 751.21 121.21 778.21 136.21 795.21"/><polygon class="cls-1" points="98.21 796.21 136.21 795.21 121.21 778.21 98.21 796.21"/><polygon class="cls-15" points="98.21 796.21 121.21 778.21 90.21 765.21 98.21 796.21"/><polygon class="cls-3" points="0.21 774.71 0.21 788.86 6.21 770.21 0.21 774.71"/><polygon class="cls-3" points="6.21 770.21 0.21 788.86 0.21 797.21 24.21 789.21 6.21 770.21"/><polygon class="cls-3" points="54.21 799.21 56.21 773.21 24.21 789.21 54.21 799.21"/><polygon class="cls-7" points="155.21 800.21 175.21 769.21 136.21 795.21 155.21 800.21"/><polygon class="cls-7" points="298.21 802.21 336.21 771.21 306.21 758.21 298.21 802.21"/><polygon class="cls-16" points="298.21 802.21 306.21 758.21 272.21 757.21 298.21 802.21"/><polygon class="cls-3" points="54.21 799.21 76.21 806.21 56.21 773.21 54.21 799.21"/><polygon class="cls-3" points="76.21 806.21 90.21 765.21 56.21 773.21 76.21 806.21"/><polygon class="cls-11" points="76.21 806.21 98.21 796.21 90.21 765.21 76.21 806.21"/><polygon class="cls-20" points="376.21 806.21 406.21 766.21 376.21 761.21 376.21 806.21"/><polygon class="cls-3" points="376.21 806.21 376.21 761.21 357.21 783.21 376.21 806.21"/><polygon class="cls-9" points="155.21 800.21 182.21 807.21 175.21 769.21 155.21 800.21"/><polygon class="cls-8" points="182.21 807.21 197.21 768.21 175.21 769.21 182.21 807.21"/><polygon class="cls-8" points="182.21 807.21 216.21 792.21 197.21 768.21 182.21 807.21"/><polygon class="cls-3" points="24.21 789.21 0.21 797.21 0.21 799.99 19.21 811.21 24.21 789.21"/><polygon class="cls-3" points="339.21 814.21 376.21 806.21 357.21 783.21 339.21 814.21"/><polygon class="cls-18" points="339.21 814.21 357.21 783.21 336.21 771.21 339.21 814.21"/><polygon class="cls-10" points="298.21 802.21 339.21 814.21 336.21 771.21 298.21 802.21"/><polygon class="cls-19" points="270.21 814.21 298.21 802.21 272.21 757.21 270.21 814.21"/><polygon class="cls-9" points="270.21 814.21 272.21 757.21 254.21 758.21 270.21 814.21"/><polygon class="cls-16" points="233.21 792.21 270.21 814.21 254.21 758.21 233.21 792.21"/><polygon class="cls-11" points="0.21 799.99 0.21 813.51 19.21 811.21 0.21 799.99"/><polygon class="cls-13" points="409.16 816.35 409.16 809.32 404.21 817.21 409.16 816.35"/><polygon class="cls-4" points="404.21 817.21 409.16 809.32 409.16 767.16 406.21 766.21 404.21 817.21"/><polygon class="cls-5" points="404.21 817.21 406.21 766.21 376.21 806.21 404.21 817.21"/><polygon class="cls-11" points="39.21 817.21 54.21 799.21 24.21 789.21 39.21 817.21"/><polygon class="cls-11" points="19.21 811.21 39.21 817.21 24.21 789.21 19.21 811.21"/><polygon class="cls-10" points="118.21 823.21 155.21 800.21 136.21 795.21 118.21 823.21"/><polygon class="cls-1" points="118.21 823.21 136.21 795.21 98.21 796.21 118.21 823.21"/><polygon class="cls-13" points="404.21 817.21 409.16 818.82 409.16 816.35 404.21 817.21"/><polygon class="cls-11" points="67.21 836.21 76.21 806.21 54.21 799.21 67.21 836.21"/><polygon class="cls-11" points="39.21 817.21 67.21 836.21 54.21 799.21 39.21 817.21"/><polygon class="cls-15" points="309.21 837.21 339.21 814.21 298.21 802.21 309.21 837.21"/><polygon class="cls-15" points="270.21 814.21 309.21 837.21 298.21 802.21 270.21 814.21"/><polygon class="cls-5" points="339.21 814.21 377.21 838.21 376.21 806.21 339.21 814.21"/><polygon class="cls-27" points="377.21 838.21 404.21 817.21 376.21 806.21 377.21 838.21"/><polygon class="cls-7" points="170.21 842.21 182.21 807.21 155.21 800.21 170.21 842.21"/><polygon class="cls-7" points="118.21 823.21 170.21 842.21 155.21 800.21 118.21 823.21"/><polygon class="cls-15" points="67.21 836.21 95.21 842.21 76.21 806.21 67.21 836.21"/><polygon class="cls-15" points="95.21 842.21 98.21 796.21 76.21 806.21 95.21 842.21"/><polygon class="cls-18" points="95.21 842.21 118.21 823.21 98.21 796.21 95.21 842.21"/><polygon class="cls-15" points="19.21 811.21 0.21 813.51 0.21 831.55 10.21 843.21 19.21 811.21"/><polygon class="cls-1" points="254.21 843.21 270.21 814.21 233.21 792.21 254.21 843.21"/><polygon class="cls-18" points="0.21 831.55 0.21 843.47 10.21 843.21 0.21 831.55"/><polygon class="cls-18" points="23.21 844.21 39.21 817.21 19.21 811.21 23.21 844.21"/><polygon class="cls-18" points="10.21 843.21 23.21 844.21 19.21 811.21 10.21 843.21"/><polygon class="cls-15" points="42.21 845.21 67.21 836.21 39.21 817.21 42.21 845.21"/><polygon class="cls-18" points="23.21 844.21 42.21 845.21 39.21 817.21 23.21 844.21"/><polygon class="cls-13" points="404.21 817.21 409.16 835.18 409.16 818.82 404.21 817.21"/><polygon class="cls-14" points="377.21 838.21 409.16 845.52 409.16 835.18 404.21 817.21 377.21 838.21"/><polygon class="cls-19" points="170.21 842.21 210.21 846.21 182.21 807.21 170.21 842.21"/><polygon class="cls-7" points="210.21 846.21 216.21 792.21 182.21 807.21 210.21 846.21"/><polygon class="cls-7" points="210.21 846.21 233.21 792.21 216.21 792.21 210.21 846.21"/><polygon class="cls-1" points="210.21 846.21 254.21 843.21 233.21 792.21 210.21 846.21"/><polygon class="cls-10" points="125.21 850.21 170.21 842.21 118.21 823.21 125.21 850.21"/><polygon class="cls-1" points="95.21 842.21 125.21 850.21 118.21 823.21 95.21 842.21"/><polygon class="cls-2" points="322.21 854.21 339.21 814.21 309.21 837.21 322.21 854.21"/><polygon class="cls-5" points="322.21 854.21 377.21 838.21 339.21 814.21 322.21 854.21"/><polygon class="cls-5" points="275.21 859.21 322.21 854.21 309.21 837.21 275.21 859.21"/><polygon class="cls-3" points="275.21 859.21 309.21 837.21 270.21 814.21 275.21 859.21"/><polygon class="cls-20" points="254.21 843.21 275.21 859.21 270.21 814.21 254.21 843.21"/><polygon class="cls-1" points="100.21 863.21 125.21 850.21 95.21 842.21 100.21 863.21"/><polygon class="cls-14" points="376.21 869.21 409.16 848.16 409.16 845.52 377.21 838.21 376.21 869.21"/><polygon class="cls-13" points="376.21 869.21 377.21 838.21 322.21 854.21 376.21 869.21"/><polygon class="cls-15" points="192.21 869.21 210.21 846.21 170.21 842.21 192.21 869.21"/><polygon class="cls-1" points="0.21 843.47 0.21 851.39 10.21 843.21 0.21 843.47"/><polygon class="cls-1" points="67.21 873.21 67.21 836.21 42.21 845.21 67.21 873.21"/><polygon class="cls-1" points="67.21 873.21 95.21 842.21 67.21 836.21 67.21 873.21"/><polygon class="cls-1" points="67.21 873.21 100.21 863.21 95.21 842.21 67.21 873.21"/><polygon class="cls-1" points="79.21 880.21 100.21 863.21 67.21 873.21 79.21 880.21"/><polygon class="cls-1" points="168.21 881.21 170.21 842.21 125.21 850.21 168.21 881.21"/><polygon class="cls-15" points="168.21 881.21 192.21 869.21 170.21 842.21 168.21 881.21"/><polygon class="cls-10" points="10.21 885.21 42.21 845.21 23.21 844.21 10.21 885.21"/><polygon class="cls-10" points="10.21 885.21 23.21 844.21 10.21 843.21 10.21 885.21"/><polygon class="cls-10" points="10.21 843.21 0.21 851.39 0.21 880.67 10.21 885.21 10.21 843.21"/><polygon class="cls-5" points="319.21 886.21 322.21 854.21 275.21 859.21 319.21 886.21"/><polygon class="cls-18" points="119.21 887.21 125.21 850.21 100.21 863.21 119.21 887.21"/><polygon class="cls-15" points="119.21 887.21 168.21 881.21 125.21 850.21 119.21 887.21"/><polygon class="cls-1" points="100.21 888.21 100.21 863.21 79.21 880.21 100.21 888.21"/><polygon class="cls-15" points="100.21 888.21 119.21 887.21 100.21 863.21 100.21 888.21"/><polygon class="cls-10" points="0.21 880.67 0.21 886.94 10.21 885.21 0.21 880.67"/><polygon class="cls-4" points="264.21 890.21 319.21 886.21 275.21 859.21 264.21 890.21"/><polygon class="cls-22" points="264.21 890.21 275.21 859.21 254.21 843.21 264.21 890.21"/><polygon class="cls-2" points="210.21 846.21 264.21 890.21 254.21 843.21 210.21 846.21"/><polygon class="cls-1" points="53.21 891.21 67.21 873.21 42.21 845.21 53.21 891.21"/><polygon class="cls-1" points="10.21 885.21 53.21 891.21 42.21 845.21 10.21 885.21"/><polygon class="cls-1" points="53.21 891.21 79.21 880.21 67.21 873.21 53.21 891.21"/><polygon class="cls-13" points="347.21 895.21 376.21 869.21 322.21 854.21 347.21 895.21"/><polygon class="cls-13" points="319.21 886.21 347.21 895.21 322.21 854.21 319.21 886.21"/><polygon class="cls-20" points="168.21 881.21 198.21 902.21 192.21 869.21 168.21 881.21"/><polygon class="cls-10" points="20.21 903.21 53.21 891.21 10.21 885.21 20.21 903.21"/><polygon class="cls-10" points="44.21 907.21 53.21 891.21 20.21 903.21 44.21 907.21"/><polygon class="cls-3" points="146.21 907.21 168.21 881.21 119.21 887.21 146.21 907.21"/><polygon class="cls-5" points="198.21 902.21 241.21 908.21 192.21 869.21 198.21 902.21"/><polygon class="cls-2" points="192.21 869.21 241.21 908.21 210.21 846.21 192.21 869.21"/><polygon class="cls-5" points="241.21 908.21 264.21 890.21 210.21 846.21 241.21 908.21"/><polygon class="cls-13" points="284.21 910.21 319.21 886.21 264.21 890.21 284.21 910.21"/><polygon class="cls-13" points="241.21 908.21 284.21 910.21 264.21 890.21 241.21 908.21"/><polygon class="cls-10" points="44.21 907.21 78.21 910.21 53.21 891.21 44.21 907.21"/><polygon class="cls-18" points="78.21 910.21 100.21 888.21 79.21 880.21 78.21 910.21"/><polygon class="cls-1" points="78.21 910.21 79.21 880.21 53.21 891.21 78.21 910.21"/><polygon class="cls-14" points="347.21 895.21 403.21 915.21 376.21 869.21 347.21 895.21"/><polygon class="cls-30" points="403.21 915.21 409.16 914.57 409.16 907.53 403.21 915.21"/><polygon class="cls-31" points="409.16 907.53 409.16 869.55 403.21 915.21 409.16 907.53"/><polygon class="cls-30" points="403.21 915.21 409.16 869.55 409.16 848.16 376.21 869.21 403.21 915.21"/><polygon class="cls-3" points="110.21 917.21 146.21 907.21 119.21 887.21 110.21 917.21"/><polygon class="cls-11" points="110.21 917.21 119.21 887.21 100.21 888.21 110.21 917.21"/><polygon class="cls-15" points="78.21 910.21 110.21 917.21 100.21 888.21 78.21 910.21"/><polygon class="cls-10" points="10.21 885.21 0.21 886.94 0.21 916.35 5.21 923.21 10.21 885.21"/><polygon class="cls-18" points="5.21 923.21 20.21 903.21 10.21 885.21 5.21 923.21"/><polygon class="cls-5" points="178.21 926.21 241.21 908.21 198.21 902.21 178.21 926.21"/><polygon class="cls-5" points="178.21 926.21 198.21 902.21 168.21 881.21 178.21 926.21"/><polygon class="cls-2" points="146.21 907.21 178.21 926.21 168.21 881.21 146.21 907.21"/><polygon class="cls-1" points="0.21 916.35 0.21 923.57 5.21 923.21 0.21 916.35"/><polygon class="cls-15" points="83.21 930.21 110.21 917.21 78.21 910.21 83.21 930.21"/><polygon class="cls-1" points="44.21 940.21 78.21 910.21 44.21 907.21 44.21 940.21"/><polygon class="cls-1" points="44.21 940.21 83.21 930.21 78.21 910.21 44.21 940.21"/><polygon class="cls-10" points="44.21 940.21 44.21 907.21 20.21 903.21 44.21 940.21"/><polygon class="cls-1" points="5.21 923.21 44.21 940.21 20.21 903.21 5.21 923.21"/><polygon class="cls-30" points="403.21 915.21 409.16 920.51 409.16 914.57 403.21 915.21"/><polygon class="cls-1" points="0.21 923.57 0.21 926.5 5.21 923.21 0.21 923.57"/><polygon class="cls-13" points="368.21 950.21 403.21 915.21 347.21 895.21 368.21 950.21"/><polygon class="cls-10" points="30.21 951.21 44.21 940.21 5.21 923.21 30.21 951.21"/><polygon class="cls-13" points="282.21 952.21 284.21 910.21 241.21 908.21 282.21 952.21"/><polygon class="cls-3" points="125.21 952.21 146.21 907.21 110.21 917.21 125.21 952.21"/><polygon class="cls-5" points="125.21 952.21 178.21 926.21 146.21 907.21 125.21 952.21"/><polygon class="cls-15" points="96.21 953.21 110.21 917.21 83.21 930.21 96.21 953.21"/><polygon class="cls-11" points="96.21 953.21 125.21 952.21 110.21 917.21 96.21 953.21"/><polygon class="cls-4" points="338.21 955.21 368.21 950.21 347.21 895.21 338.21 955.21"/><polygon class="cls-5" points="282.21 952.21 338.21 955.21 284.21 910.21 282.21 952.21"/><polygon class="cls-13" points="338.21 955.21 347.21 895.21 319.21 886.21 338.21 955.21"/><polygon class="cls-4" points="284.21 910.21 338.21 955.21 319.21 886.21 284.21 910.21"/><polygon class="cls-1" points="77.21 958.21 83.21 930.21 44.21 940.21 77.21 958.21"/><polygon class="cls-18" points="77.21 958.21 96.21 953.21 83.21 930.21 77.21 958.21"/><polygon class="cls-22" points="178.21 926.21 252.21 960.21 241.21 908.21 178.21 926.21"/><polygon class="cls-27" points="252.21 960.21 282.21 952.21 241.21 908.21 252.21 960.21"/><polygon class="cls-13" points="186.21 968.21 252.21 960.21 178.21 926.21 186.21 968.21"/><polygon class="cls-1" points="0.21 926.5 0.21 938.53 5.21 923.21 0.21 926.5"/><polygon class="cls-10" points="5.21 923.21 0.21 938.53 0.21 964.71 30.21 951.21 5.21 923.21"/><polygon class="cls-30" points="389.21 973.21 409.16 962.84 409.16 920.51 403.21 915.21 389.21 973.21"/><polygon class="cls-13" points="389.21 973.21 403.21 915.21 368.21 950.21 389.21 973.21"/><polygon class="cls-19" points="30.21 951.21 0.21 964.71 0.21 971.64 23.21 977.21 30.21 951.21"/><polygon class="cls-7" points="23.21 977.21 49.21 979.21 30.21 951.21 23.21 977.21"/><polygon class="cls-19" points="30.21 951.21 49.21 979.21 44.21 940.21 30.21 951.21"/><polygon class="cls-10" points="49.21 979.21 77.21 958.21 44.21 940.21 49.21 979.21"/><polygon class="cls-20" points="337.21 982.21 368.21 950.21 338.21 955.21 337.21 982.21"/><polygon class="cls-5" points="337.21 982.21 389.21 973.21 368.21 950.21 337.21 982.21"/><polygon class="cls-10" points="73.21 983.21 96.21 953.21 77.21 958.21 73.21 983.21"/><polygon class="cls-7" points="73.21 983.21 77.21 958.21 49.21 979.21 73.21 983.21"/><polygon class="cls-5" points="160.21 984.21 178.21 926.21 125.21 952.21 160.21 984.21"/><polygon class="cls-4" points="160.21 984.21 186.21 968.21 178.21 926.21 160.21 984.21"/><polygon class="cls-7" points="0.21 971.64 0.21 984.44 23.21 977.21 0.21 971.64"/><polygon class="cls-2" points="318.21 992.21 338.21 955.21 282.21 952.21 318.21 992.21"/><polygon class="cls-3" points="337.21 982.21 338.21 955.21 318.21 992.21 337.21 982.21"/><polygon class="cls-30" points="404.21 992.21 409.16 985.84 409.16 962.84 389.21 973.21 404.21 992.21"/><polygon class="cls-11" points="109.21 996.21 160.21 984.21 125.21 952.21 109.21 996.21"/><polygon class="cls-18" points="109.21 996.21 125.21 952.21 96.21 953.21 109.21 996.21"/><polygon class="cls-10" points="73.21 983.21 109.21 996.21 96.21 953.21 73.21 983.21"/><polygon class="cls-13" points="200.21 996.21 252.21 960.21 186.21 968.21 200.21 996.21"/><polygon class="cls-22" points="160.21 984.21 200.21 996.21 186.21 968.21 160.21 984.21"/><polygon class="cls-29" points="409.16 992.64 409.16 985.84 404.21 992.21 409.16 992.64"/><polygon class="cls-13" points="245.21 1001.21 252.21 960.21 200.21 996.21 245.21 1001.21"/><polygon class="cls-4" points="245.21 1001.21 282.21 952.21 252.21 960.21 245.21 1001.21"/><polygon class="cls-5" points="245.21 1001.21 318.21 992.21 282.21 952.21 245.21 1001.21"/><polygon class="cls-1" points="127.21 1014.21 160.21 984.21 109.21 996.21 127.21 1014.21"/><polygon class="cls-9" points="41.21 1016.21 49.21 979.21 23.21 977.21 41.21 1016.21"/><polygon class="cls-16" points="41.21 1016.21 73.21 983.21 49.21 979.21 41.21 1016.21"/><polygon class="cls-30" points="404.21 992.21 409.16 997.81 409.16 992.64 404.21 992.21"/><polygon class="cls-6" points="0.21 1001.05 0.21 1013.39 17.21 1019.21 0.21 1001.05"/><polygon class="cls-6" points="23.21 977.21 0.21 984.44 0.21 1001.05 17.21 1019.21 23.21 977.21"/><polygon class="cls-12" points="17.21 1019.21 41.21 1016.21 23.21 977.21 17.21 1019.21"/><polygon class="cls-5" points="297.21 1028.21 318.21 992.21 245.21 1001.21 297.21 1028.21"/><polygon class="cls-5" points="260.21 1025.21 297.21 1028.21 245.21 1001.21 260.21 1025.21"/><polygon class="cls-5" points="318.21 992.21 362.21 1030.21 337.21 982.21 318.21 992.21"/><polygon class="cls-2" points="297.21 1028.21 362.21 1030.21 318.21 992.21 297.21 1028.21"/><polygon class="cls-4" points="362.21 1030.21 389.21 973.21 337.21 982.21 362.21 1030.21"/><polygon class="cls-22" points="362.21 1030.21 404.21 992.21 389.21 973.21 362.21 1030.21"/><polygon class="cls-13" points="225.21 1047.21 245.21 1001.21 200.21 996.21 225.21 1047.21"/><polygon class="cls-4" points="225.21 1047.21 260.21 1025.21 245.21 1001.21 225.21 1047.21"/><polygon class="cls-7" points="75.21 1048.21 127.21 1014.21 109.21 996.21 75.21 1048.21"/><polygon class="cls-7" points="75.21 1048.21 109.21 996.21 73.21 983.21 75.21 1048.21"/><polygon class="cls-9" points="41.21 1016.21 75.21 1048.21 73.21 983.21 41.21 1016.21"/><polygon class="cls-12" points="0.21 1013.39 0.21 1029.28 17.21 1019.21 0.21 1013.39"/><polygon class="cls-5" points="181.21 1052.21 225.21 1047.21 200.21 996.21 181.21 1052.21"/><polygon class="cls-5" points="181.21 1052.21 200.21 996.21 160.21 984.21 181.21 1052.21"/><polygon class="cls-11" points="127.21 1014.21 181.21 1052.21 160.21 984.21 127.21 1014.21"/><polygon class="cls-22" points="269.21 1052.21 297.21 1028.21 260.21 1025.21 269.21 1052.21"/><polygon class="cls-5" points="225.21 1047.21 269.21 1052.21 260.21 1025.21 225.21 1047.21"/><polygon class="cls-5" points="409.16 1053.75 409.16 1042.27 400.21 1054.21 409.16 1053.75"/><polygon class="cls-13" points="400.21 1054.21 409.16 1042.27 409.16 997.81 404.21 992.21 400.21 1054.21"/><polygon class="cls-4" points="400.21 1054.21 404.21 992.21 362.21 1030.21 400.21 1054.21"/><polygon class="cls-16" points="114.21 1059.21 127.21 1014.21 75.21 1048.21 114.21 1059.21"/><polygon class="cls-1" points="114.21 1059.21 181.21 1052.21 127.21 1014.21 114.21 1059.21"/><polygon class="cls-5" points="318.21 1063.21 362.21 1030.21 297.21 1028.21 318.21 1063.21"/><polygon class="cls-5" points="269.21 1052.21 318.21 1063.21 297.21 1028.21 269.21 1052.21"/><polygon class="cls-12" points="17.21 1019.21 48.21 1064.21 41.21 1016.21 17.21 1019.21"/><polygon class="cls-8" points="48.21 1064.21 75.21 1048.21 41.21 1016.21 48.21 1064.21"/><polygon class="cls-12" points="17.21 1019.21 0.21 1029.28 0.21 1062.38 16.21 1067.21 17.21 1019.21"/><polygon class="cls-12" points="16.21 1067.21 48.21 1064.21 17.21 1019.21 16.21 1067.21"/><polygon class="cls-2" points="258.21 1072.21 318.21 1063.21 269.21 1052.21 258.21 1072.21"/><polygon class="cls-2" points="258.21 1072.21 269.21 1052.21 225.21 1047.21 258.21 1072.21"/><polygon class="cls-3" points="361.21 1074.21 400.21 1054.21 362.21 1030.21 361.21 1074.21"/><polygon class="cls-20" points="361.21 1074.21 362.21 1030.21 318.21 1063.21 361.21 1074.21"/><polygon class="cls-11" points="409.16 1059.54 409.16 1053.75 400.21 1054.21 409.16 1059.54"/><polygon class="cls-16" points="94.21 1093.21 114.21 1059.21 75.21 1048.21 94.21 1093.21"/><polygon class="cls-1" points="374.21 1095.21 400.21 1054.21 361.21 1074.21 374.21 1095.21"/><polygon class="cls-1" points="374.21 1095.21 409.16 1086.99 409.16 1059.54 400.21 1054.21 374.21 1095.21"/><polygon class="cls-3" points="336.21 1096.21 361.21 1074.21 318.21 1063.21 336.21 1096.21"/><polygon class="cls-18" points="336.21 1096.21 374.21 1095.21 361.21 1074.21 336.21 1096.21"/><polygon class="cls-5" points="181.21 1052.21 233.21 1098.21 225.21 1047.21 181.21 1052.21"/><polygon class="cls-2" points="233.21 1098.21 258.21 1072.21 225.21 1047.21 233.21 1098.21"/><polygon class="cls-6" points="71.21 1100.21 75.21 1048.21 48.21 1064.21 71.21 1100.21"/><polygon class="cls-9" points="71.21 1100.21 94.21 1093.21 75.21 1048.21 71.21 1100.21"/><polygon class="cls-8" points="16.21 1067.21 71.21 1100.21 48.21 1064.21 16.21 1067.21"/><polygon class="cls-12" points="0.21 1062.38 0.21 1091.55 16.21 1067.21 0.21 1062.38"/><polygon class="cls-1" points="125.21 1104.21 181.21 1052.21 114.21 1059.21 125.21 1104.21"/><polygon class="cls-7" points="94.21 1093.21 125.21 1104.21 114.21 1059.21 94.21 1093.21"/><polygon class="cls-2" points="173.21 1106.21 233.21 1098.21 181.21 1052.21 173.21 1106.21"/><polygon class="cls-3" points="173.21 1106.21 181.21 1052.21 125.21 1104.21 173.21 1106.21"/><polygon class="cls-20" points="233.21 1098.21 266.21 1113.21 258.21 1072.21 233.21 1098.21"/><polygon class="cls-2" points="266.21 1113.21 318.21 1063.21 258.21 1072.21 266.21 1113.21"/><polygon class="cls-3" points="266.21 1113.21 336.21 1096.21 318.21 1063.21 266.21 1113.21"/><polygon class="cls-7" points="390.21 1122.21 409.16 1106.54 409.16 1086.99 374.21 1095.21 390.21 1122.21"/><polygon class="cls-10" points="390.21 1122.21 409.16 1121.45 409.16 1106.54 390.21 1122.21"/><polygon class="cls-10" points="336.21 1096.21 390.21 1122.21 374.21 1095.21 336.21 1096.21"/><polygon class="cls-2" points="243.21 1133.21 266.21 1113.21 233.21 1098.21 243.21 1133.21"/><polygon class="cls-2" points="307.21 1137.21 336.21 1096.21 266.21 1113.21 307.21 1137.21"/><polygon class="cls-6" points="36.21 1137.21 71.21 1100.21 16.21 1067.21 36.21 1137.21"/><polygon class="cls-6" points="16.21 1067.21 0.21 1091.55 0.21 1107.91 36.21 1137.21 16.21 1067.21"/><polygon class="cls-5" points="178.21 1141.21 233.21 1098.21 173.21 1106.21 178.21 1141.21"/><polygon class="cls-2" points="178.21 1141.21 243.21 1133.21 233.21 1098.21 178.21 1141.21"/><polygon class="cls-8" points="63.21 1141.21 71.21 1100.21 36.21 1137.21 63.21 1141.21"/><polygon class="cls-9" points="63.21 1141.21 94.21 1093.21 71.21 1100.21 63.21 1141.21"/><polygon class="cls-1" points="328.21 1145.21 390.21 1122.21 336.21 1096.21 328.21 1145.21"/><polygon class="cls-11" points="328.21 1145.21 336.21 1096.21 307.21 1137.21 328.21 1145.21"/><polygon class="cls-6" points="0.21 1107.91 0.21 1143.61 36.21 1137.21 0.21 1107.91"/><polygon class="cls-10" points="123.21 1147.21 125.21 1104.21 94.21 1093.21 123.21 1147.21"/><polygon class="cls-7" points="63.21 1141.21 123.21 1147.21 94.21 1093.21 63.21 1141.21"/><polygon class="cls-15" points="123.21 1147.21 173.21 1106.21 125.21 1104.21 123.21 1147.21"/><polygon class="cls-3" points="123.21 1147.21 178.21 1141.21 173.21 1106.21 123.21 1147.21"/><polygon class="cls-19" points="390.21 1122.21 409.16 1147.49 409.16 1121.45 390.21 1122.21"/><polygon class="cls-10" points="372.21 1157.21 390.21 1122.21 328.21 1145.21 372.21 1157.21"/><polygon class="cls-7" points="372.21 1157.21 409.16 1154.57 409.16 1147.49 390.21 1122.21 372.21 1157.21"/><polygon class="cls-7" points="406.21 1166.21 409.16 1161.78 409.16 1154.57 372.21 1157.21 406.21 1166.21"/><polygon class="cls-1" points="332.21 1167.21 372.21 1157.21 328.21 1145.21 332.21 1167.21"/><polygon class="cls-3" points="307.21 1137.21 332.21 1167.21 328.21 1145.21 307.21 1137.21"/><polygon class="cls-16" points="104.21 1170.21 123.21 1147.21 63.21 1141.21 104.21 1170.21"/><polygon class="cls-20" points="256.21 1170.21 266.21 1113.21 243.21 1133.21 256.21 1170.21"/><polygon class="cls-3" points="256.21 1170.21 307.21 1137.21 266.21 1113.21 256.21 1170.21"/><polygon class="cls-16" points="409.16 1166.93 409.16 1161.78 406.21 1166.21 409.16 1166.93"/><polygon class="cls-9" points="36.21 1137.21 0.21 1143.61 0.21 1150.3 53.21 1180.21 36.21 1137.21"/><polygon class="cls-6" points="53.21 1180.21 63.21 1141.21 36.21 1137.21 53.21 1180.21"/><polygon class="cls-9" points="53.21 1180.21 104.21 1170.21 63.21 1141.21 53.21 1180.21"/><polygon class="cls-7" points="393.21 1187.21 406.21 1166.21 372.21 1157.21 393.21 1187.21"/><polygon class="cls-11" points="282.21 1190.21 332.21 1167.21 307.21 1137.21 282.21 1190.21"/><polygon class="cls-11" points="282.21 1190.21 307.21 1137.21 256.21 1170.21 282.21 1190.21"/><polygon class="cls-10" points="358.21 1190.21 372.21 1157.21 332.21 1167.21 358.21 1190.21"/><polygon class="cls-7" points="358.21 1190.21 393.21 1187.21 372.21 1157.21 358.21 1190.21"/><polygon class="cls-1" points="282.21 1190.21 340.21 1192.21 332.21 1167.21 282.21 1190.21"/><polygon class="cls-18" points="340.21 1192.21 358.21 1190.21 332.21 1167.21 340.21 1192.21"/><polygon class="cls-18" points="255.21 1195.21 282.21 1190.21 256.21 1170.21 255.21 1195.21"/><polygon class="cls-15" points="255.21 1195.21 256.21 1170.21 212.21 1200.21 255.21 1195.21"/><polygon class="cls-3" points="212.21 1200.21 243.21 1133.21 178.21 1141.21 212.21 1200.21"/><polygon class="cls-3" points="212.21 1200.21 256.21 1170.21 243.21 1133.21 212.21 1200.21"/><polygon class="cls-10" points="104.21 1170.21 148.21 1209.21 123.21 1147.21 104.21 1170.21"/><polygon class="cls-15" points="148.21 1209.21 178.21 1141.21 123.21 1147.21 148.21 1209.21"/><polygon class="cls-15" points="148.21 1209.21 212.21 1200.21 178.21 1141.21 148.21 1209.21"/><polygon class="cls-9" points="406.21 1166.21 409.16 1174.34 409.16 1166.93 406.21 1166.21"/><polygon class="cls-9" points="393.21 1187.21 409.16 1199.87 409.16 1174.34 406.21 1166.21 393.21 1187.21"/><polygon class="cls-7" points="53.21 1180.21 0.21 1150.3 0.21 1159.49 32.21 1210.21 53.21 1180.21"/><polygon class="cls-10" points="0.21 1159.49 0.21 1207.43 32.21 1210.21 0.21 1159.49"/><polygon class="cls-7" points="123.21 1220.21 148.21 1209.21 104.21 1170.21 123.21 1220.21"/><polygon class="cls-7" points="32.21 1210.21 58.21 1223.21 53.21 1180.21 32.21 1210.21"/><polygon class="cls-16" points="58.21 1223.21 104.21 1170.21 53.21 1180.21 58.21 1223.21"/><polygon class="cls-16" points="58.21 1223.21 123.21 1220.21 104.21 1170.21 58.21 1223.21"/><polygon class="cls-16" points="358.21 1190.21 394.21 1225.21 393.21 1187.21 358.21 1190.21"/><polygon class="cls-6" points="394.21 1225.21 409.16 1217.2 409.16 1199.87 393.21 1187.21 394.21 1225.21"/><polygon class="cls-1" points="227.21 1225.21 255.21 1195.21 212.21 1200.21 227.21 1225.21"/><polygon class="cls-7" points="348.21 1229.21 358.21 1190.21 340.21 1192.21 348.21 1229.21"/><polygon class="cls-16" points="348.21 1229.21 394.21 1225.21 358.21 1190.21 348.21 1229.21"/><polygon class="cls-10" points="318.21 1231.21 340.21 1192.21 282.21 1190.21 318.21 1231.21"/><polygon class="cls-7" points="318.21 1231.21 348.21 1229.21 340.21 1192.21 318.21 1231.21"/><polygon class="cls-8" points="394.21 1225.21 409.16 1233.08 409.16 1217.2 394.21 1225.21"/><polygon class="cls-9" points="379.21 1243.21 394.21 1225.21 348.21 1229.21 379.21 1243.21"/><polygon class="cls-8" points="379.21 1243.21 409.16 1236.16 409.16 1233.08 394.21 1225.21 379.21 1243.21"/><polygon class="cls-7" points="227.21 1225.21 260.21 1244.21 255.21 1195.21 227.21 1225.21"/><polygon class="cls-10" points="260.21 1244.21 282.21 1190.21 255.21 1195.21 260.21 1244.21"/><polygon class="cls-9" points="260.21 1244.21 318.21 1231.21 282.21 1190.21 260.21 1244.21"/><polygon class="cls-7" points="108.21 1245.21 123.21 1220.21 58.21 1223.21 108.21 1245.21"/><polygon class="cls-8" points="367.21 1254.21 379.21 1243.21 348.21 1229.21 367.21 1254.21"/><polygon class="cls-11" points="1.21 1259.21 58.21 1223.21 32.21 1210.21 1.21 1259.21"/><polygon class="cls-3" points="32.21 1210.21 0.21 1207.43 0.21 1257.77 1.21 1259.21 32.21 1210.21"/><polygon class="cls-16" points="337.21 1261.21 348.21 1229.21 318.21 1231.21 337.21 1261.21"/><polygon class="cls-6" points="337.21 1261.21 367.21 1254.21 348.21 1229.21 337.21 1261.21"/><polygon class="cls-16" points="123.21 1220.21 159.21 1263.21 148.21 1209.21 123.21 1220.21"/><polygon class="cls-16" points="108.21 1245.21 159.21 1263.21 123.21 1220.21 108.21 1245.21"/><polygon class="cls-9" points="159.21 1263.21 212.21 1200.21 148.21 1209.21 159.21 1263.21"/><polygon class="cls-9" points="159.21 1263.21 227.21 1225.21 212.21 1200.21 159.21 1263.21"/><polygon class="cls-16" points="305.21 1266.21 337.21 1261.21 318.21 1231.21 305.21 1266.21"/><polygon class="cls-9" points="275.21 1266.21 318.21 1231.21 260.21 1244.21 275.21 1266.21"/><polygon class="cls-16" points="305.21 1266.21 318.21 1231.21 275.21 1266.21 305.21 1266.21"/><polygon class="cls-5" points="0.21 1257.77 0.21 1259.41 1.21 1259.21 0.21 1257.77"/><polygon class="cls-8" points="409.16 1264.26 409.16 1236.16 379.21 1243.21 409.16 1264.26"/><polygon class="cls-6" points="242.21 1271.21 275.21 1266.21 260.21 1244.21 242.21 1271.21"/><polygon class="cls-9" points="242.21 1271.21 260.21 1244.21 227.21 1225.21 242.21 1271.21"/><polygon class="cls-6" points="206.21 1279.21 227.21 1225.21 159.21 1263.21 206.21 1279.21"/><polygon class="cls-12" points="206.21 1279.21 242.21 1271.21 227.21 1225.21 206.21 1279.21"/><polygon class="cls-6" points="373.21 1280.21 379.21 1243.21 367.21 1254.21 373.21 1280.21"/><polygon class="cls-8" points="373.21 1280.21 409.16 1271.02 409.16 1264.26 379.21 1243.21 373.21 1280.21"/><polygon class="cls-8" points="337.21 1261.21 373.21 1280.21 367.21 1254.21 337.21 1261.21"/><polygon class="cls-18" points="53.21 1284.21 108.21 1245.21 58.21 1223.21 53.21 1284.21"/><polygon class="cls-20" points="53.21 1284.21 58.21 1223.21 1.21 1259.21 53.21 1284.21"/><polygon class="cls-15" points="105.21 1285.21 108.21 1245.21 53.21 1284.21 105.21 1285.21"/><polygon class="cls-16" points="122.21 1289.21 159.21 1263.21 108.21 1245.21 122.21 1289.21"/><polygon class="cls-10" points="105.21 1285.21 122.21 1289.21 108.21 1245.21 105.21 1285.21"/><polygon class="cls-13" points="0.21 1259.41 0.21 1260.52 1.21 1259.21 0.21 1259.41"/><polygon class="cls-4" points="1.21 1259.21 0.21 1260.52 0.21 1289.72 53.21 1284.21 1.21 1259.21"/><polygon class="cls-6" points="375.21 1299.21 409.16 1274.37 409.16 1271.02 373.21 1280.21 375.21 1299.21"/><polygon class="cls-6" points="275.21 1266.21 320.21 1309.21 305.21 1266.21 275.21 1266.21"/><polygon class="cls-6" points="320.21 1309.21 373.21 1280.21 337.21 1261.21 320.21 1309.21"/><polygon class="cls-9" points="320.21 1309.21 375.21 1299.21 373.21 1280.21 320.21 1309.21"/><polygon class="cls-9" points="320.21 1309.21 337.21 1261.21 305.21 1266.21 320.21 1309.21"/><polygon class="cls-12" points="224.21 1310.21 242.21 1271.21 206.21 1279.21 224.21 1310.21"/><polygon class="cls-12" points="224.21 1310.21 275.21 1266.21 242.21 1271.21 224.21 1310.21"/><polygon class="cls-6" points="157.21 1313.21 206.21 1279.21 159.21 1263.21 157.21 1313.21"/><polygon class="cls-9" points="157.21 1313.21 159.21 1263.21 122.21 1289.21 157.21 1313.21"/><polygon class="cls-12" points="191.21 1320.21 224.21 1310.21 206.21 1279.21 191.21 1320.21"/><polygon class="cls-6" points="191.21 1320.21 206.21 1279.21 157.21 1313.21 191.21 1320.21"/><polygon class="cls-2" points="55.21 1322.21 105.21 1285.21 53.21 1284.21 55.21 1322.21"/><polygon class="cls-4" points="53.21 1284.21 0.21 1289.72 0.21 1301.33 55.21 1322.21 53.21 1284.21"/><polygon class="cls-16" points="406.21 1323.21 409.16 1307.25 409.16 1274.37 375.21 1299.21 406.21 1323.21"/><polygon class="cls-9" points="409.16 1321.2 409.16 1307.25 406.21 1323.21 409.16 1321.2"/><polygon class="cls-16" points="343.21 1329.21 375.21 1299.21 320.21 1309.21 343.21 1329.21"/><polygon class="cls-19" points="409.16 1324.89 409.16 1321.2 406.21 1323.21 409.16 1324.89"/><polygon class="cls-7" points="363.21 1343.21 406.21 1323.21 375.21 1299.21 363.21 1343.21"/><polygon class="cls-7" points="363.21 1343.21 375.21 1299.21 343.21 1329.21 363.21 1343.21"/><polygon class="cls-7" points="305.21 1344.21 363.21 1343.21 343.21 1329.21 305.21 1344.21"/><polygon class="cls-16" points="305.21 1344.21 343.21 1329.21 320.21 1309.21 305.21 1344.21"/><polygon class="cls-9" points="305.21 1344.21 320.21 1309.21 275.21 1266.21 305.21 1344.21"/><polygon class="cls-12" points="224.21 1310.21 305.21 1344.21 275.21 1266.21 224.21 1310.21"/><polygon class="cls-4" points="0.21 1301.33 0.21 1338.58 55.21 1322.21 0.21 1301.33"/><polygon class="cls-6" points="191.21 1320.21 227.21 1357.21 224.21 1310.21 191.21 1320.21"/><polygon class="cls-7" points="285.21 1362.21 305.21 1344.21 224.21 1310.21 285.21 1362.21"/><polygon class="cls-7" points="227.21 1357.21 285.21 1362.21 224.21 1310.21 227.21 1357.21"/><polygon class="cls-7" points="98.21 1364.21 157.21 1313.21 122.21 1289.21 98.21 1364.21"/><polygon class="cls-10" points="98.21 1364.21 122.21 1289.21 105.21 1285.21 98.21 1364.21"/><polygon class="cls-3" points="98.21 1364.21 105.21 1285.21 55.21 1322.21 98.21 1364.21"/><polygon class="cls-5" points="55.21 1322.21 0.21 1338.58 0.21 1357.02 39.21 1370.21 55.21 1322.21"/><polygon class="cls-3" points="39.21 1370.21 98.21 1364.21 55.21 1322.21 39.21 1370.21"/><polygon class="cls-7" points="406.21 1323.21 409.16 1364.59 409.16 1324.89 406.21 1323.21"/><polygon class="cls-10" points="363.21 1343.21 409.16 1378.41 409.16 1364.59 406.21 1323.21 363.21 1343.21"/><polygon class="cls-7" points="176.21 1394.21 227.21 1357.21 191.21 1320.21 176.21 1394.21"/><polygon class="cls-7" points="176.21 1394.21 191.21 1320.21 157.21 1313.21 176.21 1394.21"/><polygon class="cls-11" points="86.21 1395.21 98.21 1364.21 39.21 1370.21 86.21 1395.21"/><polygon class="cls-1" points="301.21 1395.21 305.21 1344.21 285.21 1362.21 301.21 1395.21"/><polygon class="cls-15" points="17.21 1395.21 86.21 1395.21 39.21 1370.21 17.21 1395.21"/><polygon class="cls-3" points="39.21 1370.21 0.21 1357.02 0.21 1377.48 17.21 1395.21 39.21 1370.21"/><polygon class="cls-7" points="207.21 1395.21 232.21 1393.21 227.21 1357.21 207.21 1395.21"/><polygon class="cls-7" points="207.21 1395.21 227.21 1357.21 176.21 1394.21 207.21 1395.21"/><polygon class="cls-10" points="207.21 1395.21 258.21 1395.21 232.21 1393.21 207.21 1395.21"/><polygon class="cls-15" points="258.21 1395.21 301.21 1395.21 285.21 1362.21 258.21 1395.21"/><polygon class="cls-10" points="258.21 1395.21 285.21 1362.21 227.21 1357.21 258.21 1395.21"/><polygon class="cls-7" points="232.21 1393.21 258.21 1395.21 227.21 1357.21 232.21 1393.21"/><polygon class="cls-7" points="150.21 1395.21 207.21 1395.21 176.21 1394.21 150.21 1395.21"/><polygon class="cls-1" points="86.21 1395.21 150.21 1395.21 98.21 1364.21 86.21 1395.21"/><polygon class="cls-7" points="150.21 1395.21 157.21 1313.21 98.21 1364.21 150.21 1395.21"/><polygon class="cls-7" points="150.21 1395.21 176.21 1394.21 157.21 1313.21 150.21 1395.21"/><polygon class="cls-10" points="356.21 1395.21 363.21 1343.21 305.21 1344.21 356.21 1395.21"/><polygon class="cls-15" points="301.21 1395.21 356.21 1395.21 305.21 1344.21 301.21 1395.21"/><polygon class="cls-15" points="0.21 1377.48 0.21 1395.55 17.21 1395.21 0.21 1377.48"/><polygon class="cls-7" points="409.16 1396.21 409.16 1395.32 387.21 1396.21 409.16 1396.21"/><polygon class="cls-15" points="301.21 1395.21 387.21 1396.21 356.21 1395.21 301.21 1395.21"/><polygon class="cls-19" points="409.16 1395.32 409.16 1379.98 387.21 1396.21 409.16 1395.32"/><polygon class="cls-10" points="387.21 1396.21 409.16 1379.98 409.16 1378.41 363.21 1343.21 387.21 1396.21"/><polygon class="cls-10" points="356.21 1395.21 387.21 1396.21 363.21 1343.21 356.21 1395.21"/><polygon class="cls-4" points="274.76 605.11 284.68 586.78 253.23 586.71 274.76 605.11"/><polygon class="cls-4" points="242.56 593.34 274.76 605.11 253.23 586.71 242.56 593.34"/><polygon class="cls-4" points="242.56 593.34 253.23 586.71 241.05 585.34 242.56 593.34"/><polygon class="cls-4" points="241.05 585.34 253.23 586.71 244.33 574.09 241.05 585.34"/><polygon class="cls-2" points="235.96 550.71 276.05 543.11 249.95 524.64 235.96 550.71"/><polygon class="cls-13" points="253.11 559.53 276.05 543.11 235.96 550.71 253.11 559.53"/><polygon class="cls-3" points="241.64 566.93 253.11 559.53 235.96 550.71 241.64 566.93"/><polygon class="cls-2" points="235.96 550.71 249.95 524.64 220.8 540.75 235.96 550.71"/><polygon class="cls-18" points="220.8 540.75 249.95 524.64 230.56 499.15 220.8 540.75"/><polygon class="cls-2" points="230.56 499.15 249.95 524.64 242.67 498.7 230.56 499.15"/><polygon class="cls-5" points="249.95 524.64 271.77 510.83 242.67 498.7 249.95 524.64"/><polygon class="cls-4" points="249.95 524.64 276.05 543.11 271.77 510.83 249.95 524.64"/><polygon class="cls-2" points="242.67 498.7 271.77 510.83 256.82 496.75 242.67 498.7"/><polygon class="cls-2" points="256.82 496.75 271.77 510.83 265.8 499.81 256.82 496.75"/><polygon class="cls-5" points="256.82 496.75 265.8 499.81 257.31 485.09 256.82 496.75"/><polygon class="cls-2" points="256.82 496.75 257.31 485.09 242.67 498.7 256.82 496.75"/><polygon class="cls-3" points="220.8 540.75 230.56 499.15 207.4 521.8 220.8 540.75"/></svg>