<?xml version="1.0" encoding="utf-8"?>
<!-- Generator: Adobe Illustrator 22.0.0, SVG Export Plug-In . SVG Version: 6.00 Build 0)  -->
<svg version="1.1" id="Ebene_1" xmlns="http://www.w3.org/2000/svg" xmlns:xlink="http://www.w3.org/1999/xlink" x="0px" y="0px"
	 viewBox="0 0 382.3 207.9" style="enable-background:new 0 0 382.3 207.9;" xml:space="preserve">
<style type="text/css">
	.st0{fill:#DAC35B;}
	.st1{fill:#FFFFFF;}
	.st2{clip-path:url(#SVGID_2_);}
</style>
<g>
	<g>
		<polygon class="st0" points="41.2,102.2 40.4,88.9 65.3,100.3 		"/>
	</g>
	<g>
		<path class="st1" d="M41.2,102.7c-0.1,0-0.2,0-0.3-0.1c-0.1-0.1-0.2-0.2-0.2-0.3l-0.8-13.3c0-0.2,0.1-0.3,0.2-0.4
			c0.1-0.1,0.3-0.1,0.5,0l24.9,11.4c0.2,0.1,0.3,0.3,0.3,0.5c0,0.2-0.2,0.4-0.4,0.4L41.2,102.7C41.2,102.7,41.2,102.7,41.2,102.7z
			 M40.9,89.7l0.8,12l21.7-1.7L40.9,89.7z"/>
	</g>
	<g>
		<polygon class="st0" points="37,147.6 75.8,120.3 88.1,199.9 		"/>
	</g>
	<g>
		<path class="st1" d="M88.1,200.4c-0.1,0-0.3-0.1-0.4-0.1l-51.2-52.3c-0.1-0.1-0.2-0.2-0.1-0.4c0-0.1,0.1-0.3,0.2-0.4l38.8-27.3
			c0.1-0.1,0.3-0.1,0.5-0.1c0.2,0.1,0.3,0.2,0.3,0.4l12.4,79.6c0,0.2-0.1,0.4-0.3,0.5C88.3,200.4,88.2,200.4,88.1,200.4z
			 M37.7,147.7l49.7,50.8l-12-77.3L37.7,147.7z"/>
	</g>
	<g>
		<polygon class="st0" points="94.7,122.2 75.8,120.3 88.1,199.9 		"/>
	</g>
	<g>
		<path class="st1" d="M88.1,200.4c-0.2,0-0.5-0.2-0.5-0.4l-12.4-79.6c0-0.2,0-0.3,0.1-0.4c0.1-0.1,0.3-0.2,0.4-0.2l18.9,1.9
			c0.3,0,0.5,0.3,0.4,0.5L88.6,200C88.6,200.2,88.4,200.4,88.1,200.4C88.2,200.4,88.2,200.4,88.1,200.4z M76.4,120.9L88,195.8
			l6.2-73.1L76.4,120.9z"/>
	</g>
	<g>
		<polygon class="st0" points="94.7,122.2 117.4,122.4 88.1,199.9 		"/>
	</g>
	<g>
		<path class="st1" d="M88.1,200.4c0,0-0.1,0-0.1,0c-0.2-0.1-0.4-0.3-0.4-0.5l6.5-77.7c0-0.3,0.2-0.5,0.5-0.5c0,0,0,0,0,0l22.7,0.2
			c0.2,0,0.3,0.1,0.4,0.2c0.1,0.1,0.1,0.3,0.1,0.5l-29.2,77.5C88.5,200.3,88.4,200.4,88.1,200.4z M95.2,122.7l-6.2,73.7l27.7-73.5
			L95.2,122.7z"/>
	</g>
	<g>
		<polygon class="st0" points="130.9,169.7 117.4,122.4 88.1,199.9 		"/>
	</g>
	<g>
		<path class="st1" d="M88.1,200.4c-0.1,0-0.2,0-0.3-0.1c-0.2-0.1-0.2-0.4-0.2-0.6l29.2-77.5c0.1-0.2,0.3-0.3,0.5-0.3
			c0.2,0,0.4,0.2,0.5,0.4l13.6,47.2c0.1,0.2,0,0.4-0.2,0.5l-42.8,30.3C88.3,200.4,88.2,200.4,88.1,200.4z M117.3,124l-28.1,74.6
			l41.2-29.1L117.3,124z"/>
	</g>
	<g>
		<polygon class="st0" points="130.9,169.7 117.4,122.4 130.4,122.6 		"/>
	</g>
	<g>
		<path class="st1" d="M130.9,170.1c-0.2,0-0.4-0.1-0.5-0.4l-13.6-47.2c0-0.2,0-0.3,0.1-0.4c0.1-0.1,0.3-0.2,0.4-0.2l13.1,0.2
			c0.3,0,0.5,0.2,0.5,0.5l0.5,47.1C131.4,169.9,131.3,170.1,130.9,170.1C131,170.1,131,170.1,130.9,170.1z M118,122.9l12.4,43.1
			l-0.5-42.9L118,122.9z"/>
	</g>
	<g>
		<polygon class="st0" points="130.9,169.7 153.4,135.4 130.4,122.6 		"/>
	</g>
	<g>
		<path class="st1" d="M130.9,170.1c0,0-0.1,0-0.1,0c-0.2-0.1-0.4-0.3-0.4-0.5l-0.5-47.1c0-0.2,0.1-0.3,0.2-0.4
			c0.2-0.1,0.3-0.1,0.5,0l23,12.8c0.1,0.1,0.2,0.2,0.2,0.3c0,0.1,0,0.3-0.1,0.4l-22.5,34.2C131.3,170.1,131.1,170.1,130.9,170.1z
			 M131,123.4l0.5,44.6l21.3-32.4L131,123.4z"/>
	</g>
	<g>
		<polygon class="st0" points="153.3,122.5 153.4,135.4 130.4,122.6 		"/>
	</g>
	<g>
		<path class="st1" d="M153.4,135.9c-0.1,0-0.2,0-0.2-0.1l-23-12.8c-0.2-0.1-0.3-0.3-0.2-0.6c0.1-0.2,0.3-0.4,0.5-0.4l22.8-0.1
			c0,0,0,0,0,0c0.3,0,0.5,0.2,0.5,0.5l0.2,12.9c0,0.2-0.1,0.3-0.2,0.4C153.6,135.9,153.5,135.9,153.4,135.9z M132.3,123.1l20.6,11.5
			l-0.1-11.6L132.3,123.1z"/>
	</g>
	<g>
		<polygon class="st0" points="153.3,122.5 153.4,135.4 167,121.7 		"/>
	</g>
	<g>
		<path class="st1" d="M153.4,135.9c-0.1,0-0.1,0-0.2,0c-0.2-0.1-0.3-0.3-0.3-0.5l-0.2-12.9c0-0.3,0.2-0.5,0.5-0.5l13.8-0.8
			c0.2,0,0.4,0.1,0.5,0.3c0.1,0.2,0,0.4-0.1,0.6l-13.6,13.7C153.7,135.8,153.6,135.9,153.4,135.9z M153.8,123l0.1,11.3l11.8-11.9
			L153.8,123z"/>
	</g>
	<g>
		<polygon class="st0" points="190.1,122.6 153.4,135.4 167,121.7 		"/>
	</g>
	<g>
		<path class="st1" d="M153.4,135.9c-0.2,0-0.3-0.1-0.4-0.2c-0.1-0.2-0.1-0.5,0.1-0.6l13.6-13.7c0.1-0.1,0.2-0.2,0.4-0.1l23.1,0.8
			c0.2,0,0.4,0.2,0.5,0.4c0,0.2-0.1,0.5-0.3,0.5l-36.7,12.8C153.6,135.9,153.5,135.9,153.4,135.9z M167.2,122.2l-11.9,12l32.1-11.3
			L167.2,122.2z"/>
	</g>
	<g>
		<polygon class="st0" points="190.1,122.6 189.8,103.7 206.3,116.5 		"/>
	</g>
	<g>
		<path class="st1" d="M190.1,123.1c-0.1,0-0.2,0-0.3-0.1c-0.1-0.1-0.2-0.2-0.2-0.4l-0.3-18.8c0-0.2,0.1-0.4,0.3-0.5
			c0.2-0.1,0.4-0.1,0.5,0.1l16.5,12.8c0.1,0.1,0.2,0.3,0.2,0.5c0,0.2-0.1,0.3-0.3,0.4l-16.2,6.1
			C190.2,123.1,190.2,123.1,190.1,123.1z M190.3,104.8l0.3,17.1l14.7-5.5L190.3,104.8z"/>
	</g>
	<g>
		<polygon class="st0" points="195.9,94.2 189.8,103.7 206.3,116.5 		"/>
	</g>
	<g>
		<path class="st1" d="M206.3,117c-0.1,0-0.2,0-0.3-0.1l-16.5-12.8c-0.2-0.2-0.3-0.4-0.1-0.7l6.2-9.5c0.1-0.2,0.3-0.2,0.5-0.2
			c0.2,0,0.3,0.1,0.4,0.3l10.3,22.2c0.1,0.2,0,0.5-0.1,0.6C206.5,116.9,206.4,117,206.3,117z M190.4,103.6l14.5,11.2l-9.1-19.6
			L190.4,103.6z"/>
	</g>
	<g>
		<polygon class="st0" points="244.4,102 276.4,47.7 249.8,120.5 		"/>
	</g>
	<g>
		<path class="st1" d="M249.8,121C249.8,121,249.8,121,249.8,121c-0.2,0-0.4-0.2-0.5-0.4l-5.3-18.5c0-0.1,0-0.3,0-0.4l31.9-54.2
			c0.1-0.2,0.4-0.3,0.6-0.2c0.2,0.1,0.3,0.4,0.3,0.6l-26.6,72.8C250.2,120.9,250,121,249.8,121z M245,102.1l4.9,16.8L274,52.7
			L245,102.1z"/>
	</g>
	<g>
		<polygon class="st0" points="244.4,102 276.4,47.7 244.4,75.6 		"/>
	</g>
	<g>
		<path class="st1" d="M244.4,102.5c0,0-0.1,0-0.1,0c-0.2-0.1-0.4-0.3-0.4-0.5l-0.1-26.4c0-0.1,0.1-0.3,0.2-0.4l32-27.8
			c0.2-0.2,0.5-0.2,0.6,0c0.2,0.2,0.2,0.4,0.1,0.6l-31.9,54.2C244.8,102.4,244.6,102.5,244.4,102.5z M244.9,75.8l0.1,24.4l29.5-50.1
			L244.9,75.8z"/>
	</g>
	<g>
		<polygon class="st0" points="249.2,57.7 276.4,47.7 244.4,75.6 		"/>
	</g>
	<g>
		<path class="st1" d="M244.4,76.1c-0.1,0-0.2,0-0.3-0.1c-0.2-0.1-0.3-0.3-0.2-0.5l4.8-17.9c0-0.2,0.2-0.3,0.3-0.3l27.2-9.9
			c0.2-0.1,0.5,0,0.6,0.2s0.1,0.5-0.1,0.6l-32,27.8C244.6,76,244.5,76.1,244.4,76.1z M249.6,58l-4.3,16.1l28.7-25L249.6,58z"/>
	</g>
	<g>
		<polygon class="st0" points="249.2,57.7 276.4,47.7 234.9,25.3 		"/>
	</g>
	<g>
		<path class="st1" d="M249.2,58.1c-0.2,0-0.4-0.1-0.5-0.3l-14.2-32.3c-0.1-0.2,0-0.4,0.1-0.6c0.2-0.1,0.4-0.2,0.6-0.1l41.4,22.4
			c0.2,0.1,0.3,0.3,0.3,0.5c0,0.2-0.1,0.4-0.3,0.4l-27.2,9.9C249.3,58.1,249.3,58.1,249.2,58.1z M236,26.4L249.5,57l25.7-9.4
			L236,26.4z"/>
	</g>
	<g>
		<polygon class="st0" points="249.2,57.7 224.2,54.4 234.9,25.3 		"/>
	</g>
	<g>
		<path class="st1" d="M249.2,58.1C249.2,58.1,249.2,58.1,249.2,58.1l-25.1-3.3c-0.1,0-0.3-0.1-0.4-0.2c-0.1-0.1-0.1-0.3,0-0.4
			l10.8-29.1c0.1-0.2,0.2-0.3,0.5-0.3c0.2,0,0.4,0.1,0.5,0.3l14.2,32.3c0.1,0.2,0.1,0.4-0.1,0.5C249.5,58.1,249.4,58.1,249.2,58.1z
			 M224.9,54l23.5,3.1L235,26.6L224.9,54z"/>
	</g>
	<g>
		<polygon class="st0" points="196.3,4.5 224.2,54.4 234.9,25.3 		"/>
	</g>
	<g>
		<path class="st1" d="M224.2,54.9c-0.2,0-0.3-0.1-0.4-0.3L195.8,4.7c-0.1-0.2-0.1-0.4,0.1-0.6c0.2-0.2,0.4-0.2,0.6-0.1l38.7,20.8
			c0.2,0.1,0.3,0.4,0.2,0.6l-10.8,29.1C224.6,54.8,224.4,54.9,224.2,54.9C224.2,54.9,224.2,54.9,224.2,54.9z M197.5,5.7l26.6,47.5
			l10.2-27.7L197.5,5.7z"/>
	</g>
	<g>
		<polygon class="st0" points="196.3,4.5 224.2,54.4 200.1,69.8 		"/>
	</g>
	<g>
		<path class="st1" d="M200.1,70.3c-0.1,0-0.2,0-0.2-0.1c-0.2-0.1-0.3-0.2-0.3-0.4l-3.8-65.3c0-0.2,0.1-0.4,0.4-0.5
			c0.2-0.1,0.5,0,0.6,0.2l27.9,49.9c0.1,0.2,0.1,0.5-0.2,0.7l-24.1,15.4C200.3,70.3,200.2,70.3,200.1,70.3z M196.9,6.6l3.7,62.3
			l23-14.7L196.9,6.6z"/>
	</g>
	<g>
		<polygon class="st0" points="196.3,4.5 187.5,67.7 200.1,69.8 		"/>
	</g>
	<g>
		<path class="st1" d="M200.1,70.3C200.1,70.3,200.1,70.3,200.1,70.3l-12.7-2.1c-0.3,0-0.4-0.3-0.4-0.6l8.8-63.2
			c0-0.3,0.3-0.4,0.5-0.4c0.3,0,0.5,0.2,0.5,0.5l3.8,65.3c0,0.2-0.1,0.3-0.2,0.4C200.4,70.3,200.2,70.3,200.1,70.3z M188.1,67.3
			l11.5,1.9l-3.5-59.7L188.1,67.3z"/>
	</g>
	<g>
		<polygon class="st0" points="196.3,4.5 187.5,67.7 172.4,54.4 		"/>
	</g>
	<g>
		<path class="st1" d="M187.5,68.2c-0.1,0-0.2,0-0.3-0.1l-15.1-13.3c-0.2-0.1-0.2-0.4-0.1-0.6l23.8-49.9c0.1-0.2,0.4-0.3,0.6-0.3
			c0.2,0.1,0.4,0.3,0.3,0.5L188,67.8c0,0.2-0.1,0.3-0.3,0.4C187.6,68.2,187.6,68.2,187.5,68.2z M173.1,54.3l14.1,12.5l8.2-59.2
			L173.1,54.3z"/>
	</g>
	<g>
		<polygon class="st0" points="196.3,4.5 136.3,44.8 172.4,54.4 		"/>
	</g>
	<g>
		<path class="st1" d="M172.4,54.9c0,0-0.1,0-0.1,0l-36.2-9.6c-0.2,0-0.3-0.2-0.4-0.4c0-0.2,0.1-0.4,0.2-0.5l60-40.3
			c0.2-0.1,0.4-0.1,0.6,0c0.2,0.1,0.2,0.4,0.1,0.6l-23.8,49.9C172.8,54.8,172.6,54.9,172.4,54.9z M137.5,44.6l34.7,9.2l22.9-47.9
			L137.5,44.6z"/>
	</g>
	<g>
		<polygon class="st0" points="148.8,62.3 136.3,44.8 172.4,54.4 		"/>
	</g>
	<g>
		<path class="st1" d="M148.8,62.8c-0.2,0-0.3-0.1-0.4-0.2l-12.5-17.5c-0.1-0.2-0.1-0.4,0-0.6c0.1-0.2,0.3-0.3,0.5-0.2l36.2,9.6
			c0.2,0.1,0.4,0.2,0.4,0.5c0,0.2-0.1,0.4-0.3,0.5l-23.7,7.9C148.9,62.8,148.8,62.8,148.8,62.8z M137.5,45.7L149,61.7l21.7-7.3
			L137.5,45.7z"/>
	</g>
	<g>
		<polygon class="st0" points="167,121.7 153.3,122.5 166.9,94.2 		"/>
	</g>
	<g>
		<path class="st1" d="M153.3,123c-0.2,0-0.3-0.1-0.4-0.2c-0.1-0.1-0.1-0.3,0-0.5L166.5,94c0.1-0.2,0.3-0.3,0.6-0.3
			c0.2,0.1,0.4,0.3,0.4,0.5l0.1,27.5c0,0.3-0.2,0.5-0.5,0.5L153.3,123C153.3,123,153.3,123,153.3,123z M166.5,96.4l-12.4,25.6
			l12.4-0.7L166.5,96.4z"/>
	</g>
	<g>
		<polygon class="st0" points="152.8,75.5 153.3,122.5 166.9,94.2 		"/>
	</g>
	<g>
		<path class="st1" d="M153.3,123c0,0-0.1,0-0.1,0c-0.2-0.1-0.4-0.2-0.4-0.5l-0.5-47c0-0.2,0.1-0.4,0.3-0.5c0.2-0.1,0.4,0,0.6,0.2
			l14.2,18.8c0.1,0.1,0.1,0.3,0.1,0.5l-13.7,28.2C153.6,122.9,153.5,123,153.3,123z M153.3,77l0.5,43.4l12.6-26.1L153.3,77z"/>
	</g>
	<g>
		<polygon class="st0" points="114.9,59.4 136.3,44.8 148.8,62.3 		"/>
	</g>
	<g>
		<path class="st1" d="M148.8,62.8C148.8,62.8,148.8,62.8,148.8,62.8l-33.9-2.9c-0.2,0-0.4-0.2-0.4-0.4c-0.1-0.2,0-0.4,0.2-0.5
			L136,44.4c0.2-0.2,0.5-0.1,0.7,0.1L149.2,62c0.1,0.2,0.1,0.4,0,0.5C149.1,62.7,149,62.8,148.8,62.8z M116.4,59l31.4,2.7
			l-11.6-16.2L116.4,59z"/>
	</g>
	<g>
		<polygon class="st0" points="114.9,59.4 136.3,44.8 94.3,53.2 		"/>
	</g>
	<g>
		<path class="st1" d="M114.9,59.9c0,0-0.1,0-0.1,0l-20.7-6.2c-0.2-0.1-0.4-0.3-0.4-0.5c0-0.2,0.2-0.4,0.4-0.5l42-8.4
			c0.2,0,0.5,0.1,0.6,0.3c0.1,0.2,0,0.5-0.2,0.6l-21.3,14.6C115.1,59.9,115,59.9,114.9,59.9z M96.3,53.3l18.5,5.5L134,45.8
			L96.3,53.3z"/>
	</g>
	<g>
		<polygon class="st0" points="72.4,16.7 136.3,44.8 94.3,53.2 		"/>
	</g>
	<g>
		<path class="st1" d="M94.3,53.7c-0.2,0-0.3-0.1-0.4-0.2L71.9,16.9c-0.1-0.2-0.1-0.4,0.1-0.6c0.1-0.2,0.4-0.2,0.6-0.1l63.9,28.2
			c0.2,0.1,0.3,0.3,0.3,0.5c0,0.2-0.2,0.4-0.4,0.4L94.3,53.7C94.3,53.7,94.3,53.7,94.3,53.7z M73.6,17.7l20.9,34.9l40.1-8L73.6,17.7
			z"/>
	</g>
	<g>
		<polygon class="st0" points="72.4,16.7 85.9,58.1 94.3,53.2 		"/>
	</g>
	<g>
		<path class="st1" d="M85.9,58.6c-0.1,0-0.1,0-0.2,0c-0.1-0.1-0.2-0.2-0.3-0.3L71.9,16.8c-0.1-0.2,0-0.5,0.3-0.6
			c0.2-0.1,0.5,0,0.6,0.2L94.7,53c0.1,0.1,0.1,0.3,0.1,0.4s-0.1,0.2-0.2,0.3l-8.3,4.8C86.1,58.5,86,58.6,85.9,58.6z M74.2,20.7
			l12,36.6l7.4-4.3L74.2,20.7z"/>
	</g>
	<g>
		<polygon class="st0" points="72.4,16.7 85.9,58.1 63.4,54.5 		"/>
	</g>
	<g>
		<path class="st1" d="M85.9,58.6C85.9,58.6,85.9,58.6,85.9,58.6L63.3,55c-0.1,0-0.3-0.1-0.3-0.2s-0.1-0.3-0.1-0.4l9-37.8
			c0.1-0.2,0.2-0.4,0.5-0.4c0.2,0,0.4,0.1,0.5,0.3l13.6,41.4c0.1,0.2,0,0.3-0.1,0.5C86.2,58.5,86.1,58.6,85.9,58.6z M64,54.1
			l21.3,3.4l-12.8-39L64,54.1z"/>
	</g>
	<g>
		<polygon class="st0" points="80.8,76.1 85.9,58.1 94.7,68.2 		"/>
	</g>
	<g>
		<path class="st1" d="M80.8,76.6c-0.1,0-0.2,0-0.3-0.1c-0.2-0.1-0.2-0.3-0.2-0.5l5.2-18c0.1-0.2,0.2-0.3,0.4-0.3
			c0.2,0,0.4,0,0.5,0.2l8.8,10.2c0.1,0.1,0.1,0.3,0.1,0.4c0,0.1-0.1,0.3-0.2,0.3L81,76.5C80.9,76.5,80.9,76.6,80.8,76.6z M86.2,59.1
			l-4.6,16l12.3-6.9L86.2,59.1z"/>
	</g>
	<g>
		<polygon class="st0" points="94.3,53.2 85.9,58.1 94.7,68.2 		"/>
	</g>
	<g>
		<path class="st1" d="M94.7,68.7c-0.1,0-0.3-0.1-0.4-0.2l-8.8-10.2c-0.1-0.1-0.1-0.3-0.1-0.4c0-0.1,0.1-0.3,0.2-0.3l8.3-4.8
			c0.2-0.1,0.3-0.1,0.5,0c0.2,0.1,0.2,0.2,0.3,0.4l0.4,15c0,0.2-0.1,0.4-0.3,0.5C94.8,68.7,94.8,68.7,94.7,68.7z M86.7,58.2l7.4,8.7
			l-0.4-12.8L86.7,58.2z"/>
	</g>
	<g>
		<polygon class="st0" points="125.5,74.7 117,95.6 130.7,99.2 		"/>
	</g>
	<g>
		<path class="st1" d="M130.7,99.6c0,0-0.1,0-0.1,0L116.9,96c-0.1,0-0.3-0.1-0.3-0.3c-0.1-0.1-0.1-0.3,0-0.4l8.5-20.8
			c0.1-0.2,0.3-0.3,0.5-0.3c0.2,0,0.4,0.2,0.4,0.4l5.2,24.4c0,0.2,0,0.3-0.1,0.5C130.9,99.6,130.8,99.6,130.7,99.6z M117.7,95.2
			l12.3,3.2l-4.7-22.1L117.7,95.2z"/>
	</g>
	<g>
		<polygon class="st0" points="117.2,109.4 117,95.6 130.7,99.2 		"/>
	</g>
	<g>
		<path class="st1" d="M117.2,109.9c-0.1,0-0.1,0-0.2-0.1c-0.2-0.1-0.3-0.3-0.3-0.4l-0.1-13.8c0-0.2,0.1-0.3,0.2-0.4
			c0.1-0.1,0.3-0.1,0.4-0.1l13.7,3.6c0.2,0,0.3,0.2,0.4,0.4c0,0.2,0,0.4-0.2,0.5l-13.5,10.2C117.4,109.8,117.3,109.9,117.2,109.9z
			 M117.5,96.2l0.1,12.2l11.9-9L117.5,96.2z"/>
	</g>
	<g>
		<polygon class="st0" points="80.8,76.1 94.2,83.3 94.7,68.2 		"/>
	</g>
	<g>
		<path class="st1" d="M94.2,83.8c-0.1,0-0.2,0-0.2-0.1l-13.4-7.2c-0.2-0.1-0.3-0.3-0.3-0.4s0.1-0.3,0.3-0.4l13.9-7.8
			c0.2-0.1,0.3-0.1,0.5,0c0.2,0.1,0.2,0.3,0.2,0.4l-0.5,15.1c0,0.2-0.1,0.3-0.2,0.4C94.4,83.8,94.3,83.8,94.2,83.8z M81.8,76.1
			l11.9,6.4l0.4-13.4L81.8,76.1z"/>
	</g>
	<g>
		<polygon class="st0" points="38.4,68 40.4,88.9 5.2,87.2 		"/>
	</g>
	<g>
		<path class="st1" d="M40.4,89.4C40.4,89.4,40.3,89.4,40.4,89.4L5.2,87.6c-0.2,0-0.4-0.2-0.5-0.4c-0.1-0.2,0-0.4,0.2-0.5l33.2-19.2
			c0.1-0.1,0.3-0.1,0.5,0c0.1,0.1,0.2,0.2,0.3,0.4l1.9,20.9c0,0.1,0,0.3-0.1,0.4C40.6,89.3,40.5,89.4,40.4,89.4z M6.9,86.7l32.9,1.6
			L38,68.8L6.9,86.7z"/>
	</g>
	<g>
		<polygon class="st0" points="41.2,102.2 40.4,88.9 5.2,87.2 		"/>
	</g>
	<g>
		<path class="st1" d="M41.2,102.7c-0.1,0-0.1,0-0.2,0L5,87.6c-0.2-0.1-0.3-0.3-0.3-0.6c0.1-0.2,0.3-0.4,0.5-0.4l35.2,1.8
			c0.3,0,0.5,0.2,0.5,0.5l0.8,13.3c0,0.2-0.1,0.3-0.2,0.4C41.4,102.7,41.3,102.7,41.2,102.7z M8,87.8l32.7,13.7l-0.8-12.1L8,87.8z"
			/>
	</g>
	<g>
		<polygon class="st0" points="41.2,102.2 35.9,120.2 5.2,87.2 		"/>
	</g>
	<g>
		<path class="st1" d="M35.9,120.7c-0.1,0-0.3-0.1-0.4-0.2L4.8,87.5c-0.2-0.2-0.2-0.4,0-0.6c0.1-0.2,0.4-0.3,0.6-0.2l36,15.1
			c0.2,0.1,0.4,0.4,0.3,0.6l-5.2,18c0,0.2-0.2,0.3-0.4,0.3C36,120.7,36,120.7,35.9,120.7z M7.1,88.5l28.6,30.8l4.9-16.7L7.1,88.5z"
			/>
	</g>
	<g>
		<polygon class="st0" points="86.9,92.2 75.8,120.3 94.7,122.2 		"/>
	</g>
	<g>
		<path class="st1" d="M94.7,122.7C94.7,122.7,94.7,122.7,94.7,122.7l-19-1.9c-0.2,0-0.3-0.1-0.4-0.2c-0.1-0.1-0.1-0.3,0-0.4
			L86.4,92c0.1-0.2,0.3-0.3,0.5-0.3c0.2,0,0.4,0.2,0.5,0.4l7.8,30.1c0,0.2,0,0.3-0.1,0.4C95,122.7,94.8,122.7,94.7,122.7z
			 M76.5,119.9l17.6,1.8l-7.3-27.9L76.5,119.9z"/>
	</g>
	<g>
		<polygon class="st0" points="86.9,92.2 94.2,83.3 94.7,122.2 		"/>
	</g>
	<g>
		<path class="st1" d="M94.7,122.7c-0.2,0-0.4-0.2-0.5-0.4l-7.8-30.1c0-0.2,0-0.3,0.1-0.4l7.3-8.8c0.1-0.2,0.4-0.2,0.5-0.2
			c0.2,0.1,0.3,0.3,0.3,0.5l0.5,38.9C95.2,122.5,95,122.7,94.7,122.7C94.7,122.7,94.7,122.7,94.7,122.7z M87.4,92.3l6.7,25.9
			l-0.4-33.5L87.4,92.3z"/>
	</g>
	<g>
		<polygon class="st0" points="86.9,92.2 94.2,83.3 80.8,76.1 		"/>
	</g>
	<g>
		<path class="st1" d="M86.9,92.6C86.8,92.6,86.8,92.6,86.9,92.6c-0.3,0-0.4-0.2-0.5-0.3l-6.1-16.1c-0.1-0.2,0-0.4,0.1-0.5
			c0.2-0.1,0.4-0.2,0.6-0.1l13.4,7.2c0.1,0.1,0.2,0.2,0.3,0.3s0,0.3-0.1,0.4l-7.3,8.8C87.1,92.6,87,92.6,86.9,92.6z M81.7,77.1
			l5.3,14l6.4-7.7L81.7,77.1z"/>
	</g>
	<g>
		<polygon class="st0" points="37,147.6 35.9,120.2 49.7,124 		"/>
	</g>
	<g>
		<path class="st1" d="M37,148.1c0,0-0.1,0-0.1,0c-0.2-0.1-0.4-0.2-0.4-0.5l-1-27.4c0-0.2,0.1-0.3,0.2-0.4c0.1-0.1,0.3-0.1,0.4-0.1
			l13.7,3.8c0.1,0,0.3,0.1,0.3,0.3s0.1,0.3,0,0.4l-12.7,23.6C37.3,148,37.1,148.1,37,148.1z M36.5,120.9l0.9,24.9L49,124.3
			L36.5,120.9z"/>
	</g>
	<g>
		<polygon class="st0" points="37,147.6 75.8,120.3 49.7,124 		"/>
	</g>
	<g>
		<path class="st1" d="M37,148.1c-0.1,0-0.2,0-0.3-0.1c-0.2-0.2-0.2-0.4-0.1-0.6l12.7-23.6c0.1-0.1,0.2-0.2,0.4-0.3l26.1-3.7
			c0.2,0,0.4,0.1,0.5,0.3c0.1,0.2,0,0.5-0.2,0.6L37.2,148C37.2,148.1,37.1,148.1,37,148.1z M50,124.4L38.4,146l35.4-24.9L50,124.4z"
			/>
	</g>
	<g>
		<polygon class="st0" points="117.2,109.4 130.4,122.6 130.7,99.2 		"/>
	</g>
	<g>
		<path class="st1" d="M130.4,123.1c-0.1,0-0.3-0.1-0.3-0.1l-13.3-13.2c-0.1-0.1-0.2-0.2-0.1-0.4c0-0.1,0.1-0.3,0.2-0.4l13.5-10.2
			c0.2-0.1,0.4-0.1,0.5,0c0.2,0.1,0.3,0.3,0.3,0.4l-0.2,23.4c0,0.2-0.1,0.4-0.3,0.5C130.6,123.1,130.5,123.1,130.4,123.1z
			 M117.9,109.4l12.1,12l0.2-21.2L117.9,109.4z"/>
	</g>
	<g>
		<polygon class="st0" points="117.2,109.4 130.4,122.6 117.4,122.4 		"/>
	</g>
	<g>
		<path class="st1" d="M130.4,123.1C130.4,123.1,130.4,123.1,130.4,123.1l-13.1-0.2c-0.3,0-0.5-0.2-0.5-0.5l-0.2-13
			c0-0.2,0.1-0.4,0.3-0.5c0.2-0.1,0.4,0,0.5,0.1l13.3,13.2c0.1,0.1,0.2,0.4,0.1,0.5C130.8,122.9,130.6,123.1,130.4,123.1z
			 M117.9,121.9l11.4,0.1l-11.6-11.5L117.9,121.9z"/>
	</g>
	<g>
		<polygon class="st0" points="195.9,94.2 189.8,103.7 187.5,67.7 		"/>
	</g>
	<g>
		<path class="st1" d="M189.8,104.2c0,0-0.1,0-0.1,0c-0.2-0.1-0.4-0.2-0.4-0.4l-2.2-36c0-0.2,0.2-0.5,0.4-0.5c0.2,0,0.5,0.1,0.6,0.3
			l8.4,26.5c0,0.1,0,0.3-0.1,0.4l-6.2,9.5C190.1,104.1,189.9,104.2,189.8,104.2z M188.3,71.7l1.9,30.5l5.2-8L188.3,71.7z"/>
	</g>
	<g>
		<polygon class="st0" points="195.9,94.2 200.1,69.8 187.5,67.7 		"/>
	</g>
	<g>
		<path class="st1" d="M195.9,94.7c-0.2,0-0.4-0.1-0.5-0.3l-8.4-26.5c-0.1-0.2,0-0.3,0.1-0.5c0.1-0.1,0.3-0.2,0.5-0.2l12.6,2.1
			c0.1,0,0.2,0.1,0.3,0.2c0.1,0.1,0.1,0.2,0.1,0.4l-4.2,24.4C196.4,94.5,196.2,94.7,195.9,94.7C196,94.7,196,94.7,195.9,94.7z
			 M188.2,68.4l7.6,23.8l3.7-21.9L188.2,68.4z"/>
	</g>
	<g>
		<polygon class="st0" points="244.4,102 244.4,75.6 222.1,77.4 		"/>
	</g>
	<g>
		<path class="st1" d="M244.4,102.5c-0.1,0-0.3-0.1-0.4-0.2l-22.3-24.6c-0.1-0.1-0.2-0.3-0.1-0.5s0.2-0.3,0.4-0.3l22.2-1.8
			c0.1,0,0.3,0,0.4,0.1c0.1,0.1,0.2,0.2,0.2,0.4l0.1,26.4c0,0.2-0.1,0.4-0.3,0.5C244.6,102.5,244.5,102.5,244.4,102.5z M223.2,77.8
			l20.8,22.9l-0.1-24.6L223.2,77.8z"/>
	</g>
	<g>
		<polygon class="st0" points="244.4,102 219.7,95.6 222.1,77.4 		"/>
	</g>
	<g>
		<path class="st1" d="M244.4,102.5c0,0-0.1,0-0.1,0L219.6,96c-0.2-0.1-0.4-0.3-0.4-0.5l2.4-18.2c0-0.2,0.2-0.4,0.3-0.4
			c0.2-0.1,0.4,0,0.5,0.1l22.3,24.6c0.1,0.2,0.2,0.4,0.1,0.6C244.8,102.4,244.6,102.5,244.4,102.5z M220.2,95.2l22.7,5.9l-20.5-22.6
			L220.2,95.2z"/>
	</g>
	<g>
		<polygon class="st0" points="86.9,92.2 59.9,75 80.8,76.1 		"/>
	</g>
	<g>
		<path class="st1" d="M86.9,92.6c-0.1,0-0.2,0-0.3-0.1L59.7,75.4c-0.2-0.1-0.3-0.4-0.2-0.6c0.1-0.2,0.3-0.4,0.5-0.3l20.8,1.1
			c0.2,0,0.4,0.1,0.4,0.3L87.3,92c0.1,0.2,0,0.4-0.2,0.6C87.1,92.6,87,92.6,86.9,92.6z M61.8,75.6l24.1,15.4l-5.4-14.4L61.8,75.6z"
			/>
	</g>
	<g>
		<polygon class="st1" points="190.1,122.6 189.8,103.7 167,121.7 		"/>
	</g>
	<g>
		<path class="st0" d="M190.1,123.1C190.1,123.1,190.1,123.1,190.1,123.1l-23.1-0.8c-0.2,0-0.4-0.2-0.5-0.4c-0.1-0.2,0-0.4,0.2-0.6
			l22.8-18c0.2-0.1,0.4-0.2,0.6-0.1c0.2,0.1,0.3,0.3,0.3,0.5l0.3,18.8c0,0.1-0.1,0.3-0.2,0.4C190.4,123,190.3,123.1,190.1,123.1z
			 M168.5,121.3l21.1,0.8l-0.3-17.2L168.5,121.3z"/>
	</g>
	<g>
		<polygon class="st1" points="195.9,94.2 219.7,95.6 206.3,116.5 		"/>
	</g>
	<g>
		<path class="st0" d="M206.3,117C206.3,117,206.3,117,206.3,117c-0.2,0-0.4-0.1-0.5-0.3l-10.3-22.2c-0.1-0.2-0.1-0.4,0-0.5
			c0.1-0.2,0.3-0.2,0.5-0.2l23.8,1.3c0.2,0,0.4,0.1,0.4,0.3s0.1,0.4,0,0.5l-13.4,20.9C206.6,116.9,206.5,117,206.3,117z M196.8,94.8
			l9.6,20.6L218.8,96L196.8,94.8z"/>
	</g>
	<g>
		<polygon class="st1" points="244.4,102 219.7,95.6 206.3,116.5 		"/>
	</g>
	<g>
		<path class="st0" d="M206.3,117c-0.2,0-0.3-0.1-0.4-0.2c-0.1-0.2-0.2-0.4,0-0.6l13.4-20.9c0.1-0.2,0.4-0.3,0.6-0.2l24.8,6.4
			c0.2,0.1,0.4,0.3,0.4,0.5c0,0.2-0.1,0.4-0.3,0.5L206.5,117C206.4,117,206.3,117,206.3,117z M219.9,96.2l-12.3,19.2l35.1-13.3
			L219.9,96.2z"/>
	</g>
	<g>
		<polygon class="st1" points="244.4,102 231.7,123.9 206.3,116.5 		"/>
	</g>
	<g>
		<path class="st0" d="M231.7,124.4c0,0-0.1,0-0.1,0l-25.4-7.4c-0.2-0.1-0.4-0.3-0.4-0.5c0-0.2,0.1-0.4,0.3-0.5l38.2-14.5
			c0.2-0.1,0.4,0,0.6,0.2c0.1,0.2,0.2,0.4,0.1,0.6l-12.8,21.9C232.1,124.3,231.9,124.4,231.7,124.4z M208,116.4l23.5,6.9l11.8-20.3
			L208,116.4z"/>
	</g>
	<g>
		<polygon class="st1" points="244.4,102 231.7,123.9 249.8,120.5 		"/>
	</g>
	<g>
		<path class="st0" d="M231.7,124.4c-0.2,0-0.3-0.1-0.4-0.2c-0.1-0.2-0.1-0.4,0-0.6l12.8-21.9c0.1-0.2,0.3-0.3,0.5-0.3
			c0.2,0,0.4,0.2,0.4,0.4l5.3,18.5c0,0.1,0,0.3-0.1,0.4c-0.1,0.1-0.2,0.2-0.4,0.2L231.7,124.4C231.8,124.4,231.7,124.4,231.7,124.4z
			 M244.3,103.3l-11.5,19.8l16.4-3.1L244.3,103.3z"/>
	</g>
	<g>
		<polygon class="st1" points="148.8,62.3 152.8,75.5 172.4,54.4 		"/>
	</g>
	<g>
		<path class="st0" d="M152.8,76c0,0-0.1,0-0.1,0c-0.2,0-0.3-0.2-0.4-0.4l-4-13.2c-0.1-0.3,0.1-0.6,0.3-0.7l23.7-7.9
			c0.2-0.1,0.5,0,0.6,0.2c0.1,0.2,0.1,0.5-0.1,0.6l-19.7,21.1C153.1,76,152.9,76,152.8,76z M149.4,62.7l3.6,11.8l17.6-18.9
			L149.4,62.7z"/>
	</g>
	<g>
		<polygon class="st1" points="187.5,67.7 152.8,75.5 172.4,54.4 		"/>
	</g>
	<g>
		<path class="st0" d="M152.8,76c-0.2,0-0.4-0.1-0.5-0.3c-0.1-0.2-0.1-0.5,0.1-0.6L172.1,54c0.2-0.2,0.5-0.2,0.7,0l15.1,13.3
			c0.1,0.1,0.2,0.3,0.2,0.5c0,0.2-0.2,0.3-0.4,0.4L152.9,76C152.9,76,152.8,76,152.8,76z M172.5,55.1l-18.1,19.4l32.1-7.1
			L172.5,55.1z"/>
	</g>
	<g>
		<polygon class="st1" points="187.5,67.7 152.8,75.5 166.9,94.2 		"/>
	</g>
	<g>
		<path class="st0" d="M166.9,94.8c-0.1,0-0.3-0.1-0.4-0.2l-14.2-18.8c-0.1-0.1-0.1-0.3-0.1-0.5c0.1-0.2,0.2-0.3,0.4-0.3l34.8-7.8
			c0.2-0.1,0.4,0,0.6,0.2c0.1,0.2,0.1,0.4,0,0.6l-20.6,26.5C167.3,94.7,167.1,94.8,166.9,94.8z M153.7,75.8L167,93.4l19.3-24.8
			L153.7,75.8z"/>
	</g>
	<g>
		<polygon class="st1" points="187.5,67.7 189.8,103.7 166.9,94.2 		"/>
	</g>
	<g>
		<path class="st0" d="M189.8,104.3c-0.1,0-0.1,0-0.2,0l-22.8-9.5c-0.2-0.1-0.3-0.2-0.3-0.4c0-0.2,0-0.3,0.1-0.5l20.6-26.5
			c0.1-0.2,0.4-0.2,0.6-0.2c0.2,0.1,0.4,0.3,0.4,0.5l2.2,36c0,0.2-0.1,0.4-0.2,0.5C190,104.2,189.9,104.3,189.8,104.3z M167.8,94
			l21.4,8.9l-2.1-33.7L167.8,94z"/>
	</g>
	<g>
		<polygon class="st1" points="167,121.7 189.8,103.7 166.9,94.2 		"/>
	</g>
	<g>
		<path class="st0" d="M167,122.3c-0.1,0-0.2,0-0.2-0.1c-0.2-0.1-0.3-0.3-0.3-0.5l-0.1-27.5c0-0.2,0.1-0.3,0.2-0.4
			c0.1-0.1,0.3-0.1,0.5,0l22.8,9.5c0.2,0.1,0.3,0.2,0.3,0.4s0,0.4-0.2,0.5l-22.8,18C167.3,122.2,167.1,122.3,167,122.3z M167.5,95
			l0.1,25.6l21.2-16.8L167.5,95z"/>
	</g>
	<g>
		<polygon class="st1" points="152.8,75.5 153.3,122.5 130.7,99.2 		"/>
	</g>
	<g>
		<path class="st0" d="M153.3,123c-0.1,0-0.3-0.1-0.4-0.2l-22.6-23.3c-0.2-0.2-0.2-0.5,0-0.7l22.1-23.7c0.1-0.2,0.4-0.2,0.6-0.1
			c0.2,0.1,0.3,0.3,0.3,0.5l0.5,47c0,0.2-0.1,0.4-0.3,0.5C153.4,123,153.3,123,153.3,123z M131.4,99.1l21.3,22l-0.5-44.3L131.4,99.1
			z"/>
	</g>
	<g>
		<polygon class="st1" points="152.8,75.5 125.5,74.7 130.7,99.2 		"/>
	</g>
	<g>
		<path class="st0" d="M130.7,99.7c0,0-0.1,0-0.1,0c-0.2-0.1-0.3-0.2-0.4-0.4L125,74.8c0-0.2,0-0.3,0.1-0.5s0.3-0.2,0.4-0.2
			l27.2,0.8c0.2,0,0.4,0.1,0.5,0.3s0,0.4-0.1,0.6l-22.1,23.7C131,99.6,130.8,99.7,130.7,99.7z M126.2,75.3L131,98L151.6,76
			L126.2,75.3z"/>
	</g>
	<g>
		<polygon class="st1" points="152.8,75.5 125.5,74.7 148.8,62.3 		"/>
	</g>
	<g>
		<path class="st0" d="M152.8,76C152.8,76,152.8,76,152.8,76l-27.3-0.8c-0.2,0-0.4-0.2-0.5-0.4c-0.1-0.2,0.1-0.5,0.3-0.6l23.2-12.4
			c0.1-0.1,0.3-0.1,0.5,0c0.1,0.1,0.3,0.2,0.3,0.3l4,13.2c0,0.2,0,0.3-0.1,0.5C153.1,75.9,152.9,76,152.8,76z M127.5,74.3l24.5,0.7
			l-3.6-11.8L127.5,74.3z"/>
	</g>
	<g>
		<polygon class="st1" points="114.9,59.4 125.5,74.7 148.8,62.3 		"/>
	</g>
	<g>
		<path class="st0" d="M125.5,75.3c-0.2,0-0.3-0.1-0.4-0.2l-10.6-15.3c-0.1-0.2-0.1-0.4,0-0.6c0.1-0.2,0.3-0.3,0.5-0.3l33.8,2.9
			c0.2,0,0.4,0.2,0.5,0.4c0,0.2-0.1,0.5-0.3,0.6l-23.2,12.4C125.7,75.2,125.6,75.3,125.5,75.3z M116,60l9.7,14l21.3-11.3L116,60z"/>
	</g>
	<g>
		<polygon class="st1" points="80.8,76.1 85.9,58.1 63.4,54.5 		"/>
	</g>
	<g>
		<path class="st0" d="M80.8,76.6c-0.2,0-0.3-0.1-0.4-0.2L62.9,54.8c-0.1-0.2-0.2-0.4,0-0.6c0.1-0.2,0.3-0.3,0.5-0.3L86,57.5
			c0.2,0,0.3,0.1,0.4,0.2c0.1,0.1,0.1,0.3,0.1,0.4l-5.2,18c-0.1,0.2-0.2,0.3-0.4,0.4C80.9,76.6,80.8,76.6,80.8,76.6z M64.6,55.2
			l15.9,19.7l4.7-16.4L64.6,55.2z"/>
	</g>
	<g>
		<polygon class="st1" points="94.3,53.2 114.9,59.4 94.7,68.2 		"/>
	</g>
	<g>
		<path class="st0" d="M94.7,68.8c-0.1,0-0.2,0-0.3-0.1c-0.1-0.1-0.2-0.3-0.2-0.4l-0.4-15c0-0.2,0.1-0.3,0.2-0.4
			c0.1-0.1,0.3-0.1,0.5-0.1l20.7,6.2c0.2,0.1,0.4,0.3,0.4,0.5c0,0.2-0.1,0.4-0.3,0.5l-20.2,8.8C94.8,68.8,94.8,68.8,94.7,68.8z
			 M94.8,54l0.4,13.5l18.2-7.9L94.8,54z"/>
	</g>
	<g>
		<polygon class="st1" points="125.5,74.7 114.9,59.4 94.7,68.2 		"/>
	</g>
	<g>
		<path class="st0" d="M125.5,75.3c0,0-0.1,0-0.1,0l-30.8-6.5c-0.2,0-0.4-0.2-0.4-0.5s0.1-0.4,0.3-0.5l20.2-8.8
			c0.2-0.1,0.5,0,0.6,0.2L126,74.4c0.1,0.2,0.1,0.4,0,0.6C125.9,75.2,125.7,75.3,125.5,75.3z M96.4,68.1l27.9,5.9l-9.6-13.9
			L96.4,68.1z"/>
	</g>
	<g>
		<polygon class="st1" points="125.5,74.7 117,95.6 94.7,68.2 		"/>
	</g>
	<g>
		<path class="st0" d="M117,96.1c-0.2,0-0.3-0.1-0.4-0.2L94.3,68.6c-0.1-0.2-0.2-0.4,0-0.6c0.1-0.2,0.3-0.3,0.6-0.2l30.8,6.5
			c0.2,0,0.3,0.1,0.4,0.3c0.1,0.1,0.1,0.3,0,0.4l-8.5,20.8C117.5,95.9,117.3,96.1,117,96.1C117.1,96.1,117.1,96.1,117,96.1z
			 M96.1,69.1l20.8,25.5l7.9-19.4L96.1,69.1z"/>
	</g>
	<g>
		<polygon class="st1" points="80.8,76.1 59.9,75 63.4,54.5 		"/>
	</g>
	<g>
		<path class="st0" d="M80.8,76.6C80.8,76.6,80.8,76.6,80.8,76.6l-20.9-1.1c-0.2,0-0.3-0.1-0.4-0.2c-0.1-0.1-0.1-0.3-0.1-0.4
			l3.4-20.5c0-0.2,0.2-0.4,0.4-0.4c0.2-0.1,0.4,0,0.5,0.2l17.4,21.6c0.1,0.2,0.2,0.4,0.1,0.6C81.2,76.5,81,76.6,80.8,76.6z
			 M60.6,74.5l19,1L63.7,55.7L60.6,74.5z"/>
	</g>
	<g>
		<polygon class="st1" points="38.4,68 59.9,75 63.4,54.5 		"/>
	</g>
	<g>
		<path class="st0" d="M59.9,75.5c-0.1,0-0.1,0-0.2,0l-21.5-7c-0.2-0.1-0.3-0.2-0.4-0.5c0-0.2,0.1-0.4,0.3-0.5L63.1,54
			c0.2-0.1,0.4-0.1,0.6,0s0.2,0.3,0.2,0.5l-3.4,20.5c0,0.2-0.1,0.3-0.2,0.4C60.1,75.5,60,75.5,59.9,75.5z M39.8,67.9l19.7,6.4
			l3.1-18.8L39.8,67.9z"/>
	</g>
	<g>
		<polygon class="st1" points="38.4,68 59.9,75 65.3,100.3 		"/>
	</g>
	<g>
		<path class="st0" d="M65.3,100.9c-0.2,0-0.3-0.1-0.4-0.2L38,68.3c-0.2-0.2-0.2-0.4,0-0.6c0.1-0.2,0.4-0.3,0.6-0.2l21.5,7
			c0.2,0.1,0.3,0.2,0.4,0.4l5.3,25.3c0.1,0.2-0.1,0.5-0.3,0.6C65.4,100.8,65.4,100.9,65.3,100.9z M40,69.1l24.3,29.3l-4.8-22.9
			L40,69.1z"/>
	</g>
	<g>
		<polygon class="st1" points="38.4,68 40.4,88.9 65.3,100.3 		"/>
	</g>
	<g>
		<path class="st0" d="M65.3,100.9c-0.1,0-0.1,0-0.2,0L40.1,89.4c-0.2-0.1-0.3-0.2-0.3-0.4L37.9,68c0-0.2,0.1-0.5,0.3-0.5
			c0.2-0.1,0.5,0,0.6,0.2L65.7,100c0.2,0.2,0.2,0.5,0,0.7C65.6,100.8,65.4,100.9,65.3,100.9z M40.9,88.5l22.5,10.3L39.1,69.6
			L40.9,88.5z"/>
	</g>
	<g>
		<polygon class="st1" points="41.2,102.2 35.9,120.2 49.7,124 		"/>
	</g>
	<g>
		<path class="st0" d="M49.7,124.5c0,0-0.1,0-0.1,0l-13.8-3.8c-0.1,0-0.3-0.1-0.3-0.3c-0.1-0.1-0.1-0.3,0-0.4l5.2-18
			c0.1-0.2,0.3-0.4,0.5-0.4c0.2,0,0.4,0.1,0.5,0.3l8.5,21.8c0.1,0.2,0,0.4-0.1,0.5C50,124.5,49.8,124.5,49.7,124.5z M36.6,119.9
			l12.2,3.3l-7.5-19.3L36.6,119.9z"/>
	</g>
	<g>
		<polygon class="st1" points="41.2,102.2 75.8,120.3 49.7,124 		"/>
	</g>
	<g>
		<path class="st0" d="M49.7,124.5c-0.2,0-0.4-0.1-0.5-0.3l-8.5-21.8c-0.1-0.2,0-0.4,0.1-0.6c0.2-0.1,0.4-0.2,0.6-0.1L76,119.8
			c0.2,0.1,0.3,0.3,0.3,0.6c0,0.2-0.2,0.4-0.4,0.4L49.7,124.5C49.7,124.5,49.7,124.5,49.7,124.5z M42.2,103.4l7.8,20l24-3.4
			L42.2,103.4z"/>
	</g>
	<g>
		<polygon class="st1" points="41.2,102.2 75.8,120.3 65.3,100.3 		"/>
	</g>
	<g>
		<path class="st0" d="M75.8,120.8c-0.1,0-0.2,0-0.2-0.1L41,102.7c-0.2-0.1-0.3-0.3-0.3-0.6c0-0.2,0.2-0.4,0.5-0.4l24.1-1.9
			c0.2,0,0.4,0.1,0.5,0.3l10.5,20c0.1,0.2,0.1,0.5-0.1,0.6C76.1,120.8,75.9,120.8,75.8,120.8z M43.1,102.6l31.4,16.4L65,100.9
			L43.1,102.6z"/>
	</g>
	<g>
		<polygon class="st1" points="86.9,92.2 75.8,120.3 65.3,100.3 		"/>
	</g>
	<g>
		<path class="st0" d="M75.8,120.9c-0.2,0-0.4-0.1-0.5-0.3l-10.5-20c-0.1-0.1-0.1-0.3,0-0.4c0.1-0.1,0.2-0.3,0.3-0.3l21.6-8.2
			c0.2-0.1,0.4,0,0.6,0.1c0.1,0.1,0.2,0.4,0.1,0.6l-11.1,28.2C76.2,120.7,76,120.8,75.8,120.9C75.8,120.8,75.8,120.9,75.8,120.9z
			 M66,100.6l9.7,18.4l10.2-26L66,100.6z"/>
	</g>
	<g>
		<polygon class="st1" points="86.9,92.2 59.9,75 65.3,100.3 		"/>
	</g>
	<g>
		<path class="st0" d="M65.3,100.9c-0.1,0-0.2,0-0.3-0.1c-0.1-0.1-0.2-0.2-0.3-0.4l-5.3-25.3c0-0.2,0-0.4,0.2-0.5
			c0.2-0.1,0.4-0.1,0.6,0l26.9,17.2c0.2,0.1,0.3,0.3,0.2,0.5c0,0.2-0.2,0.4-0.3,0.4l-21.6,8.2C65.4,100.8,65.3,100.9,65.3,100.9z
			 M60.7,76.1l4.9,23.5l20-7.6L60.7,76.1z"/>
	</g>
	<g>
		<polygon class="st1" points="117.2,109.4 94.7,122.2 117.4,122.4 		"/>
	</g>
	<g>
		<path class="st0" d="M117.4,122.9C117.4,122.9,117.4,122.9,117.4,122.9l-22.7-0.2c-0.2,0-0.4-0.2-0.5-0.4c-0.1-0.2,0-0.5,0.2-0.6
			l22.5-12.9c0.2-0.1,0.4-0.1,0.5,0c0.2,0.1,0.3,0.3,0.3,0.5l0.2,13c0,0.1-0.1,0.3-0.2,0.4C117.6,122.9,117.5,122.9,117.4,122.9z
			 M96.7,121.7l20.2,0.1l-0.2-11.6L96.7,121.7z"/>
	</g>
	<g>
		<polygon class="st1" points="117.2,109.4 94.7,122.2 94.2,83.3 		"/>
	</g>
	<g>
		<path class="st0" d="M94.7,122.8c-0.1,0-0.2,0-0.3-0.1c-0.2-0.1-0.3-0.3-0.3-0.5l-0.5-38.9c0-0.2,0.1-0.4,0.3-0.5
			c0.2-0.1,0.4,0,0.6,0.1l23,26c0.1,0.1,0.2,0.3,0.1,0.4c0,0.2-0.1,0.3-0.3,0.4L95,122.7C94.9,122.7,94.8,122.8,94.7,122.8z
			 M94.7,84.7l0.5,36.6l21.1-12.1L94.7,84.7z"/>
	</g>
	<g>
		<polygon class="st1" points="117,95.6 94.2,83.3 94.7,68.2 		"/>
	</g>
	<g>
		<path class="st0" d="M117,96.1c-0.1,0-0.2,0-0.3-0.1L93.9,83.8c-0.2-0.1-0.3-0.3-0.3-0.5l0.5-15.1c0-0.2,0.2-0.4,0.4-0.5
			c0.2-0.1,0.4,0,0.6,0.2l22.3,27.3c0.2,0.2,0.2,0.5,0,0.7C117.3,96,117.2,96.1,117,96.1z M94.7,83l20.2,10.8L95.2,69.7L94.7,83z"/>
	</g>
	<g>
		<polygon class="st1" points="117,95.6 94.2,83.3 117.2,109.4 		"/>
	</g>
	<g>
		<path class="st0" d="M117.2,109.9c-0.1,0-0.3-0.1-0.4-0.2l-23-26c-0.2-0.2-0.2-0.5,0-0.7s0.4-0.3,0.7-0.1l22.8,12.2
			c0.2,0.1,0.3,0.3,0.3,0.5l0.1,13.8c0,0.2-0.1,0.4-0.3,0.5C117.3,109.9,117.2,109.9,117.2,109.9z M96.5,85.2l20.1,22.8l-0.1-12.1
			L96.5,85.2z"/>
	</g>
	<g>
		<polygon class="st1" points="195.9,94.2 200.1,69.8 219.7,95.6 		"/>
	</g>
	<g>
		<path class="st0" d="M219.7,96.1C219.7,96.1,219.7,96.1,219.7,96.1l-23.8-1.3c-0.2,0-0.3-0.1-0.4-0.2c-0.1-0.1-0.1-0.3-0.1-0.4
			l4.2-24.4c0-0.2,0.2-0.4,0.4-0.4c0.2,0,0.4,0,0.5,0.2l19.6,25.8c0.1,0.2,0.1,0.4,0,0.6C220.1,96,219.9,96.1,219.7,96.1z
			 M196.6,93.7l22,1.2l-18.1-23.9L196.6,93.7z"/>
	</g>
	<g>
		<polygon class="st1" points="224.2,54.4 200.1,69.8 222.1,77.4 		"/>
	</g>
	<g>
		<path class="st0" d="M222.1,77.9c-0.1,0-0.1,0-0.2,0l-22-7.6c-0.2-0.1-0.3-0.2-0.4-0.4c0-0.2,0.1-0.4,0.2-0.5L223.9,54
			c0.2-0.1,0.4-0.1,0.6,0s0.3,0.3,0.3,0.5l-2.1,23c0,0.2-0.1,0.3-0.2,0.4C222.3,77.9,222.2,77.9,222.1,77.9z M201.3,69.7l20.3,7
			l1.9-21.2L201.3,69.7z"/>
	</g>
	<g>
		<polygon class="st1" points="224.2,54.4 244.4,75.6 222.1,77.4 		"/>
	</g>
	<g>
		<path class="st0" d="M222.1,77.9c-0.1,0-0.3-0.1-0.4-0.2c-0.1-0.1-0.2-0.3-0.2-0.4l2.1-23c0-0.2,0.2-0.4,0.4-0.5
			c0.2-0.1,0.4,0,0.6,0.1l20.2,21.2c0.1,0.1,0.2,0.4,0.1,0.6s-0.2,0.3-0.5,0.3L222.1,77.9C222.1,77.9,222.1,77.9,222.1,77.9z
			 M224.6,55.6l-1.9,21.2l20.5-1.7L224.6,55.6z"/>
	</g>
	<g>
		<polygon class="st1" points="224.2,54.4 244.4,75.6 249.2,57.7 		"/>
	</g>
	<g>
		<path class="st0" d="M244.4,76.1c-0.1,0-0.3-0.1-0.4-0.2l-20.2-21.2c-0.2-0.2-0.2-0.4-0.1-0.6s0.3-0.3,0.5-0.3l25,3.2
			c0.2,0,0.3,0.1,0.4,0.2c0.1,0.1,0.1,0.3,0.1,0.4l-4.8,17.9c-0.1,0.2-0.2,0.3-0.4,0.4C244.5,76.1,244.4,76.1,244.4,76.1z
			 M225.6,55.1l18.5,19.4l4.4-16.4L225.6,55.1z"/>
	</g>
	<g>
		<polygon class="st1" points="200.1,69.8 219.7,95.6 222.1,77.4 		"/>
	</g>
	<g>
		<path class="st0" d="M219.7,96.1c-0.2,0-0.3-0.1-0.4-0.2l-19.6-25.8c-0.1-0.2-0.1-0.4,0-0.6c0.1-0.2,0.4-0.3,0.6-0.2l22,7.6
			c0.2,0.1,0.4,0.3,0.4,0.6l-2.4,18.2c0,0.2-0.2,0.4-0.4,0.4C219.8,96.1,219.7,96.1,219.7,96.1z M201.6,70.9l17.7,23.3l2.2-16.5
			L201.6,70.9z"/>
	</g>
	<g>
		<defs>
			<rect id="SVGID_1_" x="-17.5" y="-3" width="420.9" height="245.4"/>
		</defs>
		<clipPath id="SVGID_2_">
			<use xlink:href="#SVGID_1_"  style="overflow:visible;"/>
		</clipPath>
		<g class="st2">
			<path d="M263.5,115.7c0.3,0.1,0.7,0.3,1.1,0.3c0.4,0.1,0.8,0.1,1.2,0.1c0.3,0,0.6,0,0.8-0.1c0.3-0.1,0.5-0.2,0.7-0.3
				c0.2-0.1,0.4-0.3,0.5-0.5c0.1-0.2,0.2-0.4,0.2-0.6c0-0.3,0-0.5-0.1-0.6c-0.1-0.2-0.2-0.3-0.4-0.4c-0.2-0.1-0.3-0.2-0.6-0.3
				s-0.4-0.2-0.7-0.2l-0.7-0.2c-0.8-0.3-1.4-0.7-1.8-1c-0.4-0.4-0.6-0.9-0.6-1.6c0-0.9,0.3-1.6,0.9-2.1c0.6-0.5,1.5-0.8,2.7-0.8
				c0.5,0,1,0,1.5,0.1c0.5,0.1,0.9,0.2,1.3,0.3c0,0.3-0.1,0.5-0.1,0.8c-0.1,0.3-0.2,0.5-0.3,0.7c-0.3-0.1-0.6-0.2-1-0.3
				c-0.4-0.1-0.8-0.1-1.3-0.1c-0.5,0-0.9,0.1-1.3,0.2c-0.4,0.2-0.5,0.5-0.5,0.9c0,0.2,0,0.4,0.1,0.6c0.1,0.2,0.2,0.3,0.4,0.4
				c0.2,0.1,0.3,0.2,0.5,0.3c0.2,0.1,0.4,0.2,0.6,0.2l0.8,0.3c0.3,0.1,0.6,0.2,0.9,0.4c0.3,0.1,0.5,0.3,0.7,0.5
				c0.2,0.2,0.4,0.5,0.5,0.8c0.1,0.3,0.2,0.7,0.2,1.1c0,0.5-0.1,0.9-0.3,1.3c-0.2,0.4-0.5,0.7-0.8,1c-0.4,0.3-0.8,0.5-1.3,0.6
				s-1,0.2-1.6,0.2c-0.6,0-1.2,0-1.6-0.1c-0.5-0.1-0.9-0.2-1.3-0.3c0-0.3,0.1-0.5,0.2-0.8C263.4,116.2,263.4,116,263.5,115.7"/>
		</g>
		<g class="st2">
			<path d="M279,115.8c0.1,0.2,0.2,0.4,0.3,0.7c0.1,0.3,0.1,0.5,0.1,0.8c-0.8,0.3-1.6,0.4-2.6,0.4c-1.6,0-2.9-0.5-3.7-1.4
				s-1.2-2.2-1.2-3.8c0-0.7,0.1-1.4,0.3-2c0.2-0.6,0.5-1.2,0.9-1.6c0.4-0.5,0.9-0.8,1.5-1.1c0.6-0.3,1.3-0.4,2.1-0.4
				c0.5,0,1,0,1.4,0.1c0.4,0.1,0.8,0.2,1.2,0.3c0,0.2,0,0.5-0.1,0.8c-0.1,0.3-0.1,0.5-0.2,0.8c-0.6-0.2-1.3-0.3-2.1-0.3
				c-1,0-1.7,0.3-2.2,1s-0.7,1.5-0.7,2.6c0,1.2,0.3,2.1,0.8,2.7c0.5,0.6,1.3,0.9,2.3,0.9c0.4,0,0.7,0,1.1-0.1
				C278.3,116,278.7,115.9,279,115.8"/>
		</g>
		<g class="st2">
			<path d="M282.2,109.2h-1.2c0-0.1,0-0.2-0.1-0.4c0-0.1,0-0.3,0-0.4s0-0.3,0-0.4c0-0.1,0-0.3,0.1-0.4h3.1v9.8c-0.1,0-0.3,0-0.5,0.1
				c-0.2,0-0.3,0-0.5,0c-0.1,0-0.3,0-0.5,0c-0.2,0-0.3,0-0.5-0.1V109.2z M281.8,105.5c0-0.2,0-0.3,0-0.5c0-0.2,0-0.3,0-0.5
				s0-0.3,0-0.5c0-0.2,0-0.3,0-0.5c0.2,0,0.3,0,0.5-0.1c0.2,0,0.4,0,0.5,0c0.1,0,0.3,0,0.5,0c0.2,0,0.4,0,0.5,0.1c0,0.1,0,0.3,0,0.5
				c0,0.2,0,0.3,0,0.5s0,0.3,0,0.5c0,0.2,0,0.3,0,0.5c-0.2,0-0.3,0-0.5,0.1c-0.2,0-0.3,0-0.5,0c-0.2,0-0.3,0-0.5,0
				C282.1,105.5,281.9,105.5,281.8,105.5"/>
		</g>
		<g class="st2">
			<path d="M288.6,113c0,1.1,0.3,1.9,0.8,2.4c0.5,0.5,1.3,0.7,2.4,0.7c0.9,0,1.8-0.2,2.6-0.5c0.1,0.2,0.2,0.4,0.2,0.7
				c0.1,0.3,0.1,0.5,0.1,0.8c-0.4,0.2-0.9,0.3-1.4,0.4c-0.5,0.1-1.1,0.1-1.7,0.1c-0.9,0-1.7-0.1-2.3-0.4c-0.6-0.2-1.2-0.6-1.6-1.1
				c-0.4-0.5-0.7-1-0.9-1.6c-0.2-0.6-0.3-1.3-0.3-2c0-0.7,0.1-1.4,0.3-2c0.2-0.6,0.5-1.2,0.9-1.7c0.4-0.5,0.9-0.8,1.4-1.1
				c0.6-0.3,1.3-0.4,2.1-0.4c0.7,0,1.3,0.1,1.8,0.3c0.5,0.2,0.9,0.5,1.3,1c0.3,0.4,0.6,0.9,0.8,1.4c0.2,0.6,0.3,1.2,0.3,1.8
				c0,0.2,0,0.4,0,0.6c0,0.2,0,0.4,0,0.5H288.6z M293.4,111.6c0-0.4,0-0.7-0.1-1c-0.1-0.3-0.2-0.6-0.4-0.9c-0.2-0.2-0.4-0.4-0.7-0.6
				c-0.3-0.1-0.6-0.2-1-0.2c-0.8,0-1.4,0.2-1.8,0.7c-0.4,0.5-0.7,1.1-0.8,2H293.4z"/>
		</g>
		<g class="st2">
			<path d="M297.8,107.7c0.1,0,0.3,0,0.4-0.1c0.1,0,0.3,0,0.4,0c0.1,0,0.3,0,0.4,0c0.1,0,0.3,0,0.4,0.1c0,0.2,0.1,0.5,0.1,0.8
				c0,0.3,0.1,0.6,0.1,0.8c0.1-0.2,0.3-0.4,0.5-0.7c0.2-0.2,0.4-0.4,0.7-0.6c0.3-0.2,0.5-0.3,0.9-0.4c0.3-0.1,0.7-0.2,1.1-0.2
				c1.1,0,2,0.3,2.5,1c0.5,0.6,0.8,1.6,0.8,2.9v6.2c-0.1,0-0.3,0-0.5,0.1c-0.2,0-0.3,0-0.5,0c-0.1,0-0.3,0-0.5,0
				c-0.2,0-0.3,0-0.5-0.1v-5.7c0-0.9-0.1-1.6-0.4-2c-0.3-0.4-0.7-0.6-1.3-0.6c-0.4,0-0.7,0.1-1,0.2c-0.3,0.1-0.6,0.3-0.8,0.6
				c-0.2,0.3-0.4,0.6-0.6,1c-0.1,0.4-0.2,0.9-0.2,1.5v5c-0.1,0-0.3,0-0.5,0.1c-0.2,0-0.3,0-0.5,0c-0.1,0-0.3,0-0.5,0
				c-0.2,0-0.3,0-0.5-0.1V107.7z"/>
		</g>
		<g class="st2">
			<path d="M315.5,115.8c0.1,0.2,0.2,0.4,0.3,0.7c0.1,0.3,0.1,0.5,0.1,0.8c-0.8,0.3-1.6,0.4-2.6,0.4c-1.6,0-2.9-0.5-3.7-1.4
				s-1.2-2.2-1.2-3.8c0-0.7,0.1-1.4,0.3-2c0.2-0.6,0.5-1.2,0.9-1.6c0.4-0.5,0.9-0.8,1.5-1.1c0.6-0.3,1.3-0.4,2.1-0.4
				c0.5,0,1,0,1.4,0.1c0.4,0.1,0.8,0.2,1.2,0.3c0,0.2,0,0.5-0.1,0.8c-0.1,0.3-0.1,0.5-0.2,0.8c-0.6-0.2-1.3-0.3-2.1-0.3
				c-1,0-1.7,0.3-2.2,1s-0.7,1.5-0.7,2.6c0,1.2,0.3,2.1,0.8,2.7c0.5,0.6,1.3,0.9,2.3,0.9c0.4,0,0.7,0,1.1-0.1
				C314.8,116,315.1,115.9,315.5,115.8"/>
		</g>
		<g class="st2">
			<path d="M319.2,113c0,1.1,0.3,1.9,0.8,2.4c0.5,0.5,1.3,0.7,2.4,0.7c0.9,0,1.8-0.2,2.6-0.5c0.1,0.2,0.2,0.4,0.2,0.7
				c0.1,0.3,0.1,0.5,0.1,0.8c-0.4,0.2-0.9,0.3-1.4,0.4c-0.5,0.1-1.1,0.1-1.7,0.1c-0.9,0-1.7-0.1-2.3-0.4c-0.6-0.2-1.2-0.6-1.6-1.1
				c-0.4-0.5-0.7-1-0.9-1.6c-0.2-0.6-0.3-1.3-0.3-2c0-0.7,0.1-1.4,0.3-2c0.2-0.6,0.5-1.2,0.9-1.7c0.4-0.5,0.9-0.8,1.4-1.1
				c0.6-0.3,1.3-0.4,2.1-0.4c0.7,0,1.3,0.1,1.8,0.3c0.5,0.2,0.9,0.5,1.3,1c0.3,0.4,0.6,0.9,0.8,1.4c0.2,0.6,0.3,1.2,0.3,1.8
				c0,0.2,0,0.4,0,0.6c0,0.2,0,0.4,0,0.5H319.2z M324.1,111.6c0-0.4,0-0.7-0.1-1c-0.1-0.3-0.2-0.6-0.4-0.9c-0.2-0.2-0.4-0.4-0.7-0.6
				c-0.3-0.1-0.6-0.2-1-0.2c-0.8,0-1.4,0.2-1.8,0.7c-0.4,0.5-0.7,1.1-0.8,2H324.1z"/>
		</g>
		<g class="st2">
			<path d="M263.7,129.1c0.1,0,0.3,0,0.4-0.1c0.1,0,0.3,0,0.4,0c0.1,0,0.3,0,0.4,0c0.1,0,0.3,0,0.4,0.1c0,0.2,0.1,0.4,0.1,0.8
				c0,0.3,0.1,0.6,0.1,0.8c0.1-0.2,0.3-0.5,0.4-0.7c0.2-0.2,0.4-0.4,0.6-0.6c0.2-0.2,0.5-0.3,0.8-0.4c0.3-0.1,0.6-0.2,1-0.2
				c0.8,0,1.4,0.2,1.8,0.5c0.4,0.3,0.7,0.8,0.9,1.3c0.1-0.2,0.3-0.4,0.5-0.7c0.2-0.2,0.4-0.4,0.6-0.6c0.2-0.2,0.5-0.3,0.8-0.4
				c0.3-0.1,0.6-0.2,1-0.2c1.1,0,2,0.3,2.5,1c0.5,0.6,0.8,1.6,0.8,2.8v6.3c-0.1,0-0.3,0-0.5,0.1c-0.2,0-0.3,0-0.5,0
				c-0.1,0-0.3,0-0.5,0c-0.2,0-0.3,0-0.5-0.1v-5.7c0-0.9-0.1-1.5-0.4-2c-0.3-0.4-0.7-0.7-1.3-0.7c-0.7,0-1.2,0.2-1.6,0.7
				c-0.4,0.5-0.6,1.2-0.6,2.1v5.6c-0.1,0-0.3,0-0.5,0.1c-0.2,0-0.3,0-0.5,0c-0.1,0-0.3,0-0.5,0c-0.2,0-0.3,0-0.5-0.1v-5.8
				c0-0.9-0.1-1.5-0.4-1.9c-0.3-0.4-0.7-0.6-1.2-0.6c-0.3,0-0.6,0.1-0.9,0.2c-0.3,0.1-0.5,0.4-0.7,0.6c-0.2,0.3-0.4,0.6-0.5,1.1
				c-0.1,0.4-0.2,0.9-0.2,1.5v5c-0.1,0-0.3,0-0.5,0.1c-0.2,0-0.3,0-0.5,0c-0.1,0-0.3,0-0.5,0c-0.2,0-0.3,0-0.5-0.1V129.1z"/>
		</g>
		<g class="st2">
			<path d="M281.5,134.5c0,1.1,0.3,1.9,0.8,2.4c0.5,0.5,1.3,0.7,2.4,0.7c0.9,0,1.8-0.2,2.6-0.5c0.1,0.2,0.2,0.4,0.2,0.7
				c0.1,0.3,0.1,0.5,0.1,0.8c-0.4,0.2-0.9,0.3-1.4,0.4c-0.5,0.1-1.1,0.1-1.7,0.1c-0.9,0-1.7-0.1-2.3-0.4c-0.6-0.2-1.2-0.6-1.6-1.1
				c-0.4-0.5-0.7-1-0.9-1.6c-0.2-0.6-0.3-1.3-0.3-2c0-0.7,0.1-1.4,0.3-2c0.2-0.6,0.5-1.2,0.9-1.7c0.4-0.5,0.9-0.8,1.4-1.1
				c0.6-0.3,1.3-0.4,2.1-0.4c0.7,0,1.3,0.1,1.8,0.3c0.5,0.2,0.9,0.5,1.3,1c0.3,0.4,0.6,0.9,0.8,1.4c0.2,0.6,0.3,1.2,0.3,1.8
				c0,0.2,0,0.4,0,0.6c0,0.2,0,0.4,0,0.5H281.5z M286.4,133.1c0-0.4,0-0.7-0.1-1c-0.1-0.3-0.2-0.6-0.4-0.9c-0.2-0.2-0.4-0.4-0.7-0.6
				c-0.3-0.1-0.6-0.2-1-0.2c-0.8,0-1.4,0.2-1.8,0.7c-0.4,0.5-0.7,1.1-0.8,2H286.4z"/>
		</g>
		<g class="st2">
			<path d="M297.1,124.9c0.1,0,0.3,0,0.5-0.1c0.2,0,0.3,0,0.5,0c0.1,0,0.3,0,0.5,0c0.2,0,0.3,0,0.5,0.1v13.8c-0.5,0.1-1,0.3-1.6,0.4
				c-0.6,0.1-1.3,0.1-2,0.1c-0.7,0-1.3-0.1-2-0.3c-0.6-0.2-1.2-0.5-1.6-0.9c-0.5-0.4-0.8-0.9-1.1-1.5c-0.3-0.6-0.4-1.4-0.4-2.3
				c0-0.8,0.1-1.5,0.4-2.2c0.2-0.7,0.6-1.2,1-1.7c0.4-0.5,1-0.8,1.6-1.1c0.6-0.3,1.3-0.4,2-0.4c0.3,0,0.7,0,1,0.1
				c0.3,0.1,0.6,0.1,0.9,0.2V124.9z M297.1,130.8c-0.3-0.1-0.5-0.2-0.8-0.2c-0.3,0-0.6-0.1-1-0.1c-0.5,0-1,0.1-1.4,0.3
				c-0.4,0.2-0.7,0.5-0.9,0.8c-0.2,0.3-0.4,0.7-0.6,1.2c-0.1,0.5-0.2,1-0.2,1.5c0,1.2,0.3,2.1,0.9,2.6c0.6,0.5,1.3,0.8,2.3,0.8
				c0.3,0,0.6,0,0.9,0c0.3,0,0.5-0.1,0.7-0.1V130.8z"/>
		</g>
		<g class="st2">
			<path d="M302.6,130.6h-1.2c0-0.1,0-0.2-0.1-0.4c0-0.1,0-0.3,0-0.4s0-0.3,0-0.4c0-0.1,0-0.3,0.1-0.4h3.1v9.8c-0.1,0-0.3,0-0.5,0.1
				c-0.2,0-0.3,0-0.5,0c-0.1,0-0.3,0-0.5,0c-0.2,0-0.3,0-0.5-0.1V130.6z M302.2,126.9c0-0.2,0-0.3,0-0.5c0-0.2,0-0.3,0-0.5
				s0-0.3,0-0.5c0-0.2,0-0.3,0-0.5c0.2,0,0.3,0,0.5-0.1c0.2,0,0.4,0,0.5,0c0.1,0,0.3,0,0.5,0c0.2,0,0.4,0,0.5,0.1c0,0.1,0,0.3,0,0.5
				c0,0.2,0,0.3,0,0.5s0,0.3,0,0.5c0,0.2,0,0.3,0,0.5c-0.2,0-0.3,0-0.5,0.1c-0.2,0-0.3,0-0.5,0c-0.2,0-0.3,0-0.5,0
				C302.5,127,302.3,127,302.2,126.9"/>
		</g>
		<g class="st2">
			<path d="M312.7,132.4c0-0.8-0.2-1.3-0.6-1.6c-0.4-0.3-0.9-0.4-1.7-0.4c-0.4,0-0.9,0-1.3,0.1c-0.4,0.1-0.8,0.2-1.1,0.3
				c-0.2-0.4-0.4-0.9-0.4-1.5c0.4-0.1,0.9-0.2,1.4-0.3c0.5-0.1,1-0.1,1.5-0.1c1.3,0,2.3,0.3,2.9,0.9c0.7,0.6,1,1.5,1,2.8v6.2
				c-0.4,0.1-1,0.2-1.6,0.3c-0.6,0.1-1.3,0.2-2,0.2c-0.6,0-1.2-0.1-1.7-0.2c-0.5-0.1-0.9-0.3-1.3-0.6c-0.4-0.3-0.6-0.6-0.8-1
				c-0.2-0.4-0.3-0.9-0.3-1.4c0-0.5,0.1-1,0.3-1.4c0.2-0.4,0.5-0.8,0.9-1c0.4-0.3,0.8-0.5,1.3-0.6c0.5-0.1,1-0.2,1.6-0.2
				c0.4,0,0.7,0,1,0c0.3,0,0.5,0,0.7,0.1V132.4z M312.7,134.3c-0.2,0-0.4-0.1-0.7-0.1c-0.3,0-0.5,0-0.7,0c-0.8,0-1.4,0.1-1.8,0.4
				c-0.4,0.3-0.6,0.7-0.6,1.3c0,0.4,0.1,0.7,0.2,0.9c0.1,0.2,0.3,0.4,0.5,0.5c0.2,0.1,0.4,0.2,0.7,0.2c0.3,0,0.5,0,0.7,0
				c0.3,0,0.6,0,0.9,0c0.3,0,0.6-0.1,0.8-0.1V134.3z"/>
		</g>
		<g class="st2">
			<path d="M328.6,137.2c0.1,0.2,0.2,0.4,0.3,0.7c0.1,0.3,0.1,0.5,0.1,0.8c-0.8,0.3-1.6,0.4-2.6,0.4c-1.6,0-2.9-0.5-3.7-1.4
				c-0.8-0.9-1.2-2.2-1.2-3.8c0-0.7,0.1-1.4,0.3-2c0.2-0.6,0.5-1.2,0.9-1.6c0.4-0.5,0.9-0.8,1.5-1.1c0.6-0.3,1.3-0.4,2.1-0.4
				c0.5,0,1,0,1.4,0.1c0.4,0.1,0.8,0.2,1.2,0.3c0,0.2,0,0.5-0.1,0.8c-0.1,0.3-0.1,0.5-0.2,0.8c-0.6-0.2-1.3-0.3-2.1-0.3
				c-1,0-1.7,0.3-2.2,1c-0.5,0.7-0.7,1.5-0.7,2.6c0,1.2,0.3,2.1,0.8,2.7c0.5,0.6,1.3,0.9,2.3,0.9c0.4,0,0.7,0,1.1-0.1
				C327.9,137.4,328.2,137.4,328.6,137.2"/>
		</g>
		<g class="st2">
			<path d="M332.3,134.5c0,1.1,0.3,1.9,0.8,2.4c0.5,0.5,1.3,0.7,2.4,0.7c0.9,0,1.8-0.2,2.6-0.5c0.1,0.2,0.2,0.4,0.2,0.7
				c0.1,0.3,0.1,0.5,0.1,0.8c-0.4,0.2-0.9,0.3-1.4,0.4c-0.5,0.1-1.1,0.1-1.7,0.1c-0.9,0-1.7-0.1-2.3-0.4c-0.6-0.2-1.2-0.6-1.6-1.1
				c-0.4-0.5-0.7-1-0.9-1.6c-0.2-0.6-0.3-1.3-0.3-2c0-0.7,0.1-1.4,0.3-2c0.2-0.6,0.5-1.2,0.9-1.7c0.4-0.5,0.9-0.8,1.4-1.1
				c0.6-0.3,1.3-0.4,2.1-0.4c0.7,0,1.3,0.1,1.8,0.3c0.5,0.2,0.9,0.5,1.3,1c0.3,0.4,0.6,0.9,0.8,1.4c0.2,0.6,0.3,1.2,0.3,1.8
				c0,0.2,0,0.4,0,0.6c0,0.2,0,0.4,0,0.5H332.3z M337.2,133.1c0-0.4,0-0.7-0.1-1c-0.1-0.3-0.2-0.6-0.4-0.9c-0.2-0.2-0.4-0.4-0.7-0.6
				c-0.3-0.1-0.6-0.2-1-0.2c-0.8,0-1.4,0.2-1.8,0.7c-0.4,0.5-0.7,1.1-0.8,2H337.2z"/>
		</g>
		<g class="st2">
			<path d="M341.5,129.1c0.1,0,0.3,0,0.4-0.1c0.1,0,0.3,0,0.4,0c0.1,0,0.3,0,0.4,0c0.1,0,0.3,0,0.4,0.1c0,0.2,0.1,0.5,0.1,0.8
				c0,0.3,0.1,0.6,0.1,0.8c0.1-0.2,0.3-0.4,0.5-0.7c0.2-0.2,0.4-0.4,0.7-0.6c0.3-0.2,0.5-0.3,0.9-0.4c0.3-0.1,0.7-0.2,1.1-0.2
				c1.1,0,2,0.3,2.5,1c0.5,0.6,0.8,1.6,0.8,2.9v6.2c-0.1,0-0.3,0-0.5,0.1c-0.2,0-0.3,0-0.5,0c-0.1,0-0.3,0-0.5,0
				c-0.2,0-0.3,0-0.5-0.1v-5.7c0-0.9-0.1-1.6-0.4-2c-0.3-0.4-0.7-0.6-1.3-0.6c-0.4,0-0.7,0.1-1,0.2c-0.3,0.1-0.6,0.3-0.8,0.6
				c-0.2,0.3-0.4,0.6-0.6,1c-0.1,0.4-0.2,0.9-0.2,1.5v5c-0.1,0-0.3,0-0.5,0.1c-0.2,0-0.3,0-0.5,0c-0.1,0-0.3,0-0.5,0
				c-0.2,0-0.3,0-0.5-0.1V129.1z"/>
		</g>
		<g class="st2">
			<path d="M353,130.6h-1.5l-0.1-0.3l3.3-3.7h0.2v2.4h2.5c0.1,0.2,0.1,0.5,0.1,0.7c0,0.1,0,0.3,0,0.4c0,0.1,0,0.3-0.1,0.4h-2.5v4.5
				c0,0.5,0,1,0.1,1.3c0,0.3,0.1,0.6,0.2,0.7c0.1,0.2,0.3,0.3,0.4,0.3c0.2,0.1,0.4,0.1,0.7,0.1c0.2,0,0.4,0,0.6,0
				c0.2,0,0.4-0.1,0.5-0.1c0.1,0.3,0.1,0.5,0.2,0.8c0,0.3,0,0.5,0,0.7c-0.3,0.1-0.5,0.1-0.8,0.1c-0.3,0-0.6,0-0.9,0
				c-0.9,0-1.6-0.2-2.2-0.7c-0.5-0.4-0.8-1.2-0.8-2.2V130.6z"/>
		</g>
		<g class="st2">
			<path d="M360.9,134.5c0,1.1,0.3,1.9,0.8,2.4c0.5,0.5,1.3,0.7,2.4,0.7c0.9,0,1.8-0.2,2.6-0.5c0.1,0.2,0.2,0.4,0.2,0.7
				c0.1,0.3,0.1,0.5,0.1,0.8c-0.4,0.2-0.9,0.3-1.4,0.4c-0.5,0.1-1.1,0.1-1.7,0.1c-0.9,0-1.7-0.1-2.3-0.4c-0.6-0.2-1.2-0.6-1.6-1.1
				c-0.4-0.5-0.7-1-0.9-1.6c-0.2-0.6-0.3-1.3-0.3-2c0-0.7,0.1-1.4,0.3-2c0.2-0.6,0.5-1.2,0.9-1.7c0.4-0.5,0.9-0.8,1.4-1.1
				c0.6-0.3,1.3-0.4,2.1-0.4c0.7,0,1.3,0.1,1.8,0.3c0.5,0.2,0.9,0.5,1.3,1c0.3,0.4,0.6,0.9,0.8,1.4c0.2,0.6,0.3,1.2,0.3,1.8
				c0,0.2,0,0.4,0,0.6c0,0.2,0,0.4,0,0.5H360.9z M365.8,133.1c0-0.4,0-0.7-0.1-1c-0.1-0.3-0.2-0.6-0.4-0.9c-0.2-0.2-0.4-0.4-0.7-0.6
				c-0.3-0.1-0.6-0.2-1-0.2c-0.8,0-1.4,0.2-1.8,0.7c-0.4,0.5-0.7,1.1-0.8,2H365.8z"/>
		</g>
		<g class="st2">
			<path d="M370.2,129.1c0.1,0,0.3,0,0.4-0.1c0.1,0,0.3,0,0.4,0c0.1,0,0.3,0,0.4,0c0.1,0,0.3,0,0.4,0.1c0,0.2,0.1,0.4,0.1,0.8
				c0,0.3,0.1,0.6,0.1,0.8c0.3-0.4,0.6-0.8,1.1-1.1c0.4-0.3,1-0.5,1.7-0.5c0.1,0,0.2,0,0.3,0c0.1,0,0.2,0,0.3,0c0,0.1,0,0.2,0.1,0.4
				c0,0.1,0,0.3,0,0.4c0,0.2,0,0.3,0,0.5c0,0.2,0,0.3-0.1,0.5c-0.1,0-0.2,0-0.3,0h-0.3c-0.3,0-0.7,0-1,0.1c-0.3,0.1-0.6,0.3-0.8,0.5
				c-0.2,0.2-0.4,0.6-0.6,1s-0.2,1-0.2,1.6v4.9c-0.1,0-0.3,0-0.5,0.1c-0.2,0-0.3,0-0.5,0c-0.1,0-0.3,0-0.5,0c-0.2,0-0.3,0-0.5-0.1
				V129.1z"/>
		</g>
		<g class="st2">
			<path class="st1" d="M269,159.1c1.1,0,2,0.3,2.5,0.7c0.5,0.5,0.8,1.1,0.8,1.9c0,0.5-0.1,1-0.4,1.4c-0.3,0.4-0.6,0.8-1.1,1.1
				c-0.5,0.3-1,0.5-1.7,0.7c-0.6,0.2-1.3,0.2-2.1,0.2c-1.3,0-2.3-0.2-3-0.6c-0.7-0.4-1-1.1-1-1.9c0-0.5,0.1-1,0.4-1.4
				c0.3-0.4,0.6-0.7,1.1-1c-0.3-0.2-0.5-0.4-0.6-0.6c-0.2-0.2-0.3-0.6-0.3-0.9c0-0.5,0.1-0.9,0.3-1.2c0.2-0.3,0.5-0.7,0.9-0.9
				c-0.4-0.3-0.8-0.7-1-1.1c-0.3-0.5-0.4-1-0.4-1.6c0-0.5,0.1-0.9,0.3-1.4c0.2-0.4,0.4-0.8,0.8-1.1c0.3-0.3,0.8-0.6,1.3-0.7
				c0.5-0.2,1.1-0.3,1.7-0.3c0.6,0,1.1,0.1,1.6,0.2c0.5,0.2,0.9,0.4,1.2,0.6c0.3-0.2,0.6-0.4,1-0.5c0.4-0.1,0.9-0.2,1.4-0.2
				c0.1,0.2,0.1,0.5,0.1,0.8c0,0.1,0,0.3,0,0.4c0,0.2,0,0.3-0.1,0.5h-1.7c0.1,0.2,0.2,0.5,0.3,0.7c0.1,0.3,0.1,0.6,0.1,0.9
				c0,0.5-0.1,1-0.3,1.4c-0.2,0.4-0.5,0.8-0.8,1.1c-0.4,0.3-0.8,0.5-1.3,0.7c-0.5,0.2-1,0.2-1.6,0.2c-0.5,0-1-0.1-1.4-0.2
				c-0.2,0.1-0.4,0.3-0.5,0.5c-0.2,0.2-0.3,0.4-0.3,0.7c0,0.2,0.1,0.4,0.2,0.6c0.2,0.2,0.5,0.3,1.1,0.3L269,159.1z M266.4,160.6
				c-0.6,0-1,0.1-1.3,0.5c-0.3,0.3-0.4,0.7-0.4,1.1c0,0.3,0.1,0.5,0.2,0.7c0.1,0.2,0.3,0.3,0.5,0.4c0.2,0.1,0.5,0.2,0.7,0.2
				c0.3,0,0.6,0.1,0.9,0.1c1,0,1.8-0.2,2.4-0.5c0.6-0.3,0.9-0.8,0.9-1.3c0-0.4-0.1-0.7-0.4-0.9c-0.2-0.2-0.7-0.3-1.3-0.3
				L266.4,160.6z M267.3,155.8c0.7,0,1.2-0.2,1.5-0.6c0.3-0.4,0.5-0.9,0.5-1.5c0-0.6-0.2-1.1-0.5-1.5c-0.3-0.4-0.8-0.6-1.5-0.6
				c-0.7,0-1.2,0.2-1.5,0.6c-0.3,0.4-0.5,0.9-0.5,1.5c0,0.6,0.2,1.1,0.5,1.5C266.1,155.6,266.6,155.8,267.3,155.8"/>
		</g>
		<g class="st2">
			<path class="st1" d="M275.6,155.9c0,1.1,0.3,1.9,0.8,2.4c0.5,0.5,1.3,0.7,2.4,0.7c0.9,0,1.8-0.2,2.6-0.5c0.1,0.2,0.2,0.4,0.2,0.7
				c0.1,0.3,0.1,0.5,0.1,0.8c-0.4,0.2-0.9,0.3-1.4,0.4c-0.5,0.1-1.1,0.1-1.7,0.1c-0.9,0-1.7-0.1-2.3-0.4c-0.6-0.2-1.2-0.6-1.6-1.1
				c-0.4-0.5-0.7-1-0.9-1.6c-0.2-0.6-0.3-1.3-0.3-2c0-0.7,0.1-1.4,0.3-2c0.2-0.6,0.5-1.2,0.9-1.7c0.4-0.5,0.9-0.8,1.4-1.1
				c0.6-0.3,1.3-0.4,2.1-0.4c0.7,0,1.3,0.1,1.8,0.3c0.5,0.2,0.9,0.5,1.3,0.9c0.3,0.4,0.6,0.9,0.8,1.4c0.2,0.6,0.3,1.2,0.3,1.8
				c0,0.2,0,0.4,0,0.6c0,0.2,0,0.4,0,0.5H275.6z M280.4,154.5c0-0.4,0-0.7-0.1-1c-0.1-0.3-0.2-0.6-0.4-0.9c-0.2-0.2-0.4-0.4-0.7-0.6
				c-0.3-0.1-0.6-0.2-1-0.2c-0.8,0-1.4,0.2-1.8,0.7c-0.4,0.5-0.7,1.1-0.8,2H280.4z"/>
		</g>
		<g class="st2">
			<path class="st1" d="M284.8,150.5c0.1,0,0.3,0,0.4-0.1c0.1,0,0.3,0,0.4,0c0.1,0,0.3,0,0.4,0s0.3,0,0.4,0.1c0,0.2,0.1,0.4,0.1,0.8
				c0,0.3,0.1,0.6,0.1,0.8c0.3-0.4,0.6-0.8,1.1-1.1c0.4-0.3,1-0.5,1.7-0.5c0.1,0,0.2,0,0.3,0c0.1,0,0.2,0,0.3,0c0,0.1,0,0.2,0.1,0.4
				c0,0.1,0,0.3,0,0.4c0,0.2,0,0.3,0,0.5c0,0.2,0,0.3-0.1,0.5c-0.1,0-0.2,0-0.3,0h-0.3c-0.3,0-0.7,0-1,0.1c-0.3,0.1-0.6,0.3-0.8,0.5
				c-0.2,0.2-0.4,0.6-0.6,1c-0.1,0.4-0.2,1-0.2,1.6v4.9c-0.1,0-0.3,0-0.5,0.1c-0.2,0-0.3,0-0.5,0c-0.1,0-0.3,0-0.5,0
				c-0.2,0-0.3,0-0.5-0.1V150.5z"/>
		</g>
		<g class="st2">
			<path class="st1" d="M291.9,150.5c0.1,0,0.3,0,0.4-0.1s0.3,0,0.4,0c0.1,0,0.3,0,0.4,0c0.1,0,0.3,0,0.4,0.1c0,0.2,0.1,0.4,0.1,0.8
				c0,0.3,0.1,0.6,0.1,0.8c0.1-0.2,0.3-0.5,0.4-0.7c0.2-0.2,0.4-0.4,0.6-0.6c0.2-0.2,0.5-0.3,0.8-0.4c0.3-0.1,0.6-0.2,1-0.2
				c0.8,0,1.4,0.2,1.8,0.5c0.4,0.3,0.7,0.8,0.9,1.3c0.1-0.2,0.3-0.4,0.5-0.7c0.2-0.2,0.4-0.4,0.6-0.6c0.2-0.2,0.5-0.3,0.8-0.4
				c0.3-0.1,0.6-0.2,1-0.2c1.1,0,2,0.3,2.5,1c0.5,0.6,0.8,1.6,0.8,2.8v6.3c-0.1,0-0.3,0-0.5,0.1c-0.2,0-0.3,0-0.5,0
				c-0.1,0-0.3,0-0.5,0c-0.2,0-0.3,0-0.5-0.1v-5.7c0-0.9-0.1-1.5-0.4-2c-0.3-0.4-0.7-0.7-1.3-0.7c-0.7,0-1.2,0.2-1.6,0.7
				c-0.4,0.5-0.6,1.2-0.6,2.1v5.6c-0.1,0-0.3,0-0.5,0.1c-0.2,0-0.3,0-0.5,0c-0.1,0-0.3,0-0.5,0c-0.2,0-0.3,0-0.5-0.1v-5.9
				c0-0.9-0.1-1.5-0.4-1.9c-0.3-0.4-0.7-0.6-1.2-0.6c-0.3,0-0.6,0.1-0.9,0.2s-0.5,0.4-0.7,0.6c-0.2,0.3-0.4,0.6-0.5,1.1
				c-0.1,0.4-0.2,0.9-0.2,1.5v5c-0.1,0-0.3,0-0.5,0.1c-0.2,0-0.3,0-0.5,0c-0.1,0-0.3,0-0.5,0c-0.2,0-0.3,0-0.5-0.1V150.5z"/>
		</g>
		<g class="st2">
			<path class="st1" d="M313.5,153.9c0-0.8-0.2-1.3-0.6-1.6c-0.4-0.3-0.9-0.4-1.7-0.4c-0.4,0-0.9,0-1.3,0.1
				c-0.4,0.1-0.8,0.2-1.1,0.3c-0.2-0.4-0.4-0.9-0.4-1.5c0.4-0.1,0.9-0.2,1.4-0.3c0.5-0.1,1-0.1,1.5-0.1c1.3,0,2.3,0.3,2.9,0.9
				c0.7,0.6,1,1.5,1,2.8v6.2c-0.4,0.1-1,0.2-1.6,0.3c-0.6,0.1-1.3,0.2-2,0.2c-0.6,0-1.2-0.1-1.7-0.2c-0.5-0.1-0.9-0.3-1.3-0.6
				c-0.4-0.3-0.6-0.6-0.8-1c-0.2-0.4-0.3-0.9-0.3-1.4c0-0.5,0.1-1,0.3-1.4c0.2-0.4,0.5-0.8,0.9-1c0.4-0.3,0.8-0.5,1.3-0.6
				c0.5-0.1,1-0.2,1.6-0.2c0.4,0,0.7,0,1,0c0.3,0,0.5,0,0.7,0.1V153.9z M313.5,155.7c-0.2,0-0.4-0.1-0.7-0.1c-0.3,0-0.5,0-0.7,0
				c-0.8,0-1.4,0.1-1.8,0.4c-0.4,0.3-0.6,0.7-0.6,1.3c0,0.4,0.1,0.7,0.2,0.9c0.1,0.2,0.3,0.4,0.5,0.5c0.2,0.1,0.4,0.2,0.7,0.2
				c0.3,0,0.5,0,0.7,0c0.3,0,0.6,0,0.9,0c0.3,0,0.6-0.1,0.8-0.1V155.7z"/>
		</g>
		<g class="st2">
			<path class="st1" d="M318.2,150.5c0.1,0,0.3,0,0.4-0.1s0.3,0,0.4,0c0.1,0,0.3,0,0.4,0c0.1,0,0.3,0,0.4,0.1c0,0.2,0.1,0.5,0.1,0.8
				c0,0.3,0.1,0.6,0.1,0.8c0.1-0.2,0.3-0.4,0.5-0.7c0.2-0.2,0.4-0.4,0.7-0.6c0.3-0.2,0.5-0.3,0.9-0.4c0.3-0.1,0.7-0.2,1.1-0.2
				c1.1,0,2,0.3,2.5,1c0.5,0.6,0.8,1.6,0.8,2.9v6.2c-0.1,0-0.3,0-0.5,0.1c-0.2,0-0.3,0-0.5,0c-0.1,0-0.3,0-0.5,0
				c-0.2,0-0.3,0-0.5-0.1v-5.7c0-0.9-0.1-1.6-0.4-2c-0.3-0.4-0.7-0.6-1.3-0.6c-0.4,0-0.7,0.1-1,0.2c-0.3,0.1-0.6,0.3-0.8,0.6
				c-0.2,0.3-0.4,0.6-0.6,1c-0.1,0.4-0.2,0.9-0.2,1.5v5c-0.1,0-0.3,0-0.5,0.1c-0.2,0-0.3,0-0.5,0c-0.1,0-0.3,0-0.5,0
				c-0.2,0-0.3,0-0.5-0.1V150.5z"/>
		</g>
		<g class="st2">
			<path class="st1" d="M332.7,160.4c-0.1,0-0.2,0-0.3,0c-0.1,0-0.2,0-0.3,0c-0.1,0-0.3,0-0.4,0c-0.1,0-0.3,0-0.3,0l-3.3-9.8
				c0.2,0,0.3,0,0.5,0c0.2,0,0.3,0,0.5,0c0.2,0,0.4,0,0.6,0c0.2,0,0.4,0,0.5,0l2.7,9.1l2.8-9.1c0.3,0,0.6-0.1,0.9-0.1
				c0.1,0,0.3,0,0.5,0c0.2,0,0.4,0,0.5,0l-3.8,11.8c-0.2,0.5-0.4,1-0.6,1.3c-0.2,0.4-0.4,0.6-0.7,0.9c-0.2,0.2-0.5,0.4-0.8,0.5
				c-0.3,0.1-0.6,0.1-1,0.1c-0.3,0-0.6,0-0.9-0.1c-0.3,0-0.5-0.1-0.8-0.2c0-0.3,0-0.6,0.1-0.8c0.1-0.2,0.1-0.5,0.2-0.7
				c0.1,0,0.3,0.1,0.5,0.1c0.2,0,0.4,0.1,0.6,0.1c0.2,0,0.3,0,0.5,0c0.1,0,0.3-0.1,0.4-0.2c0.1-0.1,0.2-0.2,0.4-0.4
				c0.1-0.2,0.2-0.4,0.3-0.7L332.7,160.4z"/>
		</g>
		<g class="st2">
			<polygon class="st1" points="130.4,122.6 153.3,122.5 130.7,99.2 			"/>
		</g>
		<g class="st2">
			<path class="st0" d="M130.4,123.1c-0.1,0-0.3-0.1-0.4-0.2c-0.1-0.1-0.2-0.2-0.2-0.4l0.2-23.4c0-0.2,0.1-0.4,0.3-0.5
				c0.2-0.1,0.4,0,0.6,0.1l22.6,23.3c0.1,0.2,0.2,0.4,0.1,0.6s-0.3,0.3-0.5,0.3L130.4,123.1C130.4,123.1,130.4,123.1,130.4,123.1z
				 M131.2,100.5L131,122l21-0.1L131.2,100.5z"/>
		</g>
		<g class="st2">
			<path class="st0" d="M208.4,116.5c0,1.2-1,2.1-2.1,2.1c-1.2,0-2.1-1-2.1-2.1c0-1.2,1-2.1,2.1-2.1
				C207.5,114.4,208.4,115.3,208.4,116.5"/>
		</g>
		<g class="st2">
			<path class="st1" d="M206.3,119.1c-1.4,0-2.6-1.2-2.6-2.6s1.2-2.6,2.6-2.6s2.6,1.2,2.6,2.6S207.7,119.1,206.3,119.1z
				 M206.3,114.9c-0.9,0-1.6,0.7-1.6,1.6s0.7,1.6,1.6,1.6s1.6-0.7,1.6-1.6S207.2,114.9,206.3,114.9z"/>
		</g>
		<g class="st2">
			<path class="st0" d="M233.8,123.9c0,1.2-1,2.1-2.1,2.1c-1.2,0-2.1-1-2.1-2.1c0-1.2,1-2.1,2.1-2.1
				C232.9,121.8,233.8,122.7,233.8,123.9"/>
		</g>
		<g class="st2">
			<path class="st1" d="M231.7,126.5c-1.4,0-2.6-1.2-2.6-2.6s1.2-2.6,2.6-2.6s2.6,1.2,2.6,2.6S233.1,126.5,231.7,126.5z
				 M231.7,122.3c-0.9,0-1.6,0.7-1.6,1.6s0.7,1.6,1.6,1.6s1.6-0.7,1.6-1.6S232.6,122.3,231.7,122.3z"/>
		</g>
		<g class="st2">
			<path class="st0" d="M251.9,120.5c0,1.2-1,2.1-2.1,2.1c-1.2,0-2.1-1-2.1-2.1c0-1.2,1-2.1,2.1-2.1
				C251,118.4,251.9,119.3,251.9,120.5"/>
		</g>
		<g class="st2">
			<path class="st1" d="M249.8,123.1c-1.4,0-2.6-1.2-2.6-2.6s1.2-2.6,2.6-2.6s2.6,1.2,2.6,2.6S251.2,123.1,249.8,123.1z
				 M249.8,118.9c-0.9,0-1.6,0.7-1.6,1.6s0.7,1.6,1.6,1.6s1.6-0.7,1.6-1.6S250.7,118.9,249.8,118.9z"/>
		</g>
		<g class="st2">
			<path class="st0" d="M246.6,102c0,1.2-1,2.1-2.1,2.1c-1.2,0-2.1-1-2.1-2.1c0-1.2,1-2.1,2.1-2.1C245.6,99.9,246.6,100.8,246.6,102
				"/>
		</g>
		<g class="st2">
			<path class="st1" d="M244.4,104.6c-1.4,0-2.6-1.2-2.6-2.6s1.2-2.6,2.6-2.6s2.6,1.2,2.6,2.6S245.9,104.6,244.4,104.6z
				 M244.4,100.4c-0.9,0-1.6,0.7-1.6,1.6s0.7,1.6,1.6,1.6s1.6-0.7,1.6-1.6S245.3,100.4,244.4,100.4z"/>
		</g>
		<g class="st2">
			<path class="st0" d="M221.8,95.6c0,1.2-1,2.1-2.1,2.1c-1.2,0-2.1-1-2.1-2.1c0-1.2,1-2.1,2.1-2.1
				C220.9,93.4,221.8,94.4,221.8,95.6"/>
		</g>
		<g class="st2">
			<path class="st1" d="M219.7,98.2c-1.4,0-2.6-1.2-2.6-2.6s1.2-2.6,2.6-2.6s2.6,1.2,2.6,2.6S221.1,98.2,219.7,98.2z M219.7,93.9
				c-0.9,0-1.6,0.7-1.6,1.6s0.7,1.6,1.6,1.6s1.6-0.7,1.6-1.6S220.6,93.9,219.7,93.9z"/>
		</g>
		<g class="st2">
			<path class="st0" d="M224.2,77.4c0,1.2-1,2.1-2.1,2.1c-1.2,0-2.1-1-2.1-2.1c0-1.2,1-2.1,2.1-2.1
				C223.3,75.3,224.2,76.2,224.2,77.4"/>
		</g>
		<g class="st2">
			<path class="st1" d="M222.1,80c-1.4,0-2.6-1.2-2.6-2.6s1.2-2.6,2.6-2.6s2.6,1.2,2.6,2.6S223.6,80,222.1,80z M222.1,75.8
				c-0.9,0-1.6,0.7-1.6,1.6s0.7,1.6,1.6,1.6s1.6-0.7,1.6-1.6S223,75.8,222.1,75.8z"/>
		</g>
		<g class="st2">
			<path class="st0" d="M246.5,75.6c0,1.2-1,2.1-2.1,2.1c-1.2,0-2.1-1-2.1-2.1c0-1.2,1-2.1,2.1-2.1
				C245.5,73.4,246.5,74.4,246.5,75.6"/>
		</g>
		<g class="st2">
			<path class="st1" d="M244.4,78.2c-1.4,0-2.6-1.2-2.6-2.6s1.2-2.6,2.6-2.6s2.6,1.2,2.6,2.6S245.8,78.2,244.4,78.2z M244.4,73.9
				c-0.9,0-1.6,0.7-1.6,1.6s0.7,1.6,1.6,1.6s1.6-0.7,1.6-1.6S245.3,73.9,244.4,73.9z"/>
		</g>
		<g class="st2">
			<path class="st0" d="M278.5,47.7c0,1.2-1,2.1-2.1,2.1c-1.2,0-2.1-1-2.1-2.1c0-1.2,1-2.1,2.1-2.1
				C277.5,45.6,278.5,46.6,278.5,47.7"/>
		</g>
		<g class="st2">
			<path class="st1" d="M276.4,50.4c-1.4,0-2.6-1.2-2.6-2.6s1.2-2.6,2.6-2.6s2.6,1.2,2.6,2.6S277.8,50.4,276.4,50.4z M276.4,46.1
				c-0.9,0-1.6,0.7-1.6,1.6s0.7,1.6,1.6,1.6s1.6-0.7,1.6-1.6S277.3,46.1,276.4,46.1z"/>
		</g>
		<g class="st2">
			<path class="st0" d="M251.3,57.7c0,1.2-1,2.1-2.1,2.1c-1.2,0-2.1-1-2.1-2.1c0-1.2,1-2.1,2.1-2.1
				C250.4,55.5,251.3,56.5,251.3,57.7"/>
		</g>
		<g class="st2">
			<path class="st1" d="M249.2,60.3c-1.4,0-2.6-1.2-2.6-2.6s1.2-2.6,2.6-2.6s2.6,1.2,2.6,2.6S250.6,60.3,249.2,60.3z M249.2,56
				c-0.9,0-1.6,0.7-1.6,1.6s0.7,1.6,1.6,1.6s1.6-0.7,1.6-1.6S250.1,56,249.2,56z"/>
		</g>
		<g class="st2">
			<path class="st0" d="M226.3,54.4c0,1.2-1,2.1-2.1,2.1c-1.2,0-2.1-1-2.1-2.1c0-1.2,1-2.1,2.1-2.1
				C225.4,52.3,226.3,53.2,226.3,54.4"/>
		</g>
		<g class="st2">
			<path class="st1" d="M224.2,57c-1.4,0-2.6-1.2-2.6-2.6s1.2-2.6,2.6-2.6s2.6,1.2,2.6,2.6S225.6,57,224.2,57z M224.2,52.8
				c-0.9,0-1.6,0.7-1.6,1.6s0.7,1.6,1.6,1.6s1.6-0.7,1.6-1.6S225.1,52.8,224.2,52.8z"/>
		</g>
		<g class="st2">
			<path class="st0" d="M237.1,25.3c0,1.2-1,2.1-2.1,2.1c-1.2,0-2.1-1-2.1-2.1c0-1.2,1-2.1,2.1-2.1
				C236.1,23.2,237.1,24.1,237.1,25.3"/>
		</g>
		<g class="st2">
			<path class="st1" d="M234.9,27.9c-1.4,0-2.6-1.2-2.6-2.6s1.2-2.6,2.6-2.6s2.6,1.2,2.6,2.6S236.4,27.9,234.9,27.9z M234.9,23.7
				c-0.9,0-1.6,0.7-1.6,1.6s0.7,1.6,1.6,1.6s1.6-0.7,1.6-1.6S235.8,23.7,234.9,23.7z"/>
		</g>
		<g class="st2">
			<path class="st0" d="M198.4,4.5c0,1.2-1,2.1-2.1,2.1c-1.2,0-2.1-1-2.1-2.1c0-1.2,1-2.1,2.1-2.1C197.5,2.4,198.4,3.3,198.4,4.5"/>
		</g>
		<g class="st2">
			<path class="st1" d="M196.3,7.1c-1.4,0-2.6-1.2-2.6-2.6s1.2-2.6,2.6-2.6s2.6,1.2,2.6,2.6S197.7,7.1,196.3,7.1z M196.3,2.9
				c-0.9,0-1.6,0.7-1.6,1.6s0.7,1.6,1.6,1.6s1.6-0.7,1.6-1.6S197.2,2.9,196.3,2.9z"/>
		</g>
		<g class="st2">
			<path class="st0" d="M202.2,69.8c0,1.2-1,2.1-2.1,2.1c-1.2,0-2.1-1-2.1-2.1c0-1.2,1-2.1,2.1-2.1
				C201.3,67.7,202.2,68.6,202.2,69.8"/>
		</g>
		<g class="st2">
			<path class="st1" d="M200.1,72.4c-1.4,0-2.6-1.2-2.6-2.6s1.2-2.6,2.6-2.6s2.6,1.2,2.6,2.6S201.6,72.4,200.1,72.4z M200.1,68.2
				c-0.9,0-1.6,0.7-1.6,1.6s0.7,1.6,1.6,1.6s1.6-0.7,1.6-1.6S201,68.2,200.1,68.2z"/>
		</g>
		<g class="st2">
			<path class="st0" d="M189.7,67.7c0,1.2-1,2.1-2.1,2.1c-1.2,0-2.1-1-2.1-2.1c0-1.2,1-2.1,2.1-2.1
				C188.7,65.6,189.7,66.6,189.7,67.7"/>
		</g>
		<g class="st2">
			<path class="st1" d="M187.5,70.4c-1.4,0-2.6-1.2-2.6-2.6s1.2-2.6,2.6-2.6s2.6,1.2,2.6,2.6S189,70.4,187.5,70.4z M187.5,66.1
				c-0.9,0-1.6,0.7-1.6,1.6s0.7,1.6,1.6,1.6s1.6-0.7,1.6-1.6S188.4,66.1,187.5,66.1z"/>
		</g>
		<g class="st2">
			<path class="st0" d="M174.6,54.4c0,1.2-1,2.1-2.1,2.1s-2.1-1-2.1-2.1c0-1.2,1-2.1,2.1-2.1S174.6,53.2,174.6,54.4"/>
		</g>
		<g class="st2">
			<path class="st1" d="M172.4,57c-1.4,0-2.6-1.2-2.6-2.6s1.2-2.6,2.6-2.6s2.6,1.2,2.6,2.6S173.9,57,172.4,57z M172.4,52.8
				c-0.9,0-1.6,0.7-1.6,1.6s0.7,1.6,1.6,1.6s1.6-0.7,1.6-1.6S173.3,52.8,172.4,52.8z"/>
		</g>
		<g class="st2">
			<path class="st0" d="M154.9,75.5c0,1.2-1,2.1-2.1,2.1s-2.1-1-2.1-2.1c0-1.2,1-2.1,2.1-2.1S154.9,74.3,154.9,75.5"/>
		</g>
		<g class="st2">
			<path class="st1" d="M152.8,78.1c-1.4,0-2.6-1.2-2.6-2.6s1.2-2.6,2.6-2.6s2.6,1.2,2.6,2.6S154.2,78.1,152.8,78.1z M152.8,73.9
				c-0.9,0-1.6,0.7-1.6,1.6s0.7,1.6,1.6,1.6s1.6-0.7,1.6-1.6S153.7,73.9,152.8,73.9z"/>
		</g>
		<g class="st2">
			<path class="st0" d="M150.9,62.3c0,1.2-1,2.1-2.1,2.1s-2.1-1-2.1-2.1c0-1.2,1-2.1,2.1-2.1S150.9,61.1,150.9,62.3"/>
		</g>
		<g class="st2">
			<path class="st1" d="M148.8,64.9c-1.4,0-2.6-1.2-2.6-2.6s1.2-2.6,2.6-2.6s2.6,1.2,2.6,2.6S150.2,64.9,148.8,64.9z M148.8,60.7
				c-0.9,0-1.6,0.7-1.6,1.6s0.7,1.6,1.6,1.6s1.6-0.7,1.6-1.6S149.7,60.7,148.8,60.7z"/>
		</g>
		<g class="st2">
			<path class="st0" d="M169.1,94.2c0,1.2-1,2.1-2.1,2.1s-2.1-1-2.1-2.1c0-1.2,1-2.1,2.1-2.1S169.1,93.1,169.1,94.2"/>
		</g>
		<g class="st2">
			<path class="st1" d="M166.9,96.9c-1.4,0-2.6-1.2-2.6-2.6s1.2-2.6,2.6-2.6s2.6,1.2,2.6,2.6S168.4,96.9,166.9,96.9z M166.9,92.6
				c-0.9,0-1.6,0.7-1.6,1.6s0.7,1.6,1.6,1.6s1.6-0.7,1.6-1.6S167.8,92.6,166.9,92.6z"/>
		</g>
		<g class="st2">
			<path class="st0" d="M191.9,103.7c0,1.2-1,2.1-2.1,2.1c-1.2,0-2.1-1-2.1-2.1c0-1.2,1-2.1,2.1-2.1
				C191,101.6,191.9,102.6,191.9,103.7"/>
		</g>
		<g class="st2">
			<path class="st1" d="M189.8,106.4c-1.4,0-2.6-1.2-2.6-2.6s1.2-2.6,2.6-2.6s2.6,1.2,2.6,2.6S191.2,106.4,189.8,106.4z
				 M189.8,102.1c-0.9,0-1.6,0.7-1.6,1.6s0.7,1.6,1.6,1.6s1.6-0.7,1.6-1.6S190.7,102.1,189.8,102.1z"/>
		</g>
		<g class="st2">
			<path class="st0" d="M192.2,122.6c0,1.2-1,2.1-2.1,2.1c-1.2,0-2.1-1-2.1-2.1c0-1.2,1-2.1,2.1-2.1
				C191.3,120.4,192.2,121.4,192.2,122.6"/>
		</g>
		<g class="st2">
			<path class="st1" d="M190.1,125.2c-1.4,0-2.6-1.2-2.6-2.6s1.2-2.6,2.6-2.6s2.6,1.2,2.6,2.6S191.6,125.2,190.1,125.2z
				 M190.1,120.9c-0.9,0-1.6,0.7-1.6,1.6s0.7,1.6,1.6,1.6s1.6-0.7,1.6-1.6S191,120.9,190.1,120.9z"/>
		</g>
		<g class="st2">
			<path class="st0" d="M169.2,121.7c0,1.2-1,2.1-2.1,2.1s-2.1-1-2.1-2.1c0-1.2,1-2.1,2.1-2.1S169.2,120.6,169.2,121.7"/>
		</g>
		<g class="st2">
			<path class="st1" d="M167,124.4c-1.4,0-2.6-1.2-2.6-2.6s1.2-2.6,2.6-2.6s2.6,1.2,2.6,2.6S168.5,124.4,167,124.4z M167,120.1
				c-0.9,0-1.6,0.7-1.6,1.6s0.7,1.6,1.6,1.6s1.6-0.7,1.6-1.6S167.9,120.1,167,120.1z"/>
		</g>
		<g class="st2">
			<path class="st0" d="M155.6,135.4c0,1.2-1,2.1-2.1,2.1s-2.1-1-2.1-2.1c0-1.2,1-2.1,2.1-2.1S155.6,134.2,155.6,135.4"/>
		</g>
		<g class="st2">
			<path class="st1" d="M153.4,138c-1.4,0-2.6-1.2-2.6-2.6s1.2-2.6,2.6-2.6s2.6,1.2,2.6,2.6S154.9,138,153.4,138z M153.4,133.8
				c-0.9,0-1.6,0.7-1.6,1.6s0.7,1.6,1.6,1.6s1.6-0.7,1.6-1.6S154.3,133.8,153.4,133.8z"/>
		</g>
		<g class="st2">
			<path class="st0" d="M155.4,122.5c0,1.2-1,2.1-2.1,2.1s-2.1-1-2.1-2.1c0-1.2,1-2.1,2.1-2.1S155.4,121.3,155.4,122.5"/>
		</g>
		<g class="st2">
			<path class="st1" d="M153.3,125.1c-1.4,0-2.6-1.2-2.6-2.6s1.2-2.6,2.6-2.6s2.6,1.2,2.6,2.6S154.7,125.1,153.3,125.1z
				 M153.3,120.9c-0.9,0-1.6,0.7-1.6,1.6s0.7,1.6,1.6,1.6s1.6-0.7,1.6-1.6S154.2,120.9,153.3,120.9z"/>
		</g>
		<g class="st2">
			<path class="st0" d="M132.8,99.2c0,1.2-1,2.1-2.1,2.1s-2.1-1-2.1-2.1c0-1.2,1-2.1,2.1-2.1S132.8,98,132.8,99.2"/>
		</g>
		<g class="st2">
			<path class="st1" d="M130.7,101.8c-1.4,0-2.6-1.2-2.6-2.6s1.2-2.6,2.6-2.6s2.6,1.2,2.6,2.6S132.1,101.8,130.7,101.8z M130.7,97.5
				c-0.9,0-1.6,0.7-1.6,1.6s0.7,1.6,1.6,1.6s1.6-0.7,1.6-1.6S131.6,97.5,130.7,97.5z"/>
		</g>
		<g class="st2">
			<path class="st0" d="M132.6,122.6c0,1.2-1,2.1-2.1,2.1s-2.1-1-2.1-2.1c0-1.2,1-2.1,2.1-2.1S132.6,121.4,132.6,122.6"/>
		</g>
		<g class="st2">
			<path class="st1" d="M130.4,125.2c-1.4,0-2.6-1.2-2.6-2.6s1.2-2.6,2.6-2.6s2.6,1.2,2.6,2.6S131.9,125.2,130.4,125.2z
				 M130.4,120.9c-0.9,0-1.6,0.7-1.6,1.6s0.7,1.6,1.6,1.6s1.6-0.7,1.6-1.6S131.3,120.9,130.4,120.9z"/>
		</g>
		<g class="st2">
			<path class="st0" d="M133.1,169.7c0,1.2-1,2.1-2.1,2.1s-2.1-1-2.1-2.1c0-1.2,1-2.1,2.1-2.1S133.1,168.5,133.1,169.7"/>
		</g>
		<g class="st2">
			<path class="st1" d="M130.9,172.3c-1.4,0-2.6-1.2-2.6-2.6s1.2-2.6,2.6-2.6s2.6,1.2,2.6,2.6S132.4,172.3,130.9,172.3z M130.9,168
				c-0.9,0-1.6,0.7-1.6,1.6s0.7,1.6,1.6,1.6s1.6-0.7,1.6-1.6S131.8,168,130.9,168z"/>
		</g>
		<g class="st2">
			<path class="st0" d="M119.5,122.4c0,1.2-1,2.1-2.1,2.1s-2.1-1-2.1-2.1c0-1.2,1-2.1,2.1-2.1S119.5,121.2,119.5,122.4"/>
		</g>
		<g class="st2">
			<path class="st1" d="M117.4,125c-1.4,0-2.6-1.2-2.6-2.6s1.2-2.6,2.6-2.6s2.6,1.2,2.6,2.6S118.8,125,117.4,125z M117.4,120.8
				c-0.9,0-1.6,0.7-1.6,1.6s0.7,1.6,1.6,1.6s1.6-0.7,1.6-1.6S118.3,120.8,117.4,120.8z"/>
		</g>
		<g class="st2">
			<path class="st0" d="M119.3,109.4c0,1.2-1,2.1-2.1,2.1s-2.1-1-2.1-2.1c0-1.2,1-2.1,2.1-2.1S119.3,108.2,119.3,109.4"/>
		</g>
		<g class="st2">
			<path class="st1" d="M117.2,112c-1.4,0-2.6-1.2-2.6-2.6s1.2-2.6,2.6-2.6s2.6,1.2,2.6,2.6S118.6,112,117.2,112z M117.2,107.7
				c-0.9,0-1.6,0.7-1.6,1.6s0.7,1.6,1.6,1.6s1.6-0.7,1.6-1.6S118.1,107.7,117.2,107.7z"/>
		</g>
		<g class="st2">
			<path class="st0" d="M96.8,122.2c0,1.2-1,2.1-2.1,2.1s-2.1-1-2.1-2.1c0-1.2,1-2.1,2.1-2.1S96.8,121.1,96.8,122.2"/>
		</g>
		<g class="st2">
			<path class="st1" d="M94.7,124.9c-1.4,0-2.6-1.2-2.6-2.6s1.2-2.6,2.6-2.6s2.6,1.2,2.6,2.6S96.1,124.9,94.7,124.9z M94.7,120.6
				c-0.9,0-1.6,0.7-1.6,1.6s0.7,1.6,1.6,1.6s1.6-0.7,1.6-1.6S95.6,120.6,94.7,120.6z"/>
		</g>
		<g class="st2">
			<path class="st0" d="M77.9,120.3c0,1.2-1,2.1-2.1,2.1s-2.1-1-2.1-2.1c0-1.2,1-2.1,2.1-2.1S77.9,119.1,77.9,120.3"/>
		</g>
		<g class="st2">
			<path class="st1" d="M75.8,122.9c-1.4,0-2.6-1.2-2.6-2.6s1.2-2.6,2.6-2.6s2.6,1.2,2.6,2.6S77.2,122.9,75.8,122.9z M75.8,118.7
				c-0.9,0-1.6,0.7-1.6,1.6s0.7,1.6,1.6,1.6s1.6-0.7,1.6-1.6S76.7,118.7,75.8,118.7z"/>
		</g>
		<g class="st2">
			<path class="st0" d="M67.4,100.3c0,1.2-1,2.1-2.1,2.1s-2.1-1-2.1-2.1c0-1.2,1-2.1,2.1-2.1S67.4,99.1,67.4,100.3"/>
		</g>
		<g class="st2">
			<path class="st1" d="M65.3,102.9c-1.4,0-2.6-1.2-2.6-2.6s1.2-2.6,2.6-2.6s2.6,1.2,2.6,2.6S66.7,102.9,65.3,102.9z M65.3,98.7
				c-0.9,0-1.6,0.7-1.6,1.6s0.7,1.6,1.6,1.6s1.6-0.7,1.6-1.6S66.2,98.7,65.3,98.7z"/>
		</g>
		<g class="st2">
			<path class="st0" d="M43.3,102.2c0,1.2-1,2.1-2.1,2.1c-1.2,0-2.1-1-2.1-2.1c0-1.2,1-2.1,2.1-2.1
				C42.4,100.1,43.3,101.1,43.3,102.2"/>
		</g>
		<g class="st2">
			<path class="st1" d="M41.2,104.9c-1.4,0-2.6-1.2-2.6-2.6s1.2-2.6,2.6-2.6s2.6,1.2,2.6,2.6S42.6,104.9,41.2,104.9z M41.2,100.6
				c-0.9,0-1.6,0.7-1.6,1.6s0.7,1.6,1.6,1.6s1.6-0.7,1.6-1.6S42.1,100.6,41.2,100.6z"/>
		</g>
		<g class="st2">
			<path class="st0" d="M51.8,124c0,1.2-1,2.1-2.1,2.1s-2.1-1-2.1-2.1c0-1.2,1-2.1,2.1-2.1S51.8,122.8,51.8,124"/>
		</g>
		<g class="st2">
			<path class="st1" d="M49.7,126.6c-1.4,0-2.6-1.2-2.6-2.6s1.2-2.6,2.6-2.6s2.6,1.2,2.6,2.6S51.1,126.6,49.7,126.6z M49.7,122.4
				c-0.9,0-1.6,0.7-1.6,1.6s0.7,1.6,1.6,1.6s1.6-0.7,1.6-1.6S50.6,122.4,49.7,122.4z"/>
		</g>
		<g class="st2">
			<path class="st0" d="M38.1,120.2c0,1.2-1,2.1-2.1,2.1c-1.2,0-2.1-1-2.1-2.1c0-1.2,1-2.1,2.1-2.1
				C37.1,118.1,38.1,119.1,38.1,120.2"/>
		</g>
		<g class="st2">
			<path class="st1" d="M35.9,122.9c-1.4,0-2.6-1.2-2.6-2.6s1.2-2.6,2.6-2.6s2.6,1.2,2.6,2.6S37.4,122.9,35.9,122.9z M35.9,118.6
				c-0.9,0-1.6,0.7-1.6,1.6s0.7,1.6,1.6,1.6s1.6-0.7,1.6-1.6S36.8,118.6,35.9,118.6z"/>
		</g>
		<g class="st2">
			<path class="st0" d="M7.3,87.2c0,1.2-1,2.1-2.1,2.1c-1.2,0-2.1-1-2.1-2.1C3.1,86,4,85,5.2,85C6.4,85,7.3,86,7.3,87.2"/>
		</g>
		<g class="st2">
			<path class="st1" d="M5.2,89.8c-1.4,0-2.6-1.2-2.6-2.6s1.2-2.6,2.6-2.6s2.6,1.2,2.6,2.6S6.6,89.8,5.2,89.8z M5.2,85.5
				c-0.9,0-1.6,0.7-1.6,1.6s0.7,1.6,1.6,1.6s1.6-0.7,1.6-1.6S6.1,85.5,5.2,85.5z"/>
		</g>
		<g class="st2">
			<path class="st0" d="M40.6,68c0,1.2-1,2.1-2.1,2.1c-1.2,0-2.1-1-2.1-2.1c0-1.2,1-2.1,2.1-2.1C39.6,65.9,40.6,66.8,40.6,68"/>
		</g>
		<g class="st2">
			<path class="st1" d="M38.4,70.6c-1.4,0-2.6-1.2-2.6-2.6s1.2-2.6,2.6-2.6s2.6,1.2,2.6,2.6S39.9,70.6,38.4,70.6z M38.4,66.4
				c-0.9,0-1.6,0.7-1.6,1.6s0.7,1.6,1.6,1.6s1.6-0.7,1.6-1.6S39.3,66.4,38.4,66.4z"/>
		</g>
		<g class="st2">
			<path class="st0" d="M42.5,88.9c0,1.2-1,2.1-2.1,2.1c-1.2,0-2.1-1-2.1-2.1c0-1.2,1-2.1,2.1-2.1C41.5,86.8,42.5,87.7,42.5,88.9"/>
		</g>
		<g class="st2">
			<path class="st1" d="M40.4,91.5c-1.4,0-2.6-1.2-2.6-2.6s1.2-2.6,2.6-2.6s2.6,1.2,2.6,2.6S41.8,91.5,40.4,91.5z M40.4,87.3
				c-0.9,0-1.6,0.7-1.6,1.6s0.7,1.6,1.6,1.6s1.6-0.7,1.6-1.6S41.3,87.3,40.4,87.3z"/>
		</g>
		<g class="st2">
			<path class="st0" d="M62.1,75c0,1.2-1,2.1-2.1,2.1s-2.1-1-2.1-2.1c0-1.2,1-2.1,2.1-2.1S62.1,73.8,62.1,75"/>
		</g>
		<g class="st2">
			<path class="st1" d="M59.9,77.6c-1.4,0-2.6-1.2-2.6-2.6s1.2-2.6,2.6-2.6s2.6,1.2,2.6,2.6S61.4,77.6,59.9,77.6z M59.9,73.4
				c-0.9,0-1.6,0.7-1.6,1.6s0.7,1.6,1.6,1.6s1.6-0.7,1.6-1.6S60.8,73.4,59.9,73.4z"/>
		</g>
		<g class="st2">
			<path class="st0" d="M65.5,54.5c0,1.2-1,2.1-2.1,2.1c-1.2,0-2.1-1-2.1-2.1c0-1.2,1-2.1,2.1-2.1C64.5,52.4,65.5,53.3,65.5,54.5"/>
		</g>
		<g class="st2">
			<path class="st1" d="M63.4,57.1c-1.4,0-2.6-1.2-2.6-2.6s1.2-2.6,2.6-2.6S66,53,66,54.5S64.8,57.1,63.4,57.1z M63.4,52.9
				c-0.9,0-1.6,0.7-1.6,1.6s0.7,1.6,1.6,1.6s1.6-0.7,1.6-1.6S64.3,52.9,63.4,52.9z"/>
		</g>
		<g class="st2">
			<path class="st0" d="M39.1,147.6c0,1.2-1,2.1-2.1,2.1c-1.2,0-2.1-1-2.1-2.1c0-1.2,1-2.1,2.1-2.1
				C38.1,145.5,39.1,146.4,39.1,147.6"/>
		</g>
		<g class="st2">
			<path class="st1" d="M37,150.2c-1.4,0-2.6-1.2-2.6-2.6s1.2-2.6,2.6-2.6s2.6,1.2,2.6,2.6S38.4,150.2,37,150.2z M37,146
				c-0.9,0-1.6,0.7-1.6,1.6s0.7,1.6,1.6,1.6s1.6-0.7,1.6-1.6S37.9,146,37,146z"/>
		</g>
		<g class="st2">
			<path class="st0" d="M90.3,199.9c0,1.2-1,2.1-2.1,2.1s-2.1-1-2.1-2.1c0-1.2,1-2.1,2.1-2.1S90.3,198.7,90.3,199.9"/>
		</g>
		<g class="st2">
			<path class="st1" d="M88.1,202.5c-1.4,0-2.6-1.2-2.6-2.6s1.2-2.6,2.6-2.6s2.6,1.2,2.6,2.6S89.6,202.5,88.1,202.5z M88.1,198.3
				c-0.9,0-1.6,0.7-1.6,1.6s0.7,1.6,1.6,1.6s1.6-0.7,1.6-1.6S89,198.3,88.1,198.3z"/>
		</g>
		<g class="st2">
			<path class="st0" d="M119.2,95.6c0,1.2-1,2.1-2.1,2.1s-2.1-1-2.1-2.1c0-1.2,1-2.1,2.1-2.1S119.2,94.4,119.2,95.6"/>
		</g>
		<g class="st2">
			<path class="st1" d="M117,98.2c-1.4,0-2.6-1.2-2.6-2.6s1.2-2.6,2.6-2.6s2.6,1.2,2.6,2.6S118.5,98.2,117,98.2z M117,93.9
				c-0.9,0-1.6,0.7-1.6,1.6s0.7,1.6,1.6,1.6s1.6-0.7,1.6-1.6S117.9,93.9,117,93.9z"/>
		</g>
		<g class="st2">
			<path class="st0" d="M127.7,74.7c0,1.2-1,2.1-2.1,2.1s-2.1-1-2.1-2.1c0-1.2,1-2.1,2.1-2.1S127.7,73.6,127.7,74.7"/>
		</g>
		<g class="st2">
			<path class="st1" d="M125.5,77.4c-1.4,0-2.6-1.2-2.6-2.6s1.2-2.6,2.6-2.6s2.6,1.2,2.6,2.6S127,77.4,125.5,77.4z M125.5,73.1
				c-0.9,0-1.6,0.7-1.6,1.6s0.7,1.6,1.6,1.6s1.6-0.7,1.6-1.6S126.4,73.1,125.5,73.1z"/>
		</g>
		<g class="st2">
			<path class="st0" d="M117.1,59.4c0,1.2-1,2.1-2.1,2.1s-2.1-1-2.1-2.1c0-1.2,1-2.1,2.1-2.1S117.1,58.2,117.1,59.4"/>
		</g>
		<g class="st2">
			<path class="st1" d="M114.9,62c-1.4,0-2.6-1.2-2.6-2.6s1.2-2.6,2.6-2.6s2.6,1.2,2.6,2.6S116.4,62,114.9,62z M114.9,57.8
				c-0.9,0-1.6,0.7-1.6,1.6s0.7,1.6,1.6,1.6s1.6-0.7,1.6-1.6S115.8,57.8,114.9,57.8z"/>
		</g>
		<g class="st2">
			<path class="st0" d="M96.4,53.2c0,1.2-1,2.1-2.1,2.1s-2.1-1-2.1-2.1c0-1.2,1-2.1,2.1-2.1S96.4,52.1,96.4,53.2"/>
		</g>
		<g class="st2">
			<path class="st1" d="M94.3,55.9c-1.4,0-2.6-1.2-2.6-2.6s1.2-2.6,2.6-2.6s2.6,1.2,2.6,2.6S95.7,55.9,94.3,55.9z M94.3,51.6
				c-0.9,0-1.6,0.7-1.6,1.6s0.7,1.6,1.6,1.6s1.6-0.7,1.6-1.6S95.2,51.6,94.3,51.6z"/>
		</g>
		<g class="st2">
			<path class="st0" d="M96.8,68.2c0,1.2-1,2.1-2.1,2.1s-2.1-1-2.1-2.1c0-1.2,1-2.1,2.1-2.1S96.8,67.1,96.8,68.2"/>
		</g>
		<g class="st2">
			<path class="st1" d="M94.7,70.9c-1.4,0-2.6-1.2-2.6-2.6s1.2-2.6,2.6-2.6s2.6,1.2,2.6,2.6S96.1,70.9,94.7,70.9z M94.7,66.6
				c-0.9,0-1.6,0.7-1.6,1.6s0.7,1.6,1.6,1.6s1.6-0.7,1.6-1.6S95.6,66.6,94.7,66.6z"/>
		</g>
		<g class="st2">
			<path class="st0" d="M96.3,83.3c0,1.2-1,2.1-2.1,2.1s-2.1-1-2.1-2.1c0-1.2,1-2.1,2.1-2.1S96.3,82.1,96.3,83.3"/>
		</g>
		<g class="st2">
			<path class="st1" d="M94.2,85.9c-1.4,0-2.6-1.2-2.6-2.6s1.2-2.6,2.6-2.6s2.6,1.2,2.6,2.6S95.6,85.9,94.2,85.9z M94.2,81.7
				c-0.9,0-1.6,0.7-1.6,1.6s0.7,1.6,1.6,1.6s1.6-0.7,1.6-1.6S95.1,81.7,94.2,81.7z"/>
		</g>
		<g class="st2">
			<path class="st0" d="M82.9,76.1c0,1.2-1,2.1-2.1,2.1s-2.1-1-2.1-2.1c0-1.2,1-2.1,2.1-2.1S82.9,74.9,82.9,76.1"/>
		</g>
		<g class="st2">
			<path class="st1" d="M80.8,78.7c-1.4,0-2.6-1.2-2.6-2.6s1.2-2.6,2.6-2.6s2.6,1.2,2.6,2.6S82.2,78.7,80.8,78.7z M80.8,74.4
				c-0.9,0-1.6,0.7-1.6,1.6s0.7,1.6,1.6,1.6s1.6-0.7,1.6-1.6S81.7,74.4,80.8,74.4z"/>
		</g>
		<g class="st2">
			<path class="st0" d="M89,92.2c0,1.2-1,2.1-2.1,2.1s-2.1-1-2.1-2.1c0-1.2,1-2.1,2.1-2.1S89,91,89,92.2"/>
		</g>
		<g class="st2">
			<path class="st1" d="M86.9,94.8c-1.4,0-2.6-1.2-2.6-2.6s1.2-2.6,2.6-2.6s2.6,1.2,2.6,2.6S88.3,94.8,86.9,94.8z M86.9,90.5
				c-0.9,0-1.6,0.7-1.6,1.6s0.7,1.6,1.6,1.6s1.6-0.7,1.6-1.6S87.8,90.5,86.9,90.5z"/>
		</g>
		<g class="st2">
			<path class="st0" d="M88.1,58.1c0,1.2-1,2.1-2.1,2.1s-2.1-1-2.1-2.1c0-1.2,1-2.1,2.1-2.1S88.1,56.9,88.1,58.1"/>
		</g>
		<g class="st2">
			<path class="st1" d="M85.9,60.7c-1.4,0-2.6-1.2-2.6-2.6s1.2-2.6,2.6-2.6s2.6,1.2,2.6,2.6S87.4,60.7,85.9,60.7z M85.9,56.4
				c-0.9,0-1.6,0.7-1.6,1.6s0.7,1.6,1.6,1.6s1.6-0.7,1.6-1.6S86.8,56.4,85.9,56.4z"/>
		</g>
		<g class="st2">
			<path class="st0" d="M74.5,16.7c0,1.2-1,2.1-2.1,2.1s-2.1-1-2.1-2.1c0-1.2,1-2.1,2.1-2.1S74.5,15.5,74.5,16.7"/>
		</g>
		<g class="st2">
			<path class="st1" d="M72.4,19.3c-1.4,0-2.6-1.2-2.6-2.6s1.2-2.6,2.6-2.6s2.6,1.2,2.6,2.6S73.8,19.3,72.4,19.3z M72.4,15
				c-0.9,0-1.6,0.7-1.6,1.6s0.7,1.6,1.6,1.6s1.6-0.7,1.6-1.6S73.3,15,72.4,15z"/>
		</g>
		<g class="st2">
			<path class="st0" d="M138.4,44.8c0,1.2-1,2.1-2.1,2.1s-2.1-1-2.1-2.1c0-1.2,1-2.1,2.1-2.1S138.4,43.6,138.4,44.8"/>
		</g>
		<g class="st2">
			<path class="st1" d="M136.3,47.4c-1.4,0-2.6-1.2-2.6-2.6s1.2-2.6,2.6-2.6s2.6,1.2,2.6,2.6S137.7,47.4,136.3,47.4z M136.3,43.2
				c-0.9,0-1.6,0.7-1.6,1.6s0.7,1.6,1.6,1.6s1.6-0.7,1.6-1.6S137.2,43.2,136.3,43.2z"/>
		</g>
		<g class="st2">
			<path class="st0" d="M198.1,94.2c0,1.2-1,2.1-2.1,2.1c-1.2,0-2.1-1-2.1-2.1c0-1.2,1-2.1,2.1-2.1
				C197.1,92.1,198.1,93.1,198.1,94.2"/>
		</g>
		<g class="st2">
			<path class="st1" d="M195.9,96.9c-1.4,0-2.6-1.2-2.6-2.6s1.2-2.6,2.6-2.6s2.6,1.2,2.6,2.6S197.4,96.9,195.9,96.9z M195.9,92.6
				c-0.9,0-1.6,0.7-1.6,1.6s0.7,1.6,1.6,1.6s1.6-0.7,1.6-1.6S196.8,92.6,195.9,92.6z"/>
		</g>
	</g>
</g>
</svg>
